<svg width="36" height="36" viewBox="0 0 36 36" fill="none" xmlns="http://www.w3.org/2000/svg">
    <path fill-rule="evenodd" clip-rule="evenodd"
        d="M21.9953 20.9136C20.9607 20.9136 20.108 19.964 20.108 18.7979C20.108 17.6319 20.9441 16.6823 21.9953 16.6823C23.0548 16.6823 23.8992 17.6402 23.8826 18.7979C23.8826 19.964 23.0548 20.9136 21.9953 20.9136ZM15.0174 20.9136C13.9828 20.9136 13.13 19.964 13.13 18.7979C13.13 17.6319 13.9662 16.6823 15.0174 16.6823C16.0769 16.6823 16.9213 17.6402 16.9047 18.7979C16.9047 19.964 16.0686 20.9136 15.0174 20.9136ZM25.7774 11.3262C24.4387 10.7124 23.0036 10.2601 21.5028 10.0011C21.4756 9.99607 21.4481 10.0085 21.4342 10.0336C21.2497 10.3618 21.045 10.7899 20.9018 11.1264C19.2878 10.8848 17.682 10.8848 16.1008 11.1264C15.9577 10.7825 15.7459 10.3618 15.5604 10.0336C15.5462 10.0094 15.519 9.99696 15.4918 10.0011C13.9919 10.2595 12.5565 10.7116 11.2173 11.3262C11.2057 11.3312 11.1957 11.3398 11.1892 11.3505C8.46657 15.4163 7.72092 19.3819 8.0868 23.2984C8.08827 23.3176 8.09922 23.3359 8.11401 23.3474C9.91025 24.6661 11.65 25.4667 13.3578 25.9971C13.385 26.0054 13.414 25.9956 13.4314 25.9731C13.8355 25.4214 14.1954 24.8402 14.5042 24.2288C14.5226 24.193 14.5051 24.1504 14.4678 24.1362C13.8967 23.9198 13.3528 23.6558 12.8295 23.3557C12.7884 23.3318 12.7849 23.2726 12.823 23.2443C12.9331 23.1618 13.0434 23.076 13.1484 22.9894C13.1673 22.9734 13.1939 22.9702 13.2161 22.9802C16.653 24.5487 20.3739 24.5487 23.7699 22.9802C23.7924 22.9693 23.8188 22.9726 23.8386 22.9885C23.9439 23.0751 24.0539 23.1618 24.1648 23.2443C24.203 23.2726 24.2003 23.3318 24.1592 23.3557C23.636 23.6614 23.092 23.9198 22.52 24.1354C22.4827 24.1496 22.4662 24.193 22.4845 24.2288C22.7998 24.8393 23.1601 25.4209 23.5564 25.9722C23.573 25.9956 23.6028 26.0054 23.63 25.9971C25.3461 25.4667 27.0859 24.6661 28.8821 23.3474C28.8978 23.3359 28.9079 23.3185 28.9096 23.2993C29.3474 18.7713 28.1761 14.838 25.8046 11.3513C25.7987 11.3398 25.7889 11.3312 25.7774 11.3262Z"
        fill="#333333" />
</svg>