<svg width="36" height="36" viewBox="0 0 36 36" fill="none" xmlns="http://www.w3.org/2000/svg">
    <path fill-rule="evenodd" clip-rule="evenodd"
        d="M10.3558 21.5744C10.3558 21.5744 11.129 21.947 11.6655 23.3467C11.6655 23.3467 12.3577 25.7029 15.6381 24.9703C15.6439 25.9513 15.6533 26.6936 15.6541 27H21.5011C21.5019 26.5746 21.5156 25.2938 21.5156 23.7074C21.5156 22.5777 21.1384 21.8376 20.7149 21.4643C23.3423 21.1638 26.1 20.1397 26.1 15.486C26.1 14.1629 25.6432 13.0815 24.8873 12.2344C25.0089 11.9279 25.4137 10.6963 24.77 9.02807C24.77 9.02807 23.7818 8.70231 21.5301 10.2701C20.5882 10.0016 19.5789 9.86702 18.5776 9.86256C17.5749 9.86702 16.5656 10.0016 15.6251 10.2701C13.372 8.70231 12.3816 9.02807 12.3816 9.02807C11.7401 10.6963 12.1448 11.9279 12.2664 12.2344C11.512 13.0815 11.0523 14.1629 11.0523 15.486C11.0523 20.1285 13.8057 21.1675 16.4244 21.4732C16.0877 21.7759 15.7829 22.3099 15.6758 23.0931C15.0032 23.4032 13.2953 23.938 12.2433 22.0868C12.2433 22.0868 11.6206 20.9236 10.4369 20.838C10.4369 20.838 9.28498 20.8224 10.3558 21.5744Z"
        fill="#333333" />
</svg>