<?xml version="1.0" encoding="UTF-8"?><svg version="1.1" width="23px" height="20px" viewBox="0 0 23.0 20.0" xmlns="http://www.w3.org/2000/svg" xmlns:xlink="http://www.w3.org/1999/xlink"><defs><clipPath id="i0"><path d="M1280,0 L1280,3374 L0,3374 L0,0 L1280,0 Z"></path></clipPath><clipPath id="i1"><path d="M9.75908767,1.66708066 L12,3.90121004 L12,20 L1.67355666,9.71789504 C0.558802566,8.60792733 0,7.14878819 0,5.69248785 C0,4.2361875 0.558802566,2.77988716 1.67355666,1.66708066 C3.90591589,-0.555693552 7.52387741,-0.555693552 9.75908767,1.66708066 Z"></path></clipPath><clipPath id="i2"><path d="M2.24091233,1.66708066 C4.47612259,-0.555693552 8.09408411,-0.555693552 10.3264433,1.66708066 C11.4411974,2.77988716 12,4.2361875 12,5.69248785 C12,7.14878819 11.4411974,8.60792733 10.3264433,9.71789504 L0,20 L0,3.90121004 Z"></path></clipPath></defs><g transform="translate(-40.0 -3330.0)"><g clip-path="url(#i0)"><g transform="translate(40.0 3330.0)"><g clip-path="url(#i1)"><polygon points="0,2.22044605e-16 12,2.22044605e-16 12,20 0,20 0,2.22044605e-16" stroke="none" fill="#DB5841"></polygon></g><g transform="translate(11.0 0.0)"><g clip-path="url(#i2)"><polygon points="0,2.22044605e-16 12,2.22044605e-16 12,20 0,20 0,2.22044605e-16" stroke="none" fill="#BB4A34"></polygon></g></g></g></g></g></svg>