<svg width="36" height="36" viewBox="0 0 36 36" fill="none" xmlns="http://www.w3.org/2000/svg">
    <path fill-rule="evenodd" clip-rule="evenodd"
        d="M27.3707 10.3348C27.3549 10.2632 27.3209 10.1965 27.2712 10.1431C27.2227 10.0885 27.1596 10.0497 27.0892 10.0278C26.8345 9.9769 26.5701 9.99631 26.325 10.0824C26.325 10.0824 9.31892 16.1939 8.34724 16.8708C8.1386 17.0176 8.06824 17.1013 8.03306 17.2008C7.86565 17.686 8.38849 17.8958 8.38849 17.8958L12.7713 19.3236C12.8453 19.337 12.9217 19.3321 12.9933 19.3103C13.9905 18.6807 23.0254 12.9756 23.5471 12.784C23.6296 12.7597 23.6902 12.784 23.6684 12.8434C23.4597 13.5712 15.6548 20.5088 15.6123 20.5513C15.5917 20.5683 15.5747 20.5901 15.565 20.6156C15.5541 20.641 15.5505 20.6677 15.5529 20.6944L15.1441 24.9741C15.1441 24.9741 14.9718 26.3085 16.3038 24.9741C17.2488 24.0292 18.1562 23.2455 18.6086 22.8658C20.1153 23.9066 21.7372 25.0566 22.4371 25.6559C22.5548 25.7699 22.6931 25.8597 22.8459 25.9179C22.9988 25.9774 23.1613 26.0053 23.3251 25.9992C23.5264 25.9737 23.7157 25.8888 23.8673 25.7541C24.019 25.6195 24.1257 25.4412 24.1742 25.2447C24.1742 25.2447 27.2809 12.7803 27.384 11.1026C27.3937 10.9389 27.4095 10.8394 27.4095 10.7181C27.4144 10.5895 27.401 10.4597 27.3707 10.3348Z"
        fill="#333333" />
</svg>