<svg width="36" height="36" viewBox="0 0 36 36" fill="none" xmlns="http://www.w3.org/2000/svg">
    <path fill-rule="evenodd" clip-rule="evenodd"
        d="M27.6879 11.894C26.9636 12.2153 26.1851 12.4323 25.3681 12.53C26.2019 12.0301 26.8424 11.2386 27.1441 10.2953C26.3635 10.7582 25.4991 11.0944 24.579 11.2755C23.8423 10.4904 22.7925 10 21.6308 10C19.4001 10 17.5915 11.8084 17.5915 14.0391C17.5915 14.3557 17.6272 14.664 17.6961 14.9596C14.3391 14.7912 11.3628 13.183 9.37067 10.7393C9.02299 11.3358 8.82374 12.0296 8.82374 12.7699C8.82374 14.1713 9.53684 15.4076 10.6207 16.132C9.95856 16.1109 9.33573 15.9293 8.79116 15.6267C8.79077 15.6436 8.79077 15.6605 8.79077 15.6776C8.79077 17.6346 10.1831 19.267 12.0309 19.6382C11.692 19.7305 11.3351 19.7799 10.9668 19.7799C10.7065 19.7799 10.4534 19.7546 10.2067 19.7074C10.7208 21.3121 12.2124 22.48 13.98 22.5125C12.5976 23.5959 10.856 24.2417 8.96353 24.2417C8.6375 24.2417 8.31599 24.2225 8 24.1851C9.78757 25.3312 11.9107 26 14.1918 26C21.6213 26 25.6842 19.8451 25.6842 14.5075C25.6842 14.3323 25.6802 14.1581 25.6724 13.9848C26.4617 13.4154 27.1464 12.704 27.6879 11.894Z"
        fill="#333333" />
</svg>