<svg xmlns="http://www.w3.org/2000/svg" xmlns:xlink="http://www.w3.org/1999/xlink" width="24" height="24"
    viewBox="0 0 24 24" fill="none">
    <g opacity="1"
        transform="translate(-4.973799150320701e-13 2.2737367544323206e-13)  rotate(0 12.00000000000017 11.999999999999975)">
        <g opacity="1"
            transform="translate(3.000000000000455 2.999999999999886)  rotate(0 8.99999999999982 8.99999999999982)">
            <path id="椭圆形" style="stroke:#FAAF66; stroke-width:1; stroke-opacity:1; stroke-dasharray:0 0"
                transform="translate(0 0)  rotate(0 8.99999999999982 8.99999999999982)"
                d="M18,9C18,4.03 13.97,0 9,0C4.03,0 0,4.03 0,9C0,13.97 4.03,18 9,18C13.97,18 18,13.97 18,9Z " />
            <g opacity="1" transform="translate(2.551690353280605 3.564340171944536)  rotate(0 6.448309646718975 6)">
                <g opacity="1" transform="translate(0 0)  rotate(0 6.448309646718975 3.06069394948413)">
                    <rect id="矩形"
                        style="stroke:#FAAF66; stroke-width:1.164881880532309; stroke-opacity:1; stroke-dasharray:0 0"
                        transform="translate(0 0)  rotate(0 3.9564363366865014 3.06069394948413)" x="0.5824409402661544"
                        y="0.5824409402661544" rx="0" width="6.747990792840694" height="4.9565060184359515" />
                    <rect id="矩形备份"
                        style="stroke:#FAAF66; stroke-width:1.164881880532309; stroke-opacity:1; stroke-dasharray:0 0"
                        transform="translate(4.983746620064949 0)  rotate(0 3.9564363366865014 3.06069394948413)"
                        x="0.5824409402661544" y="0.5824409402661544" rx="0" width="6.747990792840694"
                        height="4.9565060184359515" />
                </g>
                <g opacity="1"
                    transform="translate(1.788782124589716 2.680944955741666)  rotate(0 4.659527522129236 4.659527522129169)">
                    <path id="椭圆形" fill-rule="evenodd" style="fill:#FFFFFF"
                        transform="translate(0 0)  rotate(0 4.659527522129236 4.659527522129169)" opacity="1"
                        d="M0,4.66C0,7.23 2.09,9.32 4.66,9.32C7.23,9.32 9.32,7.23 9.32,4.66C9.32,2.09 7.23,0 4.66,0C2.09,0 0,2.09 0,4.66Z " />
                    <path id="椭圆形"
                        style="stroke:#8c91a3; stroke-width:1.164881880532309; stroke-opacity:1; stroke-dasharray:0 0"
                        transform="translate(0 0)  rotate(0 4.659527522129236 4.659527522129169)"
                        d="M0,4.66C0,7.23 2.09,9.32 4.66,9.32C7.23,9.32 9.32,7.23 9.32,4.66C9.32,2.09 7.23,0 4.66,0C2.09,0 0,2.09 0,4.66Z " />
                    <path id="椭圆形"
                        style="stroke:#8c91a3; stroke-width:1.164881880532309; stroke-opacity:1; stroke-dasharray:0 0"
                        transform="translate(2.329763761064669 2.3297637610645)  rotate(0 2.329763761064618 2.3297637610645845)"
                        d="M0,2.33C0,3.62 1.04,4.66 2.33,4.66C3.62,4.66 4.66,3.62 4.66,2.33C4.66,1.04 3.62,0 2.33,0C1.04,0 0,1.04 0,2.33Z " />
                </g>
            </g>
        </g>
    </g>
</svg>