<?xml version="1.0" encoding="UTF-8"?>
<svg width="24px" height="24px" viewBox="0 0 24 24" version="1.1" xmlns="http://www.w3.org/2000/svg"
    xmlns:xlink="http://www.w3.org/1999/xlink">
    <g id="页面-1" stroke="none" stroke-width="1" fill="none" fill-rule="evenodd">
        <g id="编组-3" transform="translate(-0.000000, 0.000000)">
            <rect id="矩形" x="0" y="0" width="24" height="24"></rect>
            <g id="编组-2" transform="translate(2.000000, 2.091101)" fill-rule="nonzero">
                <g id="编组">
                    <path
                        d="M9.54782802,2.58193534 L5.49272303,2.58193534 C4.80835463,2.58193534 4.25063882,3.13965115 4.25063882,3.82401955 L4.25063882,6.05932674 C4.25063882,6.74369514 4.80835463,7.30141095 5.49272303,7.30141095 L9.54782802,7.30141095 C10.2321964,7.30141095 10.7899122,6.74369514 10.7899122,6.05932674 L10.7899122,3.82401955 C10.7899122,3.13965115 10.2321964,2.58193534 9.54782802,2.58193534 L9.54782802,2.58193534 Z M9.79668926,6.05932674 C9.79668926,6.19708921 9.68559049,6.30818798 9.54782802,6.30818798 L5.49272303,6.30818798 C5.35496056,6.30818798 5.24386179,6.19708921 5.24386179,6.05932674 L5.24386179,3.82401955 C5.24386179,3.68625708 5.35496056,3.57515832 5.49272303,3.57515832 L9.54782802,3.57515832 C9.68559049,3.57515832 9.79668926,3.68625708 9.79668926,3.82401955 L9.79668926,6.05932674 Z"
                        id="形状" fill="#969AAB"></path>
                    <path
                        d="M19.0823242,4.71947561 L17.569159,3.26630374 C17.3714032,3.07743584 17.0581047,3.08187979 16.8670148,3.2796356 C16.6781469,3.4773914 16.6825908,3.79068992 16.8803466,3.9817798 L18.3935118,5.43495167 C18.7823575,5.80824353 19.004555,6.33040773 19.004555,6.86812576 L19.004555,15.493834 C19.004555,15.767137 18.7823575,15.9915565 18.5068326,15.9915565 L16.9958893,15.9915565 C16.7225864,15.9915565 16.4981669,15.769359 16.4981669,15.493834 L16.4981669,7.45694923 C16.4981669,6.63481835 15.8293523,5.96600378 15.0072214,5.96600378 L13.5807133,5.96600378 L13.5807133,2.48416843 C13.5807133,1.11543162 12.4675036,0 11.0965448,0 L3.93956227,0 C2.57082546,0 1.45539385,1.11320964 1.45539385,2.48416843 L1.45539385,18.8223531 L0.497722475,18.8223531 C0.224419509,18.8223531 0,19.0445506 0,19.3200755 C0,19.5956005 0.222197534,19.817798 0.497722475,19.817798 L14.5672703,19.817798 C14.8405733,19.817798 15.0649928,19.5956005 15.0649928,19.3200755 C15.0649928,19.0445506 14.8427952,18.8223531 14.5672703,18.8223531 L13.5829352,18.8223531 L13.5829352,6.95922675 L15.0094434,6.95922675 C15.2827464,6.95922675 15.5071659,7.18142429 15.5071659,7.45694923 L15.5071659,15.496056 C15.5071659,16.3181869 16.1759804,16.9870014 16.9981113,16.9870014 L18.5090545,16.9870014 C19.3311854,16.9870014 20,16.3181869 20,15.496056 L20,6.86812576 C19.997778,6.06154872 19.6644817,5.2794134 19.0823242,4.71947561 L19.0823242,4.71947561 Z M12.5897123,18.8223531 L2.4508388,18.8223531 L2.4508388,2.48416843 C2.4508388,1.66203755 3.11965337,0.993222975 3.94178425,0.993222975 L11.1009888,0.993222975 C11.9231197,0.993222975 12.5919342,1.66203755 12.5919342,2.48416843 L12.5919342,18.8223531 L12.5897123,18.8223531 Z"
                        id="形状" fill="#FAAF66"></path>
                </g>
                <g id="Gas" transform="translate(3.909232, 9.468227)" fill="#969AAB">
                    <path
                        d="M1.36,0 C0.936,0 0.6,0.144 0.352,0.44 C0.116,0.716 0,1.068 0,1.496 C0,1.92 0.116,2.268 0.352,2.536 C0.604,2.824 0.956,2.968 1.412,2.968 C1.668,2.968 1.896,2.936 2.104,2.872 C2.3,2.808 2.472,2.72 2.624,2.6 L2.624,1.392 L1.4,1.392 L1.4,1.792 L2.156,1.792 L2.156,2.38 C2.06,2.436 1.96,2.48 1.848,2.512 C1.728,2.544 1.6,2.56 1.464,2.56 C1.116,2.56 0.86,2.464 0.696,2.272 C0.544,2.092 0.468,1.832 0.468,1.496 C0.468,1.144 0.552,0.876 0.724,0.684 C0.88,0.5 1.092,0.412 1.36,0.412 C1.576,0.412 1.752,0.456 1.884,0.548 C2.012,0.64 2.1,0.776 2.14,0.96 L2.612,0.96 C2.56,0.64 2.432,0.404 2.228,0.244 C2.016,0.08 1.728,0 1.36,0 Z"
                        id="路径"></path>
                    <path
                        d="M4.02598529,0.788 C3.76198529,0.788 3.55398529,0.832 3.40198529,0.928 C3.22198529,1.032 3.10998529,1.2 3.06598529,1.428 L3.51798529,1.464 C3.54198529,1.356 3.60198529,1.276 3.68998529,1.224 C3.76598529,1.176 3.86598529,1.156 3.99398529,1.156 C4.28998529,1.156 4.43798529,1.288 4.43798529,1.56 L4.43798529,1.64 L3.98598529,1.652 C3.68198529,1.66 3.44598529,1.724 3.27798529,1.844 C3.09398529,1.968 3.00598529,2.148 3.00598529,2.38 C3.00598529,2.552 3.06998529,2.692 3.19798529,2.804 C3.32198529,2.912 3.48998529,2.968 3.70598529,2.968 C3.88598529,2.968 4.04198529,2.936 4.17398529,2.876 C4.28998529,2.82 4.38998529,2.744 4.46998529,2.64 L4.46998529,2.912 L4.89398529,2.912 L4.89398529,1.592 C4.89398529,1.34 4.82998529,1.148 4.70198529,1.016 C4.55798529,0.864 4.32998529,0.788 4.02598529,0.788 Z M4.43798529,1.968 L4.43798529,2.072 C4.43798529,2.232 4.37398529,2.364 4.25398529,2.468 C4.13398529,2.568 3.98598529,2.62 3.80998529,2.62 C3.70998529,2.62 3.62998529,2.592 3.56598529,2.544 C3.50198529,2.496 3.47398529,2.436 3.47398529,2.364 C3.47398529,2.116 3.65398529,1.988 4.01798529,1.98 L4.43798529,1.968 Z"
                        id="形状"></path>
                    <path
                        d="M6.13597059,0.788 C5.87997059,0.788 5.67597059,0.84 5.51997059,0.952 C5.35997059,1.056 5.28397059,1.204 5.28397059,1.396 C5.28397059,1.576 5.36397059,1.716 5.52397059,1.816 C5.62397059,1.88 5.79597059,1.94 6.03997059,1.996 C6.24797059,2.044 6.38397059,2.08 6.44797059,2.112 C6.56797059,2.168 6.62797059,2.244 6.62797059,2.34 C6.62797059,2.508 6.46797059,2.596 6.14797059,2.596 C5.99597059,2.596 5.88797059,2.568 5.81997059,2.52 C5.75197059,2.464 5.70397059,2.372 5.67997059,2.24 L5.23597059,2.24 C5.27997059,2.724 5.58797059,2.968 6.16397059,2.968 C6.78397059,2.968 7.09597059,2.748 7.09597059,2.308 C7.09597059,2.124 7.01197059,1.976 6.84797059,1.872 C6.73597059,1.796 6.55997059,1.732 6.32797059,1.676 C6.11997059,1.624 5.98397059,1.584 5.91597059,1.556 C5.80397059,1.508 5.75197059,1.448 5.75197059,1.384 C5.75197059,1.304 5.78397059,1.248 5.85597059,1.212 C5.91597059,1.176 6.00797059,1.16 6.12797059,1.16 C6.26797059,1.16 6.37197059,1.18 6.43997059,1.224 C6.50397059,1.264 6.55197059,1.34 6.58397059,1.444 L7.02797059,1.444 C6.97997059,1.004 6.67997059,0.788 6.13597059,0.788 Z"
                        id="路径"></path>
                </g>
            </g>
        </g>
    </g>
</svg>