<svg xmlns="http://www.w3.org/2000/svg" xmlns:xlink="http://www.w3.org/1999/xlink" width="24" height="24"
    viewBox="0 0 24 24" fill="none">
    <g opacity="1"
        transform="translate(-1.9895196601282805e-13 4.263256414560601e-14)  rotate(0 12.00000000000017 11.99999999999985)">
        <g opacity="1" transform="translate(2 1.999999999999977)  rotate(0 9.999999999999964 9.99999999999986)">
            <g opacity="1" transform="translate(0 0)  rotate(0 6.190104689917275 6.19010468991719)">
                <path id="椭圆形"
                    style="stroke:#FAAF66; stroke-width:1.333333333333351; stroke-opacity:1; stroke-dasharray:0 0"
                    transform="translate(0 8.881784197001252e-16)  rotate(0 6.190104689917275 6.19010468991719)"
                    d="M12.38,6.19C12.38,2.77 9.61,0 6.19,0C2.77,0 0,2.77 0,6.19C0,9.61 2.77,12.38 6.19,12.38C9.61,12.38 12.38,9.61 12.38,6.19Z " />
                <path id="路径 72"
                    style="stroke:#FAAF66; stroke-width:1.333333333333351; stroke-opacity:1; stroke-dasharray:0 0"
                    transform="translate(3.739390433995482 4.391390536290941)  rotate(0 2.4507142559217776 1.7987141536262745)"
                    d="M0,1.8L1.83,3.6L4.9,0 " />
            </g>
            <g opacity="1"
                transform="translate(9.999999999999886 9.91824848837634)  rotate(0 4.999999999999999 5.04087575581169)">
                <path id="形状" fill-rule="evenodd" style="fill:#8c91a3"
                    transform="translate(0 0)  rotate(0 4.999999999999999 5.04087575581169)" opacity="1"
                    d="M9.17 10.08C9.39 10.08 9.6 9.99 9.76 9.83C10.08 9.51 10.08 8.98 9.76 8.65L7.36 6.23C7.34 6.21 7.28 6.16 7.28 6.16C7.68 5.54 7.92 4.79 7.92 3.99C7.92 1.79 6.14 0 3.96 0C1.77 0 0 1.79 0 3.99C0 6.19 1.77 7.98 3.96 7.98C4.72 7.98 5.47 7.76 6.11 7.33C6.11 7.33 6.16 7.39 6.18 7.42L8.58 9.83C8.73 9.99 8.94 10.08 9.17 10.08Z M6.66998 3.98959C6.66998 2.48959 5.44998 1.25959 3.95998 1.25959C2.45998 1.25959 1.24998 2.47959 1.24998 3.98959C1.24998 5.49959 2.46998 6.71959 3.95998 6.71959C5.44998 6.71959 6.66998 5.49959 6.66998 3.98959Z " />
            </g>
        </g>
    </g>
</svg>