<svg xmlns="http://www.w3.org/2000/svg" xmlns:xlink="http://www.w3.org/1999/xlink" width="24" height="24"
    viewBox="0 0 24 24" fill="none">
    <g opacity="1"
        transform="translate(-1.9895196601282805e-13 1.1368683772161603e-13)  rotate(0 11.99999999999983 12)">
        <g opacity="1" transform="translate(1.999999999999886 2.000000000000114)  rotate(0 9.999999999999774 10)">
            <g opacity="1" transform="translate(4.999999999999773 0)  rotate(0 5 5)">
                <path id="椭圆形"
                    style="stroke:#8c91a3; stroke-width:1.249999999999929; stroke-opacity:1; stroke-dasharray:0 0"
                    transform="translate(0 0)  rotate(0 5 5)"
                    d="M10,5C10,2.24 7.76,0 5,0C2.24,0 0,2.24 0,5C0,7.76 2.24,10 5,10C7.76,10 10,7.76 10,5Z " />
                <g opacity="1"
                    transform="translate(3.343333333333419 1.875000000000171)  rotate(0 1.656666666666572 3.0587567450301414)">
                    <g opacity="1" transform="translate(0 0)  rotate(0 1.656666666666572 3.0587567450301414)">
                        <path id="路径" fill-rule="evenodd" style="fill:#FAAF66"
                            transform="translate(0 0.9608333333332695)  rotate(0 1.656666666666572 2.1641666666665436)"
                            opacity="1"
                            d="M0,2.87C0.04,3.38 0.22,3.76 0.54,4.01C0.82,4.22 1.21,4.33 1.7,4.33C2.19,4.33 2.58,4.22 2.88,4.02C3.17,3.81 3.31,3.52 3.31,3.16C3.31,2.78 3.14,2.48 2.79,2.27C2.62,2.17 2.26,2.04 1.71,1.87C1.31,1.76 1.05,1.67 0.94,1.61C0.71,1.48 0.59,1.31 0.59,1.1C0.59,0.86 0.69,0.69 0.89,0.57C1.06,0.47 1.3,0.42 1.61,0.42C1.95,0.42 2.21,0.49 2.4,0.64C2.58,0.79 2.7,1.01 2.75,1.31L3.22,1.31C3.18,0.88 3.02,0.54 2.74,0.32C2.47,0.11 2.1,0 1.63,0C1.2,0 0.85,0.09 0.57,0.28C0.26,0.48 0.11,0.76 0.11,1.13C0.11,1.48 0.27,1.74 0.59,1.93C0.72,2 1.04,2.12 1.55,2.27C2.01,2.4 2.31,2.5 2.43,2.57C2.7,2.72 2.84,2.92 2.84,3.18C2.84,3.41 2.74,3.58 2.53,3.71C2.32,3.84 2.04,3.9 1.7,3.9C1.32,3.9 1.04,3.82 0.85,3.67C0.64,3.5 0.51,3.23 0.47,2.87L0,2.87Z " />
                        <path id="路径 57" fill-rule="evenodd" style="fill:#FAAF66"
                            transform="translate(1.406666666666581 0)  rotate(0 0.2475000023841858 0.5587567450302835)"
                            opacity="1"
                            d="M-0.005 0.00375675L-0.005 1.11376L0.495 1.11376L0.495 0.00375675L-0.005 0.00375675Z " />
                        <path id="路径 57备份" fill-rule="evenodd" style="fill:#FAAF66"
                            transform="translate(1.406666666666695 4.999999999999716)  rotate(0 0.2475000023841858 0.5587567450302835)"
                            opacity="1"
                            d="M-0.005 0.00375675L-0.005 1.11376L0.495 1.11376L0.495 0.00375675L-0.005 0.00375675Z " />
                    </g>
                </g>
            </g>
            <rect id="矩形" style="stroke:#FAAF66; stroke-width:1; stroke-opacity:1; stroke-dasharray:0 0"
                transform="translate(0 6)  rotate(0 2.5 6.99999999999995)" x="0.5" y="0.5" rx="1.5" width="4"
                height="12.9999999999999" />
            <rect id="矩形备份" style="stroke:#FAAF66; stroke-width:1; stroke-opacity:1; stroke-dasharray:0 0"
                transform="translate(14.99999999999955 6)  rotate(0 2.5 6.99999999999995)" x="0.5" y="0.5" rx="1.5"
                width="4" height="12.9999999999999" />
            <rect id="矩形备份 2" style="stroke:#8c91a3; stroke-width:1; stroke-opacity:1; stroke-dasharray:0 0"
                transform="translate(7.500000000000114 9)  rotate(0 2.5 5.5)" x="0.5" y="0.5" rx="1.5" width="4"
                height="10" />
        </g>
    </g>
</svg>