<svg xmlns="http://www.w3.org/2000/svg" xmlns:xlink="http://www.w3.org/1999/xlink" width="24" height="24"
    viewBox="0 0 24 24" fill="none">
    <g opacity="1" transform="translate(-1.9895196601282805e-13 0)  rotate(0 12 12.000000000000025)">
        <g opacity="1"
            transform="translate(1.934363301178685 3.117546812675563)  rotate(0 10.06563669882154 8.882453187324385)">
            <path id="形状" fill-rule="evenodd" style="fill:#FAAF66"
                transform="translate(0 0)  rotate(0 10.06563669882154 8.882453187324385)" opacity="1"
                d="M11.5 17.12L19.65 7.89C20.29 7.17 20.29 6.08 19.65 5.35L15.53 0.65C15.17 0.24 14.65 0 14.1 0L6.03 0C5.48 0 4.96 0.23 4.6 0.64L0.48 5.3C-0.16 6.02 -0.16 7.11 0.48 7.84L8.63 17.11C8.99 17.53 9.52 17.76 10.07 17.76C10.62 17.76 11.14 17.53 11.5 17.12Z M14.0936 1.18518L6.03358 1.18518C5.82358 1.18518 5.62358 1.27518 5.48358 1.42518L1.37358 6.07518C1.12358 6.35518 1.12358 6.77518 1.36358 7.05518L9.51358 16.3352C9.66358 16.4952 9.85358 16.5852 10.0636 16.5852C10.2736 16.5852 10.4736 16.4952 10.6136 16.3352L18.7636 7.10518C19.0036 6.82518 19.0036 6.40518 18.7636 6.13518L14.6436 1.43518C14.5036 1.27518 14.3036 1.18518 14.0936 1.18518Z " />
            <path id="路径" fill-rule="evenodd" style="fill:#8c91a3"
                transform="translate(4.206353132663127 7.573507595316916)  rotate(0 5.86404506784342 3.4191816474459515)"
                opacity="1"
                d="M10.69,0.22L5.81,5.63L1.04,0.2C0.82,-0.04 0.45,-0.07 0.2,0.15C-0.04,0.36 -0.07,0.74 0.15,0.98L4.92,6.41C5.15,6.68 5.5,6.84 5.86,6.84C6.22,6.84 6.56,6.69 6.8,6.41L11.58,1C11.8,0.76 11.77,0.38 11.53,0.17C11.28,-0.05 10.91,-0.03 10.69,0.22Z " />
        </g>
    </g>
</svg>