<?xml version="1.0" encoding="UTF-8"?>
<svg width="26px" height="26px" viewBox="0 0 26 26" version="1.1" xmlns="http://www.w3.org/2000/svg"
    xmlns:xlink="http://www.w3.org/1999/xlink">
    <title>@3x矩形</title>
    <g id="页面-1" stroke="none" stroke-width="1" fill="none" fill-rule="evenodd">
        <g id="收纳区icon" transform="translate(-284.000000, -44.000000)">
            <g id="编组-5" transform="translate(284.000000, 40.000000)">
                <g id="编组-10备份-2">
                    <g id="编组"
                        transform="translate(15.273506, 15.273506) rotate(-315.000000) translate(-15.273506, -15.273506) translate(5.673506, 3.273506)"
                        stroke-width="1.2">
                        <rect id="矩形" stroke="#FAAF66" x="6.6" y="21" width="6" height="2.4"></rect>
                        <path
                            d="M5.4,12.6348808 L5.4,19.9081177 L0.676216737,20.8528743 C0.918199409,18.751069 1.42424193,16.8586926 2.19832826,15.1768449 C2.59507035,14.3148311 3.10675308,13.6611035 3.74837679,13.2291861 C4.22902151,12.9056338 4.78028991,12.7097499 5.4,12.6348808 L5.4,12.6348808 Z"
                            id="矩形" stroke="#8c91a3"></path>
                        <path
                            d="M18.6,12.6348808 L18.6,19.9081177 L13.8762167,20.8528743 C14.1181994,18.751069 14.6242419,16.8586926 15.3983283,15.1768449 C15.7950704,14.3148311 16.3067531,13.6611035 16.9483768,13.2291861 C17.4290215,12.9056338 17.9802899,12.7097499 18.6,12.6348808 L18.6,12.6348808 Z"
                            id="矩形备份" stroke="#8c91a3"
                            transform="translate(16.200000, 16.799971) scale(-1, 1) translate(-16.200000, -16.799971) ">
                        </path>
                        <path
                            d="M9.6,0.6 C10.1729292,0.6 10.7285995,1.19903439 11.3511233,2.13282012 C12.121461,3.28832668 12.935249,5.0151241 13.8,7.30905368 L13.8,7.30905368 L13.8,21 L5.4,21 L5.4,7.30905368 C6.26475105,5.0151241 7.078539,3.28832668 7.84887671,2.13282012 C8.47140053,1.19903439 9.02707084,0.6 9.6,0.6 Z"
                            id="矩形" stroke="#FAAF66"></path>
                    </g>
                    <circle id="椭圆形" stroke="#8c91a3" cx="17.5764502" cy="12.9705627" r="1.80294373"></circle>
                </g>
                <rect id="矩形" x="0.927117766" y="5.42791256" width="24" height="24"></rect>
            </g>
        </g>
    </g>
</svg>