<svg xmlns="http://www.w3.org/2000/svg" xmlns:xlink="http://www.w3.org/1999/xlink" width="24" height="24"
    viewBox="0 0 24 24" fill="none">
    <g opacity="1" transform="translate(0 2.2737367544323206e-13)  rotate(0 12 11.99999999999997)">
        <g opacity="1"
            transform="translate(2.580954839869264 3.000000000000057)  rotate(0 9.41904516013087 9.00000000000002)">
            <path id="路径 64" style="stroke:#FAAF66; stroke-width:1; stroke-opacity:1; stroke-dasharray:0 0"
                transform="translate(0 0)  rotate(0 4.709522580065445 8.685757064558945)"
                d="M9.42,2.45L7.1,2.45L0.99,0C0.2,3 0.3,6 1.27,9L0,13.22L1.27,17.37L5.6,16.01L8.14,14.48L9.42,14.48 " />
            <path id="路径 65"
                style="stroke:#FAAF66; stroke-width:1.124999999999998; stroke-opacity:1; stroke-dasharray:0 0"
                transform="translate(0.9856505443357264 0)  rotate(0 3.4839417671701023 4.500000000000152)"
                d="M0.28,9C4.29,7.94 6.52,6.81 6.97,5.63L0,0 " />
            <path id="路径 66" style="stroke:#FAAF66; stroke-width:1; stroke-opacity:1; stroke-dasharray:0 0"
                transform="translate(5.305578240373052 16.08791020952839)  rotate(0 2.0567334598786604 0.956044895235827)"
                d="M0,0L2.65,1.91L4.11,1.91 " />
            <path id="三角形" fill-rule="evenodd" style="fill:#8c91a3"
                transform="translate(5.647952333542435 10.25560303526134)  rotate(0 1.1527908725667735 0.8437499999999984)"
                opacity="1"
                d="M0.23,0.92L2.02,1.56C2.06,1.58 2.12,1.57 2.15,1.53C2.18,1.49 2.18,1.44 2.16,1.4L1.44,0.13C1.42,0.1 1.4,0.08 1.37,0.08C1.34,0.07 1.31,0.07 1.28,0.09L0.21,0.72C0.17,0.74 0.15,0.78 0.16,0.83C0.16,0.87 0.19,0.9 0.23,0.92Z " />
            <path id="三角形备份" fill-rule="evenodd" style="fill:#8c91a3"
                transform="translate(10.85102263108161 10.25560303526134)  rotate(0 1.1527908725667735 0.8437499999999984)"
                opacity="1"
                d="M0.28,1.56L2.08,0.92C2.12,0.9 2.15,0.87 2.15,0.83C2.16,0.78 2.14,0.74 2.1,0.72L1.02,0.09C0.97,0.06 0.9,0.08 0.87,0.13L0.15,1.4C0.13,1.44 0.13,1.49 0.16,1.52C0.19,1.56 0.24,1.57 0.28,1.56Z " />
            <path id="矩形" fill-rule="evenodd" style="fill:#FAAF66"
                transform="translate(7.953534078675943 14.62500000000017)  rotate(0 1.1691134275393276 0.7314551047640735)"
                opacity="1"
                d="M0.45,1.46L1.89,1.46C2.14,1.46 2.34,1.26 2.34,1.01L2.34,0.45C2.34,0.2 2.14,0 1.89,0L0.45,0C0.2,0 0,0.2 0,0.45L0,1.01C0,1.26 0.2,1.46 0.45,1.46Z " />
            <path id="路径 64" style="stroke:#FAAF66; stroke-width:1; stroke-opacity:1; stroke-dasharray:0 0"
                transform="translate(9.41904516013085 0)  rotate(0 4.709522580065445 8.685757064558945)"
                d="M0,2.45L2.32,2.45L8.43,0C9.21,3 9.12,6 8.15,9L9.42,13.22L8.15,17.37L3.82,16.01L1.28,14.48L0,14.48 " />
            <path id="路径 65" style="stroke:#FAAF66; stroke-width:1; stroke-opacity:1; stroke-dasharray:0 0"
                transform="translate(10.88455624158576 0)  rotate(0 3.4839417671701023 4.500000000000152)"
                d="M6.68,9C2.67,7.94 0.45,6.81 0,5.63L6.97,0 " />
            <path id="路径 66" style="stroke:#FAAF66; stroke-width:1; stroke-opacity:1; stroke-dasharray:0 0"
                transform="translate(9.419045160131304 16.08791020952839)  rotate(0 2.0567334598786604 0.956044895235827)"
                d="M4.11,0L1.47,1.91L0,1.91 " />
            <path id="矩形" fill-rule="evenodd" style="fill:#FAAF66"
                transform="translate(8.63228598709702 14.62500000000017)  rotate(0 1.1261351272443585 0.7314551047640735)"
                opacity="1"
                d="M0,0.45L0,1.01C0,1.26 0.2,1.46 0.45,1.46L1.8,1.46C2.05,1.46 2.25,1.26 2.25,1.01L2.25,0.45C2.25,0.2 2.05,0 1.8,0L0.45,0C0.2,0 0,0.2 0,0.45Z " />
            <path id="路径 67" style="stroke:#FAAF66; stroke-width:1; stroke-opacity:1; stroke-dasharray:0 0"
                transform="translate(0 13.21774769474052)  rotate(0 3.681155850125876 0.8613484430904245)"
                d="M0,0L5.31,0L7.36,1.72 " />
            <path id="路径 67备份" style="stroke:#FAAF66; stroke-width:1; stroke-opacity:1; stroke-dasharray:0 0"
                transform="translate(11.47577862000969 13.21774769474052)  rotate(0 3.681155850125876 0.8613484430904245)"
                d="M7.36,0L2.06,0L0,1.72 " />
        </g>
    </g>
</svg>