<svg xmlns="http://www.w3.org/2000/svg" xmlns:xlink="http://www.w3.org/1999/xlink" width="24" height="24"
    viewBox="0 0 24 24" fill="none">
    <g opacity="1" transform="translate(0 2.2737367544323206e-13)  rotate(0 12 12)">
        <g opacity="1"
            transform="translate(1.811035461211418 1.560456878164132)  rotate(0 10.42455647052401 9.76017638159657)">
            <g opacity="1" transform="translate(0 1.358733480478577)  rotate(0 10.09448226939452 9.080809641357295)">
                <g opacity="1"
                    transform="translate(0 0.9999999999998366)  rotate(0 10.09448226939452 8.580809641357375)">
                    <path id="路径 95" style="stroke:#FAAF66; stroke-width:1; stroke-opacity:1; stroke-dasharray:0 0"
                        transform="translate(1.026891553003338 2.313544382483663)  rotate(0 2.7444614922150325 3.5321931429338087)"
                        d="M4.73,7.06C5.82,5.69 5.74,3.34 4.48,0L0,7.06L4.73,7.06Z " />
                    <path id="路径 96" style="stroke:#FAAF66; stroke-width:1; stroke-opacity:1; stroke-dasharray:0 0"
                        transform="translate(0 0)  rotate(0 10.09448226939452 8.580809641357375)"
                        d="M13.53,3.76C11.48,1.32 9.22,0.07 6.74,0C9.18,3.35 9.11,7.22 6.51,11.6L9.11,11.6L9.11,13.27C8.11,13.27 7.14,13.27 6.19,13.27C5.24,13.27 4.81,12.57 4.91,11.16L0,11.16C0.81,17.16 6.19,17.16 11.68,17.16C15.34,17.16 18.17,14.94 20.19,10.5C18.07,10.83 16.07,11.75 14.19,13.27L11.15,13.27L11.15,11.68C13.58,11.68 16.61,7.41 13.53,3.76Z " />
                </g>
                <path id="路径 97" style="stroke:#FAAF66; stroke-width:1; stroke-opacity:1; stroke-dasharray:0 0"
                    transform="translate(9.688964538789378 0)  rotate(0 0.5 0.899954565669532)" d="M0.5,1.8L0.5,0 " />
            </g>
            <path id="星形" style="stroke:#8c91a3; stroke-width:1; stroke-opacity:1; stroke-dasharray:0 0"
                transform="translate(13.53180674751945 0)  rotate(0 3.658653096764283 3.658653096764283)"
                d="M5.67,5.82L5.43,4.43C5.41,4.3 5.46,4.17 5.55,4.08L6.56,3.09C6.67,2.98 6.71,2.83 6.66,2.68C6.61,2.54 6.49,2.43 6.34,2.41L4.94,2.21C4.81,2.19 4.7,2.11 4.64,1.99L4.02,0.73C3.95,0.59 3.81,0.5 3.66,0.5C3.51,0.5 3.37,0.59 3.3,0.73L2.68,1.99C2.62,2.11 2.51,2.19 2.38,2.21L0.98,2.41C0.83,2.43 0.71,2.54 0.66,2.68C0.61,2.83 0.65,2.98 0.76,3.09L1.77,4.08C1.86,4.17 1.9,4.3 1.88,4.43L1.65,5.82C1.63,5.97 1.69,6.12 1.81,6.21C1.93,6.3 2.1,6.31 2.23,6.24L3.47,5.59C3.59,5.53 3.72,5.53 3.84,5.59L5.09,6.24C5.22,6.31 5.39,6.3 5.51,6.21C5.63,6.12 5.69,5.97 5.67,5.82Z " />
        </g>
    </g>
</svg>