<svg xmlns="http://www.w3.org/2000/svg" xmlns:xlink="http://www.w3.org/1999/xlink" width="24" height="24"
    viewBox="0 0 24 24" fill="none">
    <g opacity="1" transform="translate(0 -6.163591592667217e-7)  rotate(0 12 12)">
        <g opacity="1" transform="translate(1.999999999999886 2)  rotate(0 10 10)">
            <path id="形状" fill-rule="evenodd" style="fill:#FAAF66" transform="translate(0 0)  rotate(0 10 10)"
                opacity="1"
                d="M12.26 17.15C11.94 16.57 11.75 16.19 12.01 15.75C12.37 15.14 13.12 15.08 14.31 15.02C15.29 14.98 16.39 14.92 17.42 14.4C19.13 13.53 20 12.05 20 10C20 4.49 15.51 0 10 0C4.49 0 0 4.49 0 10C0 15.51 4.49 20 10 20C10.78 20 11.75 19.9 12.4 19.11C12.97 18.42 12.56 17.68 12.26 17.15Z M1.05 10C1.05 14.93 5.07 18.95 10 18.95C10.82 18.95 11.3 18.8 11.59 18.44C11.69 18.32 11.64 18.18 11.35 17.65C11.03 17.07 10.54 16.19 11.11 15.21C11.77 14.08 13.03 14.02 14.26 13.97C15.17 13.93 16.11 13.88 16.94 13.46C18.29 12.77 18.95 11.64 18.95 9.99C18.95 5.06 14.94 1.05 10 1.05C5.06 1.05 1.05 5.07 1.05 10Z " />
            <path id="路径" fill-rule="evenodd" style="fill:#8c91a3"
                transform="translate(2.809999999999998 7.529999971129408)  rotate(0 1.3700000000000006 1.370000034849887)"
                opacity="1"
                d="M0.69,2.56C1.11,2.8 1.63,2.8 2.06,2.56C2.48,2.31 2.74,1.86 2.74,1.37C2.74,0.88 2.48,0.43 2.06,0.18C1.63,-0.06 1.11,-0.06 0.69,0.18C0.26,0.43 0,0.88 0,1.37C0,1.86 0.26,2.31 0.69,2.56Z " />
            <path id="路径" fill-rule="evenodd" style="fill:#8c91a3"
                transform="translate(6.13 3.409999959170818)  rotate(0 1.37 1.370000040829182)" opacity="1"
                d="M0.69,2.56C1.11,2.8 1.63,2.8 2.06,2.56C2.48,2.31 2.74,1.86 2.74,1.37C2.74,0.88 2.48,0.43 2.06,0.18C1.63,-0.06 1.11,-0.06 0.69,0.18C0.26,0.43 0,0.88 0,1.37C0,1.86 0.26,2.31 0.69,2.56Z " />
            <path id="路径" fill-rule="evenodd" style="fill:#8c91a3"
                transform="translate(11.23 3.109999999999999)  rotate(0 1.37 1.3700000000000006)" opacity="1"
                d="M1.37,2.74C2.13,2.74 2.74,2.13 2.74,1.37C2.74,0.61 2.13,0 1.37,0C0.61,0 0,0.61 0,1.37C0,2.13 0.61,2.74 1.37,2.74Z " />
            <path id="路径" fill-rule="evenodd" style="fill:#8c91a3"
                transform="translate(14.34 6.96)  rotate(0 1.370000000000001 1.37)" opacity="1"
                d="M1.37,2.74C2.13,2.74 2.74,2.13 2.74,1.37C2.74,0.61 2.13,0 1.37,0C0.61,0 0,0.61 0,1.37C0,2.13 0.61,2.74 1.37,2.74Z " />
        </g>
    </g>
</svg>