<svg xmlns="http://www.w3.org/2000/svg" xmlns:xlink="http://www.w3.org/1999/xlink" width="24" height="24"
    viewBox="0 0 24 24" fill="none">
    <g opacity="1" transform="translate(1.1368683772161603e-13 0)  rotate(0 12.00000000000017 11.99999999999997)">
        <g opacity="1" transform="translate(3.000000000000227 1.644628741614838)  rotate(0 9 10.355371258385105)">
            <g opacity="1" transform="translate(0 0)  rotate(0 9 10.355371258385105)">
                <path id="形状" fill-rule="evenodd" style="fill:#FAAF66"
                    transform="translate(0 0)  rotate(0 9 10.355371258385105)" opacity="1"
                    d="M13.33 20.42C13.48 20.27 15.23 18.38 15.96 16.33C16.69 14.44 18 8.9 18 8.75C18 8.31 17.71 8.02 17.42 7.88L14.06 6.86L15.37 1.75L15.23 1.17C15.08 1.02 14.94 0.88 14.79 0.88L11.58 0C11.58 0 11.15 0 11 0C10.85 0.29 10.71 0.44 10.71 0.58L9.25 5.54L5.46 4.52C5.46 4.52 5.02 4.52 4.87 4.52C4.73 4.52 4.58 4.96 4.58 5.11L2.54 12.4C2.1 14.29 0.21 16.19 0.21 16.19C0.06 16.33 -0.08 16.63 0.06 16.92C0.06 17.21 0.35 17.36 0.64 17.5L12.6 20.71L12.75 20.71C12.9 20.71 13.19 20.57 13.33 20.42Z M11.4323 14.7344C11.5823 14.2944 11.8723 14.0044 12.3123 14.1444C12.7523 14.2944 13.0423 14.5844 12.8923 15.0244C12.4623 16.4844 11.5823 17.7944 10.8523 18.6644L12.4623 19.1044C12.8923 18.3744 13.9123 17.0644 14.5023 15.7544C15.0823 14.4344 15.9623 10.6444 16.2523 9.04435L12.8923 8.02435C12.6023 7.87435 12.3123 7.58435 12.4623 7.14435L13.7723 2.04435L11.8723 1.60435L10.5623 6.71435C10.4123 6.85435 10.2723 7.00435 10.1223 7.00435C9.98232 7.00435 9.68232 7.00435 9.54232 7.00435L5.75232 5.98435L4.00232 12.6844C3.70232 14.0044 2.83232 15.3144 2.10232 16.1844L3.41232 16.6244C4.00232 16.0444 5.16232 14.5844 5.60232 13.1244C5.60232 12.8344 6.04232 12.5444 6.33232 12.8344C6.77232 12.9844 7.06232 13.2744 6.91232 13.7144C6.48232 15.0244 5.60232 16.3344 4.87232 17.2144L6.33232 17.6444C6.77232 17.0644 7.93232 15.6044 8.37232 14.1444C8.52232 13.7144 8.81232 13.4144 9.25232 13.5644C9.68232 13.7144 9.98232 14.0044 9.83232 14.4344C9.54232 15.7544 8.66232 17.0644 7.93232 17.9344L9.25232 18.2344C9.68232 17.7944 11.0023 16.3344 11.4323 14.7344Z " />
                <path id="路径" fill-rule="evenodd" style="fill:#8c91a3"
                    transform="translate(5.602724549820664 8.896868264246365)  rotate(0 4.613681524013668 1.823128742673434)"
                    opacity="1"
                    d="M0.58,1.46L8.31,3.65L8.46,3.65C8.75,3.65 9.04,3.5 9.19,3.06C9.33,2.63 9.04,2.33 8.75,2.19L1.02,0C0.58,0 0.15,0.15 0,0.58C0,1.02 0.15,1.31 0.58,1.46Z " />
            </g>
        </g>
    </g>
</svg>