<svg xmlns="http://www.w3.org/2000/svg" xmlns:xlink="http://www.w3.org/1999/xlink" width="24" height="24"
    viewBox="0 0 24 24" fill="none">
    <g opacity="1" transform="translate(0 2.842170943040401e-14)  rotate(0 12 11.99999999999997)">
        <g opacity="1" transform="translate(3.500000000000227 1.499999999999943)  rotate(0 8.5 9.74999999999992)">
            <path id="椭圆形" style="stroke:#FAAF66; stroke-width:1; stroke-opacity:1; stroke-dasharray:0 0"
                transform="translate(0 2.499999999999829)  rotate(0 8.5 8.5)"
                d="M17,8.5C17,3.81 13.19,0 8.5,0C3.81,0 0,3.81 0,8.5C0,13.19 3.81,17 8.5,17C13.19,17 17,13.19 17,8.5Z " />
            <path id="路径 59" style="stroke:#FAAF66; stroke-width:1; stroke-opacity:1; stroke-dasharray:0 0"
                transform="translate(5.5 0)  rotate(0 3 0.5)" d="M0,0.5L6,0.5 " />
            <path id="路径 60" style="stroke:#FAAF66; stroke-width:1; stroke-opacity:1; stroke-dasharray:0 0"
                transform="translate(8.000000000000114 2.499999999999829)  rotate(0 0.5 1.060435508725224)"
                d="M0.5,0L0.5,2.12 " />
            <path id="路径 60备份" style="stroke:#FAAF66; stroke-width:1; stroke-opacity:1; stroke-dasharray:0 0"
                transform="translate(8.000000000000114 17.37912898254939)  rotate(0 0.5 1.060435508725224)"
                d="M0.5,0L0.5,2.12 " />
            <path id="路径 61" style="stroke:#FAAF66; stroke-width:1; stroke-opacity:1; stroke-dasharray:0 0"
                transform="translate(0 10.49999999999983)  rotate(0 1.257472397837776 0.5)" d="M0,0.5L2.51,0.5 " />
            <path id="路径 61备份" style="stroke:#FAAF66; stroke-width:1; stroke-opacity:1; stroke-dasharray:0 0"
                transform="translate(14.48505520432445 10.49999999999983)  rotate(0 1.257472397837776 0.5)"
                d="M0,0.5L2.51,0.5 " />
            <path id="星形" style="stroke:#8c91a3; stroke-width:1; stroke-opacity:1; stroke-dasharray:0 0"
                transform="translate(2.5 5.622949346293296)  rotate(0 6 6)"
                d="M10.7,4L8.02,3.61C7.86,3.59 7.72,3.48 7.65,3.34L6.45,0.91C6.37,0.74 6.19,0.63 6,0.63C5.81,0.63 5.63,0.74 5.55,0.91L4.35,3.34C4.28,3.48 4.14,3.59 3.98,3.61L1.3,4C1.11,4.03 0.96,4.16 0.9,4.34C0.84,4.52 0.89,4.72 1.02,4.85L2.96,6.74C3.08,6.86 3.13,7.03 3.1,7.19L2.64,9.86C2.61,10.05 2.69,10.24 2.84,10.35C3,10.46 3.2,10.47 3.37,10.38L5.77,9.12C5.91,9.05 6.09,9.05 6.23,9.12L8.63,10.38C8.8,10.47 9,10.46 9.16,10.35C9.31,10.24 9.39,10.05 9.36,9.86L8.9,7.19C8.87,7.03 8.92,6.86 9.04,6.74L10.98,4.85C11.11,4.72 11.16,4.52 11.1,4.34C11.04,4.16 10.89,4.03 10.7,4Z " />
        </g>
    </g>
</svg>