<svg xmlns="http://www.w3.org/2000/svg" xmlns:xlink="http://www.w3.org/1999/xlink" width="24" height="24"
    viewBox="0 0 24 24" fill="none">
    <g opacity="1" transform="translate(0 0)  rotate(0 12 12)">
        <g opacity="1" transform="translate(2.999999999999943 2)  rotate(0 8.952322532585464 9.999999999999845)">
            <path id="路径" style="stroke:#FAAF66; stroke-width:1; stroke-opacity:1; stroke-dasharray:0 0"
                transform="translate(0 0)  rotate(0 5.5 7.501325095156745)"
                d="M11,13.03L11,14C11,15.1 10.1,15 9,15L2,15C0.9,15 0,14.1 0,13L0,2C0,0.9 0.9,0 2,0L9,0C10.1,0 11,0.9 11,2L11,8.01 " />
            <path id="路径 54" style="stroke:#FAAF66; stroke-width:1; stroke-opacity:1; stroke-dasharray:0 0"
                transform="translate(2.012003322073724 3.5)  rotate(0 3.4939983389630127 0.5)" d="M6.99,0.5L0,0.5 " />
            <path id="路径 54备份" style="stroke:#FAAF66; stroke-width:1; stroke-opacity:1; stroke-dasharray:0 0"
                transform="translate(2.012003322073724 6.5)  rotate(0 2.00766249987484 0.5)" d="M4.02,0.5L0,0.5 " />
            <path id="路径 54备份 2" style="stroke:#FAAF66; stroke-width:1; stroke-opacity:1; stroke-dasharray:0 0"
                transform="translate(2.012003322073724 9.5)  rotate(0 2.00766249987484 0.5)" d="M4.02,0.5L0,0.5 " />
            <path id="路径 55" style="stroke:#8c91a3; stroke-width:1; stroke-opacity:1; stroke-dasharray:0 0"
                transform="translate(8.999999999999773 10.91787816960522)  rotate(0 4.262324836153324 4.541060915197238)"
                d="M8.52,0L0,9.08 " />
            <path id="路径 56" fill-rule="evenodd" style="fill:#8c91a3"
                transform="translate(10.00000000000011 9.99999999999983)  rotate(0 3.9523225325854057 4)" opacity="1"
                d="M0,0.92L5.7,2.84L7.75,8L7.9,8L6.73,1.72L0,0L0,0.92Z " />
            <path id="路径 56" style="stroke:#8c91a3; stroke-width:1; stroke-opacity:1; stroke-dasharray:0 0"
                transform="translate(10.00000000000011 9.99999999999983)  rotate(0 3.9523225325854057 4)"
                d="M0,0.92L5.7,2.84L7.75,8L7.9,8L6.73,1.72L0,0L0,0.92Z " />
        </g>
    </g>
</svg>