<svg xmlns="http://www.w3.org/2000/svg" xmlns:xlink="http://www.w3.org/1999/xlink" width="24" height="24"
    viewBox="0 0 24 24" fill="none">
    <g opacity="1" transform="translate(0 0)  rotate(0 12 12)">
        <g opacity="1" transform="translate(2 2)  rotate(0 10 10)">
            <path id="椭圆形" style="stroke:#FAAF66; stroke-width:1; stroke-opacity:1; stroke-dasharray:0 0"
                transform="translate(0 0)  rotate(0 10 10)"
                d="M20,10C20,4.48 15.52,0 10,0C4.48,0 0,4.48 0,10C0,15.52 4.48,20 10,20C15.52,20 20,15.52 20,10Z " />
            <path id="路径 48" style="stroke:#8c91a3; stroke-width:1; stroke-opacity:1; stroke-dasharray:0 0"
                transform="translate(5.000000000000001 4.00000000000001)  rotate(0 4.774993487068968 6.41099781168241)"
                d="M0,5.68L4.65,7.7L3.04,12.82L9.55,6.85L4.65,4.97L6.48,0L0,5.68Z " />
        </g>
    </g>
</svg>