<svg xmlns="http://www.w3.org/2000/svg" xmlns:xlink="http://www.w3.org/1999/xlink" width="24" height="24"
    viewBox="0 0 24 24" fill="none">
    <g opacity="1" transform="translate(0 1.1368683772161603e-13)  rotate(0 12 11.99999999999997)">
        <g opacity="1"
            transform="translate(2.000000000000171 1.77948694094507)  rotate(0 10.000000000000055 10.220513059054875)">
            <rect id="矩形" style="stroke:#8c91a3; stroke-width:1; stroke-opacity:1; stroke-dasharray:0 0"
                transform="translate(0 0)  rotate(0 4.5 3.5)" x="0.5" y="0.5" rx="1.5" width="8" height="6" />
            <path id="路径 84备份" style="stroke:#FAAF66; stroke-width:1; stroke-opacity:1; stroke-dasharray:0 0"
                transform="translate(13.00000000000011 19.44102611810975)  rotate(0 2.5 0.5)" d="M0,0.5L5,0.5 " />
            <path id="椭圆形" style="stroke:#FAAF66; stroke-width:1; stroke-opacity:1; stroke-dasharray:0 0"
                transform="translate(1.500000000000227 14.00000000000043)  rotate(0 2 2.000000000000057)"
                d="M4,2C4,0.9 3.1,0 2,0C0.9,0 0,0.9 0,2C0,3.1 0.9,4 2,4C3.1,4 4,3.1 4,2Z " />
            <path id="椭圆形备份" style="stroke:#8c91a3; stroke-width:1; stroke-opacity:1; stroke-dasharray:0 0"
                transform="translate(15.00000000000045 1)  rotate(0 2 2.000000000000057)"
                d="M4,2C4,0.9 3.1,0 2,0C0.9,0 0,0.9 0,2C0,3.1 0.9,4 2,4C3.1,4 4,3.1 4,2Z " />
            <path id="路径 85" style="stroke:#FAAF66; stroke-width:1; stroke-opacity:1; stroke-dasharray:0 0"
                transform="translate(3.000000000000227 9.037070312122552)  rotate(0 0.5 2.7304926822097326)"
                d="M0.5,5.46L0.5,0 " />
            <path id="路径 86" style="stroke:#8c91a3; stroke-width:1; stroke-opacity:1; stroke-dasharray:0 0"
                transform="translate(16.50000000000045 4.45798743766386)  rotate(0 0.5 3.541666669921881)"
                d="M0.5,0L0.5,7.08 " />
            <path id="路径 87" style="stroke:#8c91a3; stroke-width:1; stroke-opacity:1; stroke-dasharray:0 0"
                transform="translate(8.471269416792211 2.500000000000057)  rotate(0 3.5143652916039514 0.5)"
                d="M7.03,0.5L0,0.5 " />
            <path id="路径 88" style="stroke:#FAAF66; stroke-width:1; stroke-opacity:1; stroke-dasharray:0 0"
                transform="translate(5.038158470558187 15.50000000000048)  rotate(0 3.240846146706076 0.5)"
                d="M0,0.5L6.48,0.5 " />
            <rect id="矩形备份" style="stroke:#FAAF66; stroke-width:1; stroke-opacity:1; stroke-dasharray:0 0"
                transform="translate(11.00000000000011 11.00000000000048)  rotate(0 4.5 3.5)" x="0.5" y="0.5" rx="1.5"
                width="8" height="6" />
            <path id="路径 84" style="stroke:#8c91a3; stroke-width:1; stroke-opacity:1; stroke-dasharray:0 0"
                transform="translate(2 8.499999999999716)  rotate(0 2.5 0.5)" d="M0,0.5L5,0.5 " />
        </g>
    </g>
</svg>