<svg xmlns="http://www.w3.org/2000/svg" xmlns:xlink="http://www.w3.org/1999/xlink" width="24" height="25"
    viewBox="0 0 24 25" fill="none">
    <g opacity="1"
        transform="translate(2.8421709430404007e-13 1.1368683772161603e-13)  rotate(0 12 12.001673052930386)">
        <g opacity="1" transform="translate(0 0)  rotate(0 12 12.001673052930386)">
            <g opacity="1"
                transform="translate(2.209666733242329 3.003346105860772)  rotate(0 8.482635202461376 7.66408198720091)">
                <g opacity="1" transform="translate(0 0)  rotate(0 5.8475533407513 6.728176199632115)">
                    <g opacity="1" transform="translate(0 0)  rotate(0 5.8475533407513 6.728176199632115)">
                        <path id="形状" fill-rule="evenodd" style="fill:#FAAF66"
                            transform="translate(0 0)  rotate(0 5.8475533407513 6.728176199632115)" opacity="1"
                            d="M0 5.69C0 5.78 0.85 9.38 1.33 10.61C1.8 11.94 2.94 13.17 3.03 13.27C3.13 13.36 3.32 13.46 3.41 13.46L3.51 13.46L11.28 11.37C11.47 11.28 11.66 11.18 11.66 10.99C11.75 10.8 11.66 10.61 11.56 10.52C11.56 10.52 10.33 9.29 10.04 8.05L8.72 3.32C8.72 3.22 8.62 2.94 8.53 2.94C8.43 2.94 8.15 2.94 8.15 2.94L5.69 3.6L4.74 0.38C4.74 0.28 4.64 0.19 4.55 0C4.45 0 4.17 0 4.17 0L2.09 0.57C1.99 0.57 1.9 0.66 1.8 0.76L1.71 1.14L2.56 4.45L0.38 5.12C0.19 5.21 0 5.4 0 5.69Z M9.47716 10.8024L10.3272 10.5224C9.85716 9.95239 9.28716 9.09239 9.09716 8.24239L7.95716 3.88239L5.49716 4.55239C5.39716 4.55239 5.20716 4.55239 5.11716 4.55239C5.02716 4.55239 4.92716 4.45239 4.83716 4.36239L3.97716 1.04239L2.74716 1.32239L3.59716 4.64239C3.69716 4.93239 3.50716 5.11239 3.31716 5.21239L1.13716 5.87239C1.32716 6.92239 1.89716 9.38239 2.27716 10.2324C2.65716 11.0824 3.31716 11.9424 3.59716 12.4124L4.64716 12.1324C4.16716 11.5624 3.59716 10.7124 3.31716 9.76239C3.21716 9.47239 3.40716 9.28239 3.69716 9.19239C3.97716 9.09239 4.16716 9.28239 4.26716 9.57239C4.54716 10.6124 5.39716 11.5624 5.68716 11.8424L6.53716 11.6524C6.06716 11.0824 5.49716 10.2324 5.30716 9.38239C5.20716 9.09239 5.39716 8.91239 5.68716 8.81239C5.96716 8.72239 6.15716 8.91239 6.25716 9.19239C6.53716 10.1424 7.29716 11.0824 7.57716 11.4624L8.52716 11.1824C8.05716 10.6124 7.48716 9.76239 7.19716 8.91239C7.10716 8.62239 7.29716 8.43239 7.57716 8.34239C7.76716 8.15239 8.05716 8.34239 8.05716 8.53239C8.33716 9.47239 9.09716 10.4224 9.47716 10.8024Z " />
                        <path id="路径" fill-rule="evenodd" style="fill:#FAAF66"
                            transform="translate(2.849914584205802 5.780545748979705)  rotate(0 2.9976387565454106 1.1845380633155125)"
                            opacity="1"
                            d="M5.33,0L0.31,1.42C0.12,1.52 -0.07,1.71 0.03,1.99C0.12,2.27 0.31,2.37 0.5,2.37L0.59,2.37L5.62,0.95C5.9,0.85 6,0.66 6,0.38C5.9,0.09 5.62,0 5.33,0Z " />
                    </g>
                </g>
                <path id="椭圆形" style="stroke:#8c91a3; stroke-width:1; stroke-opacity:1; stroke-dasharray:0 0"
                    transform="translate(13.33416810953787 11.69706167901707)  rotate(0 1.815551147692438 1.815551147692378)"
                    d="M3.63,1.82C3.63,0.81 2.82,0 1.82,0C0.81,0 0,0.81 0,1.82C0,2.82 0.81,3.63 1.82,3.63C2.82,3.63 3.63,2.82 3.63,1.82Z " />
            </g>
        </g>
        <path id="形状结合" style="stroke:#8c91a3; stroke-width:1; stroke-opacity:1; stroke-dasharray:0 0"
            transform="translate(12.17509656770869 14.01392471781696)  rotate(0 5.82620968840471 3.1653796298005874)"
            d="M0.00440376 3.17L0 3.17C0 3.17 0.000736495 3.16922 0.00219729 3.16769C0.000736495 3.16616 0 3.16538 0 3.16538L0.00440376 3.16538C0.13316 3.03077 3.06285 0 5.83 0C8.59715 0 11.5173 3.03077 11.6456 3.16538L11.65 3.16538C11.65 3.16538 11.6493 3.16616 11.6478 3.16769C11.6493 3.16922 11.65 3.17 11.65 3.17L11.6456 3.17C11.5173 3.30461 8.59715 6.33538 5.83 6.33538C3.06285 6.33538 0.13316 3.30461 0.00440376 3.17Z " />
    </g>
</svg>