<?xml version="1.0" encoding="UTF-8"?>
<svg width="24px" height="24px" viewBox="0 0 24 24" version="1.1" xmlns="http://www.w3.org/2000/svg" xmlns:xlink="http://www.w3.org/1999/xlink">
    <g id="页面-1" stroke="none" stroke-width="1" fill="none" fill-rule="evenodd">
        <g id="编组-3" transform="translate(-0.000000, 0.000000)">
            <rect id="矩形" x="0" y="0" width="24" height="24"></rect>
            <g id="编组-2" transform="translate(1.764985, 2.000000)" stroke="#FAAF66">
                <g id="编组">
                    <circle id="椭圆形" cx="7.60110816" cy="4.64512165" r="4.14512165"></circle>
                    <path d="M10.2915003,9.29740873 C9.45515108,8.98082677 8.54836481,8.80755245 7.60110816,8.80755245 C3.40313204,8.80755245 0,12.2106845 0,16.4086606 L12.9730039,16.4086606" id="路径" stroke-linecap="round" stroke-linejoin="round"></path>
                </g>
                <circle id="椭圆形备份-60" cx="13.5354311" cy="11.4537356" r="3.25610712"></circle>
                <path d="M18.0338144,14.5715703 C18.4052822,14.5715703 18.7173638,14.677497 18.9356171,14.8678872 C19.1393325,15.0455956 19.2533348,15.2954095 19.2533348,15.5715703 L19.2533348,15.5715703 L19.2533348,19.0106111 C19.2533348,19.2867535 19.141406,19.5367535 18.9604416,19.7177179 C18.7794772,19.8986823 18.5294772,20.0106111 18.2533348,20.0106111 C17.8038772,20.0106111 17.5231876,19.9141978 17.3267076,19.7177179 C17.1457432,19.5367535 17.0338144,19.2867535 17.0338144,19.0106111 L17.0338144,19.0106111 L17.0338144,15.5715703 C17.0338144,15.295428 17.1457432,15.045428 17.3267076,14.8644636 C17.507672,14.6834992 17.757672,14.5715703 18.0338144,14.5715703 Z" id="矩形备份-47" transform="translate(18.143575, 17.291091) rotate(-45.000000) translate(-18.143575, -17.291091) "></path>
                <polyline id="路径-72" stroke-width="0.6" stroke-linecap="round" stroke-linejoin="round" points="12.0517311 11.4537356 13.1593118 12.5427047 15.019131 10.3647665"></polyline>
            </g>
        </g>
    </g>
</svg>