<svg width="22" height="20" viewBox="0 0 22 20" fill="none" xmlns="http://www.w3.org/2000/svg">
    <path
        d="M19 5V5C19 4.07003 19 3.60504 18.8978 3.22354C18.6204 2.18827 17.8117 1.37962 16.7765 1.10222C16.395 1 15.93 1 15 1H5.8C4.11984 1 3.27976 1 2.63803 1.32698C2.07354 1.6146 1.6146 2.07354 1.32698 2.63803C1 3.27976 1 4.11984 1 5.8V14.2C1 15.8802 1 16.7202 1.32698 17.362C1.6146 17.9265 2.07354 18.3854 2.63803 18.673C3.27976 19 4.11984 19 5.8 19H15C15.93 19 16.395 19 16.7765 18.8978C17.8117 18.6204 18.6204 17.8117 18.8978 16.7765C19 16.395 19 15.93 19 15V15"
        stroke="#131619" stroke-width="2" />
    <rect x="7" y="5" width="14" height="10" rx="2" stroke="#131619" stroke-width="2" />
    <ellipse cx="11.875" cy="10" rx="1.625" ry="1.66667" fill="#131619" />
</svg>