<svg xmlns="http://www.w3.org/2000/svg" width="32" height="32" viewBox="0 0 20 33"><defs><linearGradient id="a" x1="31.197%" x2="79.216%" y1="98.68%" y2="18.67%"><stop offset="32.43%" stop-color="#AC9CF2"/><stop offset="32.6%" stop-color="#AC9CF2"/><stop offset="46.45%" stop-color="#B1B3EA"/><stop offset="61.34%" stop-color="#B4C3E5"/><stop offset="78.03%" stop-color="#B6CDE2"/><stop offset="100%" stop-color="#B7D0E1"/></linearGradient><linearGradient id="b" x1="68.803%" x2="20.784%" y1="98.68%" y2="18.67%"><stop offset="32.43%" stop-color="#B2DBF5"/><stop offset="44.27%" stop-color="#C4E3F4"/><stop offset="59.77%" stop-color="#D4EAF4"/><stop offset="77.13%" stop-color="#DEEFF3"/><stop offset="100%" stop-color="#E1F0F3"/></linearGradient><linearGradient id="c" x1="43.993%" x2="144.531%" y1="50.001%" y2="50.001%"><stop offset="32.43%" stop-color="#D6CDFB"/><stop offset="42.84%" stop-color="#D9D4FA"/><stop offset="65.46%" stop-color="#DCDEF9"/><stop offset="95.28%" stop-color="#DDE1F9"/></linearGradient><linearGradient id="d" x1="56.007%" x2="-44.531%" y1="50.001%" y2="50.001%"><stop offset="32.43%" stop-color="#ECF2F2"/><stop offset="36.53%" stop-color="#EEF4F3"/><stop offset="61.87%" stop-color="#F8FAF6"/><stop offset="95.28%" stop-color="#FBFCF7"/></linearGradient><linearGradient id="e" x1="-.002%" x2="100%" y1="50%" y2="50%"><stop offset="32.43%" stop-color="#6E89D3"/><stop offset="32.55%" stop-color="#6E89D3"/><stop offset="50.01%" stop-color="#6A83E3"/><stop offset="69.54%" stop-color="#6880ED"/><stop offset="95.28%" stop-color="#677FF0"/></linearGradient><linearGradient id="f" x1="100.002%" x2="0%" y1="50%" y2="50%"><stop offset="32.43%" stop-color="#C4C5FC"/><stop offset="54.39%" stop-color="#C8CBF8"/><stop offset="95.28%" stop-color="#CACEF6"/></linearGradient><linearGradient id="g" x1="28.18%" x2="73.991%" y1="92.329%" y2="3.42%"><stop offset="0%" stop-color="#718BD4"/><stop offset="1.21%" stop-color="#758ED5"/><stop offset="5.79%" stop-color="#7790D6"/><stop offset="9.9%" stop-color="#7A92D7"/><stop offset="25.89%" stop-color="#889DDD"/><stop offset="47.3%" stop-color="#9AAAE4"/><stop offset="69.5%" stop-color="#AEB9EC"/><stop offset="100%" stop-color="#C6CBF5"/></linearGradient><linearGradient id="i" x1="28.183%" x2="73.994%" y1="92.32%" y2="3.412%"><stop offset="0%" stop-color="#718BD4"/><stop offset="1.21%" stop-color="#758ED5"/><stop offset="5.79%" stop-color="#7790D6"/><stop offset="9.9%" stop-color="#7A92D7"/><stop offset="25.89%" stop-color="#889DDD"/><stop offset="47.3%" stop-color="#9AAAE4"/><stop offset="69.5%" stop-color="#AEB9EC"/><stop offset="100%" stop-color="#C6CBF5"/></linearGradient><linearGradient id="k" x1="28.182%" x2="73.993%" y1="92.329%" y2="3.42%"><stop offset="0%" stop-color="#718BD4"/><stop offset="1.21%" stop-color="#758ED5"/><stop offset="5.79%" stop-color="#7790D6"/><stop offset="9.9%" stop-color="#7A92D7"/><stop offset="25.89%" stop-color="#889DDD"/><stop offset="47.3%" stop-color="#9AAAE4"/><stop offset="69.5%" stop-color="#AEB9EC"/><stop offset="100%" stop-color="#C6CBF5"/></linearGradient><linearGradient id="m" x1="28.187%" x2="73.999%" y1="92.32%" y2="3.412%"><stop offset="0%" stop-color="#718BD4"/><stop offset="1.21%" stop-color="#758ED5"/><stop offset="5.79%" stop-color="#7790D6"/><stop offset="9.9%" stop-color="#7A92D7"/><stop offset="25.89%" stop-color="#889DDD"/><stop offset="47.3%" stop-color="#9AAAE4"/><stop offset="69.5%" stop-color="#AEB9EC"/><stop offset="100%" stop-color="#C6CBF5"/></linearGradient><linearGradient id="o" x1="28.187%" x2="73.999%" y1="92.323%" y2="3.415%"><stop offset="0%" stop-color="#718BD4"/><stop offset="1.21%" stop-color="#758ED5"/><stop offset="5.79%" stop-color="#7790D6"/><stop offset="9.9%" stop-color="#7A92D7"/><stop offset="25.89%" stop-color="#889DDD"/><stop offset="47.3%" stop-color="#9AAAE4"/><stop offset="69.5%" stop-color="#AEB9EC"/><stop offset="100%" stop-color="#C6CBF5"/></linearGradient><radialGradient id="h" cx="52.146%" cy="51.574%" r="49.69%" fx="52.146%" fy="51.574%" gradientTransform="matrix(.69745 .66914 -.628 .74314 .482 -.216)"><stop offset="0%" stop-color="#DADCF4"/><stop offset=".819%" stop-color="#DADCF4"/><stop offset="5.79%" stop-color="#DADCF4"/><stop offset="9.9%" stop-color="#DADCF4"/><stop offset="47.3%" stop-color="#DADCF4"/><stop offset="100%" stop-color="#DADCF4"/></radialGradient><radialGradient id="j" cx="52.139%" cy="51.437%" r="49.69%" fx="52.139%" fy="51.437%" gradientTransform="matrix(.69745 .66914 -.628 .74314 .48 -.217)"><stop offset="0%" stop-color="#DADCF4"/><stop offset=".819%" stop-color="#DADCF4"/><stop offset="5.79%" stop-color="#DADCF4"/><stop offset="9.9%" stop-color="#DADCF4"/><stop offset="47.3%" stop-color="#DADCF4"/><stop offset="100%" stop-color="#DADCF4"/></radialGradient><radialGradient id="l" cx="52.056%" cy="51.589%" r="49.69%" fx="52.056%" fy="51.589%" gradientTransform="matrix(.69745 .66914 -.628 .74314 .481 -.216)"><stop offset="0%" stop-color="#DADCF4"/><stop offset=".819%" stop-color="#DADCF4"/><stop offset="5.79%" stop-color="#DADCF4"/><stop offset="9.9%" stop-color="#DADCF4"/><stop offset="47.3%" stop-color="#DADCF4"/><stop offset="100%" stop-color="#DADCF4"/></radialGradient><radialGradient id="n" cx="52.038%" cy="51.451%" r="49.69%" fx="52.038%" fy="51.451%" gradientTransform="matrix(.69702 .66914 -.6276 .74314 .48 -.216)"><stop offset="0%" stop-color="#DADCF4"/><stop offset=".819%" stop-color="#DADCF4"/><stop offset="5.79%" stop-color="#DADCF4"/><stop offset="9.9%" stop-color="#DADCF4"/><stop offset="47.3%" stop-color="#DADCF4"/><stop offset="100%" stop-color="#DADCF4"/></radialGradient><radialGradient id="p" cx="52.091%" cy="51.523%" r="49.69%" fx="52.091%" fy="51.523%" gradientTransform="matrix(.69702 .66914 -.6276 .74314 .481 -.216)"><stop offset="0%" stop-color="#DADCF4"/><stop offset=".819%" stop-color="#DADCF4"/><stop offset="5.79%" stop-color="#DADCF4"/><stop offset="9.9%" stop-color="#DADCF4"/><stop offset="47.3%" stop-color="#DADCF4"/><stop offset="100%" stop-color="#DADCF4"/></radialGradient></defs><g fill="none" fill-rule="evenodd" transform="translate(.13 .94)"><polygon fill="url(#a)" fill-rule="nonzero" points="0 16.121 9.676 0 9.676 12.041"/><polygon fill="url(#b)" fill-rule="nonzero" points="19.351 16.121 9.676 0 9.676 12.041"/><polygon fill="url(#c)" fill-rule="nonzero" points="9.676 12.003 0 16.085 9.676 21.734"/><polygon fill="url(#d)" fill-rule="nonzero" points="9.676 12.003 19.351 16.085 9.676 21.734"/><polygon fill="url(#e)" fill-rule="nonzero" points="0 17.974 9.676 32 9.676 23.623"/><polygon fill="url(#f)" fill-rule="nonzero" points="19.351 17.974 9.676 32 9.676 23.623"/><line x1="4.46" x2="4.987" y1="8.878" y2="18.487" fill="#DADCF4" fill-rule="nonzero" stroke="#B0B4E9" stroke-width="4"/><line x1="14.647" x2="14.12" y1="8.878" y2="18.487" fill="#DADCF4" fill-rule="nonzero" stroke="#B0B4E9" stroke-width="4"/><line x1="9.69" x2="4.988" y1="12.069" y2="18.406" stroke="#B0B4E9" stroke-width="4"/><line x1="9.506" x2="14.207" y1="12.069" y2="18.406" stroke="#B0B4E9" stroke-width="4"/><g fill-rule="nonzero" transform="translate(3.296 7.772)"><circle cx="1.19" cy="1.19" r="1.19" fill="url(#g)"/><path fill="url(#h)" d="M2.02292463,0.73835161 C1.96020444,0.808217139 1.79665558,0.763757257 1.65771845,0.639110802 C1.51878132,0.514464348 1.45764899,0.356472982 1.52036918,0.286607453 C1.58308937,0.216741924 1.74663822,0.261201806 1.88557535,0.385848261 C2.02451248,0.510494715 2.08564482,0.668486081 2.02292463,0.73835161 Z"/><g transform="translate(.503 9.445)"><circle cx="1.19" cy="1.19" r="1.19" fill="url(#i)"/><path fill="url(#j)" d="M2.02292463,0.73835161 C1.96020444,0.808217139 1.79665558,0.763757257 1.65771845,0.639110802 C1.51878132,0.514464348 1.45764899,0.356472982 1.52036918,0.286607453 C1.58308937,0.216741924 1.74663822,0.261201806 1.88557535,0.385848261 C2.02451248,0.510494715 2.08564482,0.668486081 2.02292463,0.73835161 Z"/></g></g><g fill-rule="nonzero" transform="translate(13.487 7.772)"><circle cx="1.19" cy="1.19" r="1.19" fill="url(#k)"/><path fill="url(#l)" d="M2.02292463,0.73835161 C1.96020444,0.808217139 1.79665558,0.763757257 1.65771845,0.639110802 C1.51878132,0.514464348 1.45764899,0.356472982 1.52036918,0.286607453 C1.58308937,0.216741924 1.74663822,0.261201806 1.88557535,0.385848261 C2.02451248,0.510494715 2.08564482,0.668486081 2.02292463,0.73835161 Z"/></g><g fill-rule="nonzero" transform="translate(12.93 17.216)"><circle cx="1.19" cy="1.19" r="1.19" fill="url(#m)"/><path fill="url(#n)" d="M2.02292463,0.73835161 C1.96020444,0.808217139 1.79665558,0.763757257 1.65771845,0.639110802 C1.51878132,0.514464348 1.45764899,0.356472982 1.52036918,0.286607453 C1.58308937,0.216741924 1.74663822,0.261201806 1.88557535,0.385848261 C2.02451248,0.510494715 2.08643874,0.668486081 2.02292463,0.73835161 Z"/></g><g fill-rule="nonzero" transform="translate(8.5 10.88)"><circle cx="1.19" cy="1.19" r="1.19" fill="url(#o)"/><path fill="url(#p)" d="M2.02292463,0.73835161 C1.96020444,0.808217139 1.79665558,0.763757257 1.65771845,0.639110802 C1.51878132,0.514464348 1.45764899,0.356472982 1.52036918,0.286607453 C1.58308937,0.216741924 1.74663822,0.261201806 1.88557535,0.385848261 C2.02451248,0.510494715 2.08643874,0.668486081 2.02292463,0.73835161 Z"/></g></g></svg>