<?xml version="1.0" encoding="UTF-8"?>
<svg width="465px" height="224px" viewBox="0 0 465 224" version="1.1" xmlns="http://www.w3.org/2000/svg"
    xmlns:xlink="http://www.w3.org/1999/xlink">
    <defs>
        <linearGradient x1="100.000114%" y1="49.9999995%" x2="-0.000108619719%" y2="49.9999995%" id="linearGradient-1">
            <stop stop-color="#F4A149" offset="0%"></stop>
            <stop stop-color="#FBE48C" offset="100%"></stop>
        </linearGradient>
        <polygon id="path-2" points="56.9437726 0 0 65.3685109 65.3690776 122.312284 122.312284 56.9437726"></polygon>
        <polygon id="path-4" points="56.9437726 0 0 65.3685109 65.3690776 122.312284 122.312284 56.9437726"></polygon>
        <path
            d="M1.15266647,0 L19.3106806,15.8180609 L17.3470241,32.737243 C2.80066451,22.5500309 -2.59669908,11.6379944 1.15266647,0 L1.15266647,0 Z"
            id="path-6"></path>
        <linearGradient x1="38.3608654%" y1="63.3609914%" x2="1558.54767%" y2="1387.61538%" id="linearGradient-8">
            <stop stop-color="#FA8F66" offset="0%"></stop>
            <stop stop-color="#FAAF66" offset="100%"></stop>
        </linearGradient>
        <path
            d="M17.3470241,32.737243 L19.3106806,15.8180609 L1.15266647,0 C-2.59669908,11.6379944 2.80066451,22.5500309 17.3470241,32.737243"
            id="path-9"></path>
        <linearGradient x1="26.1293045%" y1="16.6399401%" x2="71.6171349%" y2="83.8162617%" id="linearGradient-11">
            <stop stop-color="#FA8F66" offset="0%"></stop>
            <stop stop-color="#FAAF66" offset="100%"></stop>
        </linearGradient>
        <polyline id="path-12" points="56.9437726 0 0 65.3685109 65.3690776 122.312284 122.312284 56.9437726">
        </polyline>
        <path
            d="M9.71174084,0 L9.9860113,0.00178992833 C17.942879,0.105605771 26.1628769,4.72541078 34.6481953,13.861205 L34.6481953,13.861205 L18.1580141,18.1262783 L0,2.30821733 L0.342143575,2.14630764 C3.42299663,0.715605259 6.54598729,0 9.71060742,0 L9.71060742,0 L9.71174084,0 Z"
            id="path-14"></path>
        <linearGradient x1="61.6388824%" y1="36.6390816%" x2="1581.82569%" y2="1360.89347%" id="linearGradient-16">
            <stop stop-color="#FA8F66" offset="0%"></stop>
            <stop stop-color="#FAAF66" offset="100%"></stop>
        </linearGradient>
        <path
            d="M9.71060742,0 C6.42877914,0 3.1917211,0.769594682 0,2.30821733 L0,2.30821733 L18.1580141,18.1262783 L34.6481953,13.861205 C26.0653445,4.62040165 17.7539486,0 9.71230756,0 L9.71230756,0 C9.71174084,0 9.71117413,0 9.71060742,0"
            id="path-17"></path>
        <linearGradient x1="13.6949688%" y1="31.5757953%" x2="86.5569921%" y2="64.7809667%" id="linearGradient-19">
            <stop stop-color="#FA8F66" offset="0%"></stop>
            <stop stop-color="#FAAF66" offset="100%"></stop>
        </linearGradient>
        <polyline id="path-20" points="56.9437726 0 0 65.3685109 65.3690776 122.312284 122.312284 56.9437726">
        </polyline>
        <path
            d="M9.94203956,0 C6.8528933,0 3.80568373,0.61828262 0.802110961,1.85484786 L0.802110961,1.85484786 C-1.89373727,12.281779 2.2058562,22.2400395 13.1008914,31.7313295 L13.1008914,31.7313295 C23.9953598,41.221486 31.2589055,47.548257 34.890395,50.7122092 L34.890395,50.7122092 L38.5218845,53.8755947 L48.0126077,42.9811263 L57.5033309,32.0860911 L53.8718414,28.9227056 C50.240352,25.7587534 42.977373,19.4319824 32.0823378,9.94182585 L32.0823378,9.94182585 C24.4742313,3.31469757 17.0950764,0 9.94373969,0 L9.94373969,0 C9.94260627,0 9.94260627,0 9.94203956,0 L9.94203956,0 Z"
            id="path-22"></path>
        <polygon id="path-24" points="56.9437726 0 0 65.3685109 65.3690776 122.312284 122.312284 56.9437726"></polygon>
        <path
            d="M2.36963886,3.30563018 C-1.12470636,7.3168166 -0.705906308,13.4016017 3.30528011,16.8959469 L3.30528011,16.8959469 C7.31703325,20.3902921 13.4012516,19.9709253 16.8955968,15.9597389 L16.8955968,15.9597389 C20.389942,11.9485525 19.971142,5.86376743 15.9593888,2.36942221 L15.9593888,2.36942221 C14.1345767,0.779795495 11.880197,0 9.6360181,0 L9.6360181,0 C6.94753712,0 4.27379065,1.11868918 2.36963886,3.30563018 L2.36963886,3.30563018 Z"
            id="path-26"></path>
    </defs>
    <g id="页面-1" stroke="none" stroke-width="1" fill="none" fill-rule="evenodd">
        <g id="MCT首页页面" transform="translate(-90.000000, -1806.000000)">
            <g id="编组-25备份" transform="translate(90.000000, 1806.000000)">
                <g id="编组">
                    <g transform="translate(32.649097, 4.624369)">
                        <path
                            d="M429.57933,124.914624 C431.591157,126.070716 431.965186,128.83627 430.310388,130.4684 C424.813283,135.903167 417.003994,136.203524 409.319381,134.395713 C400.552349,132.349884 391.943996,127.566836 387.087276,124.534927 C389.473132,120.154245 391.813652,115.172848 394.0805,109.500062 L394.216511,109.171369 C395.021241,107.227548 397.350427,106.434151 399.175239,107.482568 L429.57933,124.914624 Z"
                            id="Fill-1" fill="#FFFFFF"></path>
                        <path
                            d="M387.087276,124.534927 C391.943996,127.566836 400.552349,132.349884 409.319381,134.395713 C398.727537,158.735987 371.12867,199.199213 305.197414,202.401135 C305.14641,200.377973 303.616288,198.638168 301.54779,198.37748 L295.381965,197.595418 C300.748726,190.392511 310.371494,175.023285 310.059802,161.784897 L337.687004,171.350993 C341.240288,172.57509 345.110929,170.693607 346.340694,167.145991 L349.803304,157.149194 C355.164398,155.783418 362.531652,153.295553 370.45995,146.324998 C375.894717,141.54195 381.595838,134.6394 387.087276,124.534927"
                            id="Fill-3" fill="#FFFFFF"></path>
                        <path
                            d="M394.766164,83.50499 C395.468887,89.4611314 394.760497,101.073057 379.476279,103.895282 C377.283104,104.303315 374.783905,104.529999 371.944679,104.529999 L355.940736,104.529999 C355.770723,100.914378 355.249348,96.998399 354.285938,92.7480601 C353.775897,90.4868799 355.187009,88.2313668 357.459524,87.7496617 L390.759512,80.6430952 C392.674998,80.2350627 394.53948,81.5555012 394.766164,83.50499"
                            id="Fill-5" fill="#FFFFFF"></path>
                        <path
                            d="M379.476336,103.895282 C380.33207,122.625108 375.537688,136.792905 370.45995,146.324998 C362.531652,153.295553 355.164398,155.783418 349.803304,157.149194 L351.452435,152.383147 C352.6822,148.829864 350.800716,144.959222 347.247433,143.729457 L339.018777,140.878897 C346.142345,136.050512 356.904203,125.288654 355.940793,104.529999 L371.944735,104.529999 C374.783962,104.529999 377.283161,104.303315 379.476336,103.895282"
                            id="Fill-7" fill="#FFFFFF"></path>
                        <path
                            d="M341.087275,163.360356 C341.087275,162.039917 340.01619,160.968832 338.695751,160.968832 C337.375313,160.968832 336.304227,162.039917 336.304227,163.360356 C336.304227,164.680794 337.375313,165.75188 338.695751,165.75188 C340.01619,165.75188 341.087275,164.680794 341.087275,163.360356 L341.087275,163.360356 Z M345.133598,151.289393 C345.133598,149.968955 344.062513,148.897869 342.742074,148.897869 C341.421635,148.897869 340.35055,149.968955 340.35055,151.289393 C340.35055,152.609832 341.421635,153.680917 342.742074,153.680917 C344.062513,153.680917 345.133598,152.609832 345.133598,151.289393 L345.133598,151.289393 Z M347.247433,143.729457 C350.800716,144.959222 352.6822,148.829864 351.452435,152.383147 L349.803304,157.149194 L346.340694,167.145991 C345.110929,170.693607 341.240288,172.57509 337.687004,171.350993 L310.059802,161.784897 L302.992905,159.342369 L302.992905,159.336702 L290.236222,154.922016 C287.022966,153.816928 285.175485,150.535667 285.764865,147.294075 C285.827204,146.954048 285.91221,146.614021 286.03122,146.273994 L290.100211,134.514723 L293.579822,135.721819 L320.339955,144.981891 C323.893238,146.211655 327.76388,144.330172 328.993645,140.782556 L330.036394,137.773316 L339.018777,140.878897 L347.247433,143.729457 Z"
                            id="Fill-9" fill="#FFFFFF"></path>
                        <path
                            d="M342.742074,148.897869 C344.062513,148.897869 345.133598,149.968955 345.133598,151.289393 C345.133598,152.609832 344.062513,153.680917 342.742074,153.680917 C341.421635,153.680917 340.35055,152.609832 340.35055,151.289393 C340.35055,149.968955 341.421635,148.897869 342.742074,148.897869"
                            id="Fill-11" fill="#EE8D5E"></path>
                        <path
                            d="M338.695751,160.968832 C340.01619,160.968832 341.087275,162.039917 341.087275,163.360356 C341.087275,164.680794 340.01619,165.75188 338.695751,165.75188 C337.375313,165.75188 336.304227,164.680794 336.304227,163.360356 C336.304227,162.039917 337.375313,160.968832 338.695751,160.968832"
                            id="Fill-13" fill="#EE8D5E"></path>
                        <path
                            d="M330.036394,137.773316 L328.993645,140.782556 C327.76388,144.330172 323.893238,146.211655 320.339955,144.981891 L293.579822,135.721819 L290.100211,134.514723 L291.142961,131.51115 C292.004363,129.006284 294.180536,127.340151 296.634398,127.000124 C297.665814,126.852779 298.742567,126.943453 299.790983,127.306148 L330.036394,137.773316 Z"
                            id="Fill-15" fill="#FFFFFF"></path>
                        <path
                            d="M310.059802,161.784897 C310.371494,175.023285 300.748726,190.392511 295.381965,197.595418 L287.085304,196.541334 C292.004363,190.307504 303.213923,173.623507 302.992905,159.342369 L310.059802,161.784897 Z"
                            id="Fill-17" fill="#FFFFFF"></path>
                        <path
                            d="M305.197414,202.401135 C305.208749,202.616485 305.197414,202.831836 305.169079,203.052853 C304.902724,205.166688 303.100581,206.708145 301.032082,206.708145 C300.856402,206.708145 300.675054,206.69681 300.493706,206.674142 L269.760923,202.769497 C268.219467,202.576815 266.978368,201.556734 266.42299,200.213627 C266.150968,199.567575 266.043293,198.842184 266.139634,198.094125 C266.405989,195.980289 268.208132,194.438833 270.276631,194.438833 C270.452311,194.438833 270.633659,194.450167 270.815007,194.472836 L287.085304,196.541334 L295.381965,197.595418 L301.54779,198.37748 C303.616288,198.638168 305.14641,200.377973 305.197414,202.401135"
                            id="Fill-19" fill="#FBE48C"></path>
                        <path
                            d="M302.992905,159.342369 C303.213923,173.623507 292.004363,190.307504 287.085304,196.541334 L270.815007,194.472836 C270.633659,194.450167 270.452311,194.438833 270.276631,194.438833 C268.208132,194.438833 266.405989,195.980289 266.139634,198.094125 C266.043293,198.842184 266.150968,199.567575 266.42299,200.213627 C253.722978,198.196133 242.343404,195.028213 232.210596,191.174573 C248.985267,184.232353 245.063621,166.448935 243.306814,160.753481 C246.321721,161.388198 249.44997,161.722558 252.657559,161.722558 C265.737269,161.722558 277.513541,156.168782 285.764865,147.294075 C285.175485,150.535667 287.022966,153.816928 290.236222,154.922016 L302.992905,159.336702 L302.992905,159.342369 Z"
                            id="Fill-21" fill="#FFFFFF"></path>
                        <path
                            d="M282.817964,121.695701 C282.817964,119.332513 280.902478,117.422694 278.544956,117.422694 C276.187435,117.422694 274.277616,119.332513 274.277616,121.695701 C274.277616,124.053222 276.187435,125.963041 278.544956,125.963041 C280.902478,125.963041 282.817964,124.053222 282.817964,121.695701 M297.852829,116.532956 C297.852829,120.137243 297.433462,123.639523 296.634398,127.000124 C294.180536,127.340151 292.004363,129.006284 291.142961,131.51115 L290.100211,134.514723 L286.03122,146.273994 C285.91221,146.614021 285.827204,146.954048 285.764865,147.294075 C277.513541,156.168782 265.737269,161.722558 252.657559,161.722558 C249.44997,161.722558 246.321721,161.388198 243.306814,160.753481 C239.634521,159.982753 236.126575,158.764323 232.845313,157.160528 L232.839646,157.154861 C223.466232,152.575829 215.923298,144.857214 211.565284,135.359124 C223.335889,141.575952 232.658299,143.678453 240.014218,143.060738 C242.451079,142.856721 244.67259,142.352348 246.695751,141.598621 C262.121647,135.869164 265.946952,115.665887 265.884614,103.419244 C265.839277,95.2019224 260.206161,89.2514481 252.957917,84.8537642 C248.582901,82.1958856 243.618506,80.1047189 238.943133,78.4215848 C236.636616,77.5941855 233.485698,77.2711597 230.397118,77.1974872 C236.965309,73.4685233 244.564914,71.3376867 252.657559,71.3376867 C253.626637,71.3376867 254.58438,71.3660223 255.536456,71.4283606 C260.041815,71.7117165 264.365826,72.6524582 268.417816,74.1655788 C272.356463,75.6276954 276.04009,77.6281882 279.366689,80.0763833 C278.00658,82.8192687 276.986499,84.8707655 276.986499,84.8707655 C272.577481,92.5893808 287.232649,96.5846993 289.794187,92.742393 C289.998203,92.4363686 290.190885,92.0623388 290.372233,91.6259707 C295.098609,98.7665399 297.852829,107.329556 297.852829,116.532956"
                            id="Fill-23" fill="#FFFFFF"></path>
                        <path
                            d="M292.355724,69.2975241 C293.064114,74.2505856 292.469066,86.6785763 290.372233,91.6259707 C290.190885,92.0623388 289.998203,92.4363686 289.794187,92.742393 C287.232649,96.5846993 272.577481,92.5893808 276.986499,84.8707655 C276.986499,84.8707655 278.00658,82.8192687 279.366689,80.0763833 C281.520194,75.7410377 284.518099,69.677221 285.69686,67.2516943 C287.618013,63.2790443 291.590663,63.9194287 292.355724,69.2975241"
                            id="Fill-25" fill="#FFFFFF"></path>
                        <path
                            d="M278.544956,117.422694 C280.902478,117.422694 282.817964,119.332513 282.817964,121.695701 C282.817964,124.053222 280.902478,125.963041 278.544956,125.963041 C276.187435,125.963041 274.277616,124.053222 274.277616,121.695701 C274.277616,119.332513 276.187435,117.422694 278.544956,117.422694"
                            id="Fill-27" fill="#FBE48C"></path>
                        <path
                            d="M252.079513,104.195639 C252.702896,102.501171 252.612223,100.914378 251.881164,100.642356 C251.144439,100.370334 250.045018,101.526427 249.421635,103.220895 C248.798252,104.909696 248.888926,106.502157 249.625651,106.774178 C250.356709,107.0462 251.45613,105.890108 252.079513,104.195639 M265.884614,103.419244 C265.946952,115.665887 262.121647,135.869164 246.695751,141.598621 C221.726427,139.12209 211.417939,127.062462 213.52044,117.422694 C214.880548,111.188863 217.544094,106.921523 226.940176,107.601578 C226.940176,107.601578 241.413997,108.627326 247.948184,95.8139712 C249.98268,91.8243198 251.688482,88.2313668 252.957917,84.8537642 C260.206161,89.2514481 265.839277,95.2019224 265.884614,103.419244"
                            id="Fill-29" fill="#FFFFFF"></path>
                        <path
                            d="M268.417816,74.1655788 C264.365826,72.6524582 260.041815,71.7117165 255.536456,71.4283606 C255.440115,68.8951587 254.981078,66.3449554 254.097008,63.6644084 C252.748233,59.5670818 265.601258,59.244056 268.417816,74.1655788"
                            id="Fill-31" fill="#FFFFFF"></path>
                        <path
                            d="M251.881164,100.642356 C252.612223,100.914378 252.702896,102.501171 252.079513,104.195639 C251.45613,105.890108 250.356709,107.0462 249.625651,106.774178 C248.888926,106.502157 248.798252,104.909696 249.421635,103.220895 C250.045018,101.526427 251.144439,100.370334 251.881164,100.642356"
                            id="Fill-33" fill="#000000"></path>
                        <path
                            d="M252.957917,84.8537642 C251.688482,88.2313668 249.98268,91.8243198 247.948184,95.8139712 C241.413997,108.627326 226.940176,107.601578 226.940176,107.601578 C217.544094,106.921523 214.880548,111.188863 213.52044,117.422694 C211.417939,127.062462 221.726427,139.12209 246.695751,141.598621 C244.67259,142.352348 242.451079,142.856721 240.014218,143.060738 C232.658299,143.678453 223.335889,141.575952 211.565284,135.359124 C208.935741,129.624 207.467957,123.254159 207.467957,116.532956 C207.467957,109.783418 208.947075,103.385241 211.599287,97.6331162 C214.036147,92.3456947 217.459087,87.6136508 221.64142,83.6693364 C224.27663,81.1758043 227.217865,78.9996308 230.397118,77.1974872 C233.485698,77.2711597 236.636616,77.5941855 238.943133,78.4215848 C243.618506,80.1047189 248.582901,82.1958856 252.957917,84.8537642"
                            id="Fill-35" fill="#E4E3E4"></path>
                        <path
                            d="M243.306814,160.753481 C245.063621,166.448935 248.985267,184.232353 232.210596,191.174573 C223.534238,187.870643 215.770286,184.068006 208.884737,180.055687 C218.518838,171.832698 218.541507,158.741654 217.940792,152.649502 C222.831515,154.63866 227.869584,156.248122 232.839646,157.154861 L232.845313,157.160528 C236.126575,158.764323 239.634521,159.982753 243.306814,160.753481"
                            id="Fill-37" fill="#FFFFFF"></path>
                        <path
                            d="M217.940792,152.649502 C218.541507,158.741654 218.518838,171.832698 208.884737,180.055687 C207.252607,179.103611 205.671481,178.140201 204.135692,177.171123 C214.291168,171.027967 214.982556,156.64482 214.869214,151.340398 C215.883628,151.793767 216.909376,152.230135 217.940792,152.649502"
                            id="Fill-39" fill="#FFFFFF"></path>
                        <path
                            d="M221.64142,83.6693364 C217.459087,87.6136508 214.036147,92.3456947 211.599287,97.6331162 C205.966171,91.688309 198.740595,85.035112 198.564914,84.8707655 C198.740595,84.7574232 198.910608,84.6384137 199.086289,84.5137371 C201.596822,82.7342619 204.226365,79.8496986 206.056845,75.1686588 C206.056845,75.1686588 206.113516,75.1913273 206.226858,75.2366642 C207.433954,75.707035 214.829544,78.7049407 221.64142,83.6693364"
                            id="Fill-41" fill="#FFFFFF"></path>
                        <path
                            d="M214.869214,151.340398 C214.982556,156.64482 214.291168,171.027967 204.135692,177.171123 C181.110189,162.62363 168.971222,146.324998 165.661625,141.456943 C165.655957,141.456943 165.655957,141.451276 165.655957,141.451276 C165.066577,140.584207 164.754886,140.079833 164.720883,140.017495 C169.900629,140.850561 178.327634,140.487866 181.008181,130.366392 L181.013848,130.366392 C181.36521,130.655415 196.677764,143.259087 214.869214,151.340398"
                            id="Fill-43" fill="#FFFFFF"></path>
                        <path
                            d="M206.147519,74.9306398 C206.119183,75.0099795 206.08518,75.0893191 206.056845,75.1686588 C204.226365,79.8496986 201.596822,82.7342619 199.086289,84.5137371 C196.96112,84.7064191 194.626267,84.2757181 192.410424,83.1592958 C187.140003,80.5070843 184.572799,74.9703096 186.680967,70.7936434 C188.783468,66.61131 194.762278,65.3815453 200.032698,68.0337567 C203.160947,69.6092156 205.337121,72.210423 206.147519,74.9306398"
                            id="Fill-45" fill="#FFFFFF"></path>
                        <path
                            d="M164.715216,140.017495 C164.47153,139.977825 164.239178,139.938155 164.012493,139.892818 C161.003253,136.945917 158.090354,133.488974 156.571567,130.060368 C155.891512,128.524579 155.613824,127.062462 155.613824,125.69102 C155.613824,121.571024 158.147026,118.284096 160.034176,116.413947 L158.793077,114.521129 C158.793077,114.521129 157.257288,112.010596 156.40722,109.222373 C155.749834,107.051867 155.506148,104.70568 156.74158,103.249231 C158.016682,101.741777 162.38603,103.32857 167.339092,108.032279 C172.105138,112.57164 177.415228,120.0069 181.008181,130.355058 L181.008181,130.360725 L181.008181,130.366392 C178.327634,140.487866 169.900629,140.850561 164.720883,140.017495 L164.715216,140.017495 Z"
                            id="Fill-47" fill="#FFFFFF"></path>
                        <path
                            d="M138.88449,98.5455223 L138.88449,94.4425285 C138.88449,93.5471238 138.159099,92.8273998 137.269361,92.8273998 L107.936356,92.8273998 C107.046619,92.8273998 106.321228,93.5471238 106.321228,94.4425285 L106.321228,98.5455223 C106.321228,99.440927 107.046619,100.160651 107.936356,100.160651 L137.269361,100.160651 C138.159099,100.160651 138.88449,99.440927 138.88449,98.5455223 M163.933153,98.8798823 L163.933153,94.1081686 C163.933153,93.3997788 163.360774,92.8273998 162.652385,92.8273998 L144.749958,92.8273998 C144.047235,92.8273998 143.474856,93.3997788 143.474856,94.1081686 L143.474856,98.8798823 C143.474856,99.5882721 144.047235,100.160651 144.749958,100.160651 L162.652385,100.160651 C163.360774,100.160651 163.933153,99.5882721 163.933153,98.8798823 M170.030973,84.8877669 L170.030973,102.81853 C170.030973,104.972035 168.971222,106.876186 167.339092,108.032279 C162.38603,103.32857 158.016682,101.741777 156.74158,103.249231 C155.506148,104.70568 155.749834,107.051867 156.40722,109.222373 L154.746754,109.222373 L106.406234,109.222373 C102.869952,109.222373 100.00239,106.354811 100.00239,102.81853 L100.00239,84.8877669 C100.00239,84.0943703 100.149736,83.3349764 100.410423,82.6322537 L100.41609,82.6322537 C101.322829,80.2067271 103.663349,78.4782559 106.406234,78.4782559 L154.746754,78.4782559 L163.627129,78.4782559 C167.163411,78.4782559 170.030973,81.3458179 170.030973,84.8877669"
                            id="Fill-49" fill="url(#linearGradient-1)"></path>
                        <path
                            d="M163.933153,94.1081686 L163.933153,98.8798823 C163.933153,99.5882721 163.360774,100.160651 162.652385,100.160651 L144.749958,100.160651 C144.047235,100.160651 143.474856,99.5882721 143.474856,98.8798823 L143.474856,94.1081686 C143.474856,93.3997788 144.047235,92.8273998 144.749958,92.8273998 L162.652385,92.8273998 C163.360774,92.8273998 163.933153,93.3997788 163.933153,94.1081686"
                            id="Fill-51" fill="#FFFFFF"></path>
                        <path
                            d="M120.670371,28.953308 C120.670371,24.9919923 117.462782,21.7787361 113.501467,21.7787361 C109.534484,21.7787361 106.326895,24.9919923 106.326895,28.953308 C106.326895,32.9146238 109.534484,36.1222128 113.501467,36.1222128 C117.462782,36.1222128 120.670371,32.9146238 120.670371,28.953308 L120.670371,28.953308 Z M154.746754,125.69102 L154.746754,218.02538 L120.670371,218.02538 C110.452557,99.9169649 52.8632994,73.3551809 52.8632994,73.3551809 L48.8113098,79.2433169 C48.8113098,79.2433169 96.7891343,105.997783 98.6366149,218.02538 L72.4035238,218.02538 C72.4545278,217.214982 72.4771963,216.404584 72.4771963,215.582852 C72.4771963,191.877296 53.2599977,172.660097 29.5544414,172.660097 C25.2474314,172.660097 21.0877664,173.294814 17.1661205,174.479242 L17.1661205,25.1676729 C17.1661205,11.2662314 28.4323519,0 42.3337934,0 L129.579082,0 C143.474856,0 154.746754,11.2662314 154.746754,25.1676729 L154.746754,78.4782559 L106.406234,78.4782559 C103.663349,78.4782559 101.322829,80.2067271 100.41609,82.6322537 L100.410423,82.6322537 C97.9565607,83.5333256 96.1940869,85.8851797 96.1940869,88.6677349 L96.1940869,106.59283 C96.1940869,110.129112 99.0616488,113.002341 102.597931,113.002341 L150.938451,113.002341 L154.746754,113.002341 L154.746754,125.69102 Z"
                            id="Fill-53" fill="#FFFFFF"></path>
                        <path
                            d="M154.746754,109.222373 L154.746754,113.002341 L150.938451,113.002341 L102.597931,113.002341 C99.0616488,113.002341 96.1940869,110.129112 96.1940869,106.59283 L96.1940869,88.6677349 C96.1940869,85.8851797 97.9565607,83.5333256 100.410423,82.6322537 C100.149736,83.3349764 100.00239,84.0943703 100.00239,84.8877669 L100.00239,102.81853 C100.00239,106.354811 102.869952,109.222373 106.406234,109.222373 L154.746754,109.222373 Z"
                            id="Fill-55" fill="#E4E3E4"></path>
                        <path
                            d="M138.88449,94.4425285 L138.88449,98.5455223 C138.88449,99.440927 138.159099,100.160651 137.269361,100.160651 L107.936356,100.160651 C107.046619,100.160651 106.321228,99.440927 106.321228,98.5455223 L106.321228,94.4425285 C106.321228,93.5471238 107.046619,92.8273998 107.936356,92.8273998 L137.269361,92.8273998 C138.159099,92.8273998 138.88449,93.5471238 138.88449,94.4425285"
                            id="Fill-57" fill="#FFFFFF"></path>
                        <path
                            d="M120.670371,218.02538 L98.6366149,218.02538 C96.7891343,105.997783 48.8113098,79.2433169 48.8113098,79.2433169 L52.8632994,73.3551809 C52.8632994,73.3551809 110.452557,99.9169649 120.670371,218.02538"
                            id="Fill-59" fill="#FBE48C"></path>
                        <path
                            d="M113.501467,21.7787361 C117.462782,21.7787361 120.670371,24.9919923 120.670371,28.953308 C120.670371,32.9146238 117.462782,36.1222128 113.501467,36.1222128 C109.534484,36.1222128 106.326895,32.9146238 106.326895,28.953308 C106.326895,24.9919923 109.534484,21.7787361 113.501467,21.7787361"
                            id="Fill-61" fill="#B3CCF7"></path>
                        <path
                            d="M72.4771963,215.582852 C72.4771963,216.404584 72.4545278,217.214982 72.4035238,218.02538 L17.1661205,218.02538 L17.1661205,174.479242 C21.0877664,173.294814 25.2474314,172.660097 29.5544414,172.660097 C53.2599977,172.660097 72.4771963,191.877296 72.4771963,215.582852"
                            id="Fill-63" fill="#FBE48C"></path>
                        <path
                            d="M17.1661205,174.479242 L17.1661205,25.1676729 C17.1661205,11.2662314 28.4323519,0 42.3337934,0 L129.579082,0 C143.474856,0 154.746754,11.2662314 154.746754,25.1676729 L154.746754,78.4782559"
                            id="Stroke-65" stroke="#000000" stroke-width="0.566711842"></path>
                        <polyline id="Stroke-67" stroke="#000000" stroke-width="0.566711842"
                            points="154.746754 109.222373 154.746754 113.002341 154.746754 125.69102 154.746754 218.02538">
                        </polyline>
                        <polyline id="Stroke-69" stroke="#333333" stroke-width="0.566711842"
                            points="72.4035238 218.02538 98.6366149 218.02538 120.670371 218.02538 154.746754 218.02538 175.790267 218.02538">
                        </polyline>
                        <line x1="4.00339539e-13" y1="218.02538" x2="17.1661205" y2="218.02538" id="Stroke-71"
                            stroke="#333333" stroke-width="0.566711842"></line>
                        <polyline id="Stroke-73" stroke="#333333" stroke-width="0.566711842"
                            points="72.4035238 218.02538 17.1661205 218.02538 17.1661205 174.479242"></polyline>
                        <path
                            d="M113.501467,21.7787361 C117.462782,21.7787361 120.670371,24.9919923 120.670371,28.953308 C120.670371,32.9146238 117.462782,36.1222128 113.501467,36.1222128 C109.534484,36.1222128 106.326895,32.9146238 106.326895,28.953308 C106.326895,24.9919923 109.534484,21.7787361 113.501467,21.7787361 Z"
                            id="Stroke-75"></path>
                        <path
                            d="M100.410423,82.6322537 C100.149736,83.3349764 100.00239,84.0943703 100.00239,84.8877669 L100.00239,102.81853 C100.00239,106.354811 102.869952,109.222373 106.406234,109.222373 L154.746754,109.222373 L156.40722,109.222373"
                            id="Stroke-77" stroke="#333333" stroke-width="0.566711842"></path>
                        <path
                            d="M167.339092,108.032279 C168.971222,106.876186 170.030973,104.972035 170.030973,102.81853 L170.030973,84.8877669 C170.030973,81.3458179 167.163411,78.4782559 163.627129,78.4782559 L154.746754,78.4782559 L106.406234,78.4782559 C103.663349,78.4782559 101.322829,80.2067271 100.41609,82.6322537"
                            id="Stroke-79" stroke="#333333" stroke-width="0.566711842"></path>
                        <path
                            d="M154.746754,113.002341 L150.938451,113.002341 L102.597931,113.002341 C99.0616488,113.002341 96.1940869,110.129112 96.1940869,106.59283 L96.1940869,88.6677349 C96.1940869,85.8851797 97.9565607,83.5333256 100.410423,82.6322537 L100.41609,82.6322537"
                            id="Stroke-81" stroke="#333333" stroke-width="0.566711842"></path>
                        <path
                            d="M138.88449,94.4425285 L138.88449,98.5455223 C138.88449,99.440927 138.159099,100.160651 137.269361,100.160651 L107.936356,100.160651 C107.046619,100.160651 106.321228,99.440927 106.321228,98.5455223 L106.321228,94.4425285 C106.321228,93.5471238 107.046619,92.8273998 107.936356,92.8273998 L137.269361,92.8273998 C138.159099,92.8273998 138.88449,93.5471238 138.88449,94.4425285 Z"
                            id="Stroke-83"></path>
                        <path
                            d="M144.749958,100.160651 C144.047235,100.160651 143.474856,99.5882721 143.474856,98.8798823 L143.474856,94.1081686 C143.474856,93.3997788 144.047235,92.8273998 144.749958,92.8273998 L162.652385,92.8273998 C163.360774,92.8273998 163.933153,93.3997788 163.933153,94.1081686 L163.933153,98.8798823 C163.933153,99.5882721 163.360774,100.160651 162.652385,100.160651 L144.749958,100.160651 Z"
                            id="Stroke-85"></path>
                        <path
                            d="M181.008181,130.366392 C178.327634,140.487866 169.900629,140.850561 164.720883,140.017495 L164.715216,140.017495 C164.47153,139.977825 164.239178,139.938155 164.012493,139.892818 C161.003253,136.945917 158.090354,133.488974 156.571567,130.060368 C155.891512,128.524579 155.613824,127.062462 155.613824,125.69102 C155.613824,121.571024 158.147026,118.284096 160.034176,116.413947 L158.793077,114.521129 C158.793077,114.521129 157.257288,112.010596 156.40722,109.222373 C155.749834,107.051867 155.506148,104.70568 156.74158,103.249231 C158.016682,101.741777 162.38603,103.32857 167.339092,108.032279 C172.105138,112.57164 177.415228,120.0069 181.008181,130.355058 L181.008181,130.360725"
                            id="Stroke-87" stroke="#000000" stroke-width="0.566711842"></path>
                        <path
                            d="M165.655957,141.451276 C165.111914,140.946902 164.562204,140.425527 164.012493,139.892818"
                            id="Stroke-89" stroke="#000000" stroke-width="0.566711842"></path>
                        <path
                            d="M181.008181,130.360725 L181.008181,130.366392 L181.013848,130.366392 C181.36521,130.655415 196.677764,143.259087 214.869214,151.340398 C215.883628,151.793767 216.909376,152.230135 217.940792,152.649502 C222.831515,154.63866 227.869584,156.248122 232.839646,157.154861"
                            id="Stroke-91" stroke="#000000" stroke-width="0.566711842"></path>
                        <path
                            d="M266.42299,200.213627 C253.722978,198.196133 242.343404,195.028213 232.210596,191.174573 C223.534238,187.870643 215.770286,184.068006 208.884737,180.055687 C207.252607,179.103611 205.671481,178.140201 204.135692,177.171123 C181.110189,162.62363 168.971222,146.324998 165.661625,141.456943 C165.655957,141.456943 165.655957,141.451276 165.655957,141.451276 C165.066577,140.584207 164.754886,140.079833 164.720883,140.017495"
                            id="Stroke-93" stroke="#000000" stroke-width="0.566711842"></path>
                        <line x1="164.715216" y1="140.017495" x2="164.715216" y2="140.011828" id="Stroke-95"
                            stroke="#000000" stroke-width="0.566711842"></line>
                        <path d="M370.45995,146.324998 C375.894717,141.54195 381.595838,134.6394 387.087276,124.534927"
                            id="Stroke-97" stroke="#000000" stroke-width="0.566711842"></path>
                        <path
                            d="M295.381965,197.595418 C300.748726,190.392511 310.371494,175.023285 310.059802,161.784897"
                            id="Stroke-99" stroke="#000000" stroke-width="0.566711842"></path>
                        <path
                            d="M409.319381,134.395713 C398.727537,158.735987 371.12867,199.199213 305.197414,202.401135"
                            id="Stroke-101" stroke="#000000" stroke-width="0.566711842"></path>
                        <path
                            d="M285.764865,147.294075 C285.175485,150.535667 287.022966,153.816928 290.236222,154.922016 L302.992905,159.336702 L302.992905,159.342369 L310.059802,161.784897 L337.687004,171.350993 C341.240288,172.57509 345.110929,170.693607 346.340694,167.145991 L349.803304,157.149194"
                            id="Stroke-103" stroke="#000000" stroke-width="0.566711842"></path>
                        <line x1="339.018777" y1="140.878897" x2="330.036394" y2="137.773316" id="Stroke-105"
                            stroke="#000000" stroke-width="0.566711842"></line>
                        <path
                            d="M296.634398,127.000124 C297.665814,126.852779 298.742567,126.943453 299.790983,127.306148 L330.036394,137.773316 L328.993645,140.782556 C327.76388,144.330172 323.893238,146.211655 320.339955,144.981891 L293.579822,135.721819 L290.100211,134.514723"
                            id="Stroke-107" stroke="#000000" stroke-width="0.566711842"></path>
                        <path
                            d="M342.742074,153.680917 C341.421635,153.680917 340.35055,152.609832 340.35055,151.289393 C340.35055,149.968955 341.421635,148.897869 342.742074,148.897869 C344.062513,148.897869 345.133598,149.968955 345.133598,151.289393 C345.133598,152.609832 344.062513,153.680917 342.742074,153.680917 Z"
                            id="Stroke-109" stroke="#000000" stroke-width="0.566711842"></path>
                        <path
                            d="M338.695751,160.968832 C340.01619,160.968832 341.087275,162.039917 341.087275,163.360356 C341.087275,164.680794 340.01619,165.75188 338.695751,165.75188 C337.375313,165.75188 336.304227,164.680794 336.304227,163.360356 C336.304227,162.039917 337.375313,160.968832 338.695751,160.968832 Z"
                            id="Stroke-111" stroke="#000000" stroke-width="0.566711842"></path>
                        <path
                            d="M221.64142,83.6693364 C224.27663,81.1758043 227.217865,78.9996308 230.397118,77.1974872"
                            id="Stroke-113" stroke="#000000" stroke-width="0.566711842"></path>
                        <path
                            d="M211.565284,135.359124 C208.935741,129.624 207.467957,123.254159 207.467957,116.532956 C207.467957,109.783418 208.947075,103.385241 211.599287,97.6331162"
                            id="Stroke-115" stroke="#000000" stroke-width="0.566711842"></path>
                        <path
                            d="M355.940793,104.529999 C355.770779,100.914378 355.249404,96.998399 354.285994,92.7480601 C353.775954,90.4868799 355.187066,88.2313668 357.459581,87.7496617 L390.759568,80.6430952 C392.675054,80.2350627 394.539536,81.5555012 394.766221,83.50499 C395.468944,89.4611314 394.760554,101.073057 379.476336,103.895282"
                            id="Stroke-117" stroke="#000000" stroke-width="0.566711842"></path>
                        <path
                            d="M370.45995,146.324998 C362.531652,153.295553 355.164398,155.783418 349.803304,157.149194 L351.452435,152.383147 C352.6822,148.829864 350.800716,144.959222 347.247433,143.729457 L339.018777,140.878897 C346.142345,136.050512 356.904203,125.288654 355.940793,104.529999 L371.944735,104.529999 C374.783962,104.529999 377.283161,104.303315 379.476336,103.895282 C380.33207,122.625108 375.537688,136.792905 370.45995,146.324998 Z"
                            id="Stroke-119" stroke="#000000" stroke-width="0.566711842"></path>
                        <path
                            d="M387.087276,124.534927 C389.473132,120.154245 391.813652,115.172848 394.0805,109.500062 L394.216511,109.171369 C395.021241,107.227548 397.350427,106.434151 399.175239,107.482568 L429.57933,124.914624 C431.591157,126.070716 431.965186,128.83627 430.310388,130.4684 C424.813283,135.903167 417.003994,136.203524 409.319381,134.395713 C400.552349,132.349884 391.943996,127.566836 387.087276,124.534927 Z"
                            id="Stroke-121" stroke="#000000" stroke-width="0.566711842"></path>
                        <path
                            d="M217.940792,152.649502 C218.541507,158.741654 218.518838,171.832698 208.884737,180.055687"
                            id="Stroke-123" stroke="#000000" stroke-width="0.566711842"></path>
                        <path
                            d="M214.869214,151.340398 C214.982556,156.64482 214.291168,171.027967 204.135692,177.171123"
                            id="Stroke-125" stroke="#000000" stroke-width="0.566711842"></path>
                        <path
                            d="M243.306814,160.753481 C245.063621,166.448935 248.985267,184.232353 232.210596,191.174573"
                            id="Stroke-127" stroke="#000000" stroke-width="0.566711842"></path>
                        <path
                            d="M305.197414,202.401135 C305.208749,202.616485 305.197414,202.831836 305.169079,203.052853 C304.902724,205.166688 303.100581,206.708145 301.032082,206.708145 C300.856402,206.708145 300.675054,206.69681 300.493706,206.674142 L269.760923,202.769497 C268.219467,202.576815 266.978368,201.556734 266.42299,200.213627 C266.150968,199.567575 266.043293,198.842184 266.139634,198.094125 C266.405989,195.980289 268.208132,194.438833 270.276631,194.438833 C270.452311,194.438833 270.633659,194.450167 270.815007,194.472836 L287.085304,196.541334 L295.381965,197.595418 L301.54779,198.37748 C303.616288,198.638168 305.14641,200.377973 305.197414,202.401135 Z"
                            id="Stroke-129" stroke="#000000" stroke-width="0.566711842"></path>
                        <path
                            d="M302.992905,159.342369 C303.213923,173.623507 292.004363,190.307504 287.085304,196.541334"
                            id="Stroke-131" stroke="#000000" stroke-width="0.566711842"></path>
                        <path
                            d="M199.086289,84.5137371 C196.96112,84.7064191 194.626267,84.2757181 192.410424,83.1592958 C187.140003,80.5070843 184.572799,74.9703096 186.680967,70.7936434 C188.783468,66.61131 194.762278,65.3815453 200.032698,68.0337567 C203.160947,69.6092156 205.337121,72.210423 206.147519,74.9306398 C206.175854,75.0326479 206.20419,75.1346561 206.226858,75.2366642"
                            id="Stroke-133" stroke="#000000" stroke-width="0.566711842"></path>
                        <path
                            d="M206.147519,74.9306398 C206.119183,75.0099795 206.08518,75.0893191 206.056845,75.1686588"
                            id="Stroke-135" stroke="#000000" stroke-width="0.566711842"></path>
                        <path
                            d="M221.64142,83.6693364 C217.459087,87.6136508 214.036147,92.3456947 211.599287,97.6331162 C205.966171,91.688309 198.740595,85.035112 198.564914,84.8707655 C198.740595,84.7574232 198.910608,84.6384137 199.086289,84.5137371 C201.596822,82.7342619 204.226365,79.8496986 206.056845,75.1686588 C206.056845,75.1686588 206.113516,75.1913273 206.226858,75.2366642 C207.433954,75.707035 214.829544,78.7049407 221.64142,83.6693364 Z"
                            id="Stroke-137" stroke="#000000" stroke-width="0.566711842"></path>
                        <line x1="198.564914" y1="84.8707655" x2="198.559247" y2="84.8650984" id="Stroke-139"
                            stroke="#000000" stroke-width="0.566711842"></line>
                        <path
                            d="M279.366689,80.0763833 C276.04009,77.6281882 272.356463,75.6276954 268.417816,74.1655788 C264.365826,72.6524582 260.041815,71.7117165 255.536456,71.4283606 C254.58438,71.3660223 253.626637,71.3376867 252.657559,71.3376867 C244.564914,71.3376867 236.965309,73.4685233 230.397118,77.1974872 C233.485698,77.2711597 236.636616,77.5941855 238.943133,78.4215848 C243.618506,80.1047189 248.582901,82.1958856 252.957917,84.8537642 C260.206161,89.2514481 265.839277,95.2019224 265.884614,103.419244 C265.946952,115.665887 262.121647,135.869164 246.695751,141.598621 C244.67259,142.352348 242.451079,142.856721 240.014218,143.060738 C232.658299,143.678453 223.335889,141.575952 211.565284,135.359124 C215.923298,144.857214 223.466232,152.575829 232.839646,157.154861 L232.845313,157.160528 C236.126575,158.764323 239.634521,159.982753 243.306814,160.753481 C246.321721,161.388198 249.44997,161.722558 252.657559,161.722558 C265.737269,161.722558 277.513541,156.168782 285.764865,147.294075 C285.827204,146.954048 285.91221,146.614021 286.03122,146.273994 L290.100211,134.514723 L291.142961,131.51115 C292.004363,129.006284 294.180536,127.340151 296.634398,127.000124 C297.433462,123.639523 297.852829,120.137243 297.852829,116.532956 C297.852829,107.329556 295.098609,98.7665399 290.372233,91.6259707"
                            id="Stroke-141" stroke="#000000" stroke-width="0.566711842"></path>
                        <path
                            d="M282.817964,121.695701 C282.817964,124.053222 280.902478,125.963041 278.544956,125.963041 C276.187435,125.963041 274.277616,124.053222 274.277616,121.695701 C274.277616,119.332513 276.187435,117.422694 278.544956,117.422694 C280.902478,117.422694 282.817964,119.332513 282.817964,121.695701 Z"
                            id="Stroke-143" stroke="#000000" stroke-width="0.566711842"></path>
                        <path
                            d="M246.695751,141.598621 C221.726427,139.12209 211.417939,127.062462 213.52044,117.422694 C214.880548,111.188863 217.544094,106.921523 226.940176,107.601578 C226.940176,107.601578 241.413997,108.627326 247.948184,95.8139712 C249.98268,91.8243198 251.688482,88.2313668 252.957917,84.8537642"
                            id="Stroke-145" stroke="#000000" stroke-width="0.566711842"></path>
                        <path
                            d="M255.536456,71.4283606 C255.440115,68.8951587 254.981078,66.3449554 254.097008,63.6644084 C252.748233,59.5670818 265.601258,59.244056 268.417816,74.1655788"
                            id="Stroke-147" stroke="#000000" stroke-width="0.566711842"></path>
                        <path
                            d="M290.372233,91.6259707 C290.190885,92.0623388 289.998203,92.4363686 289.794187,92.742393 C287.232649,96.5846993 272.577481,92.5893808 276.986499,84.8707655 C276.986499,84.8707655 278.00658,82.8192687 279.366689,80.0763833 C281.520194,75.7410377 284.518099,69.677221 285.69686,67.2516943 C287.618013,63.2790443 291.590663,63.9194287 292.355724,69.2975241 C293.064114,74.2505856 292.469066,86.6785763 290.372233,91.6259707 Z"
                            id="Stroke-149" stroke="#000000" stroke-width="0.566711842"></path>
                    </g>
                    <g>
                        <g>
                            <mask id="mask-3" fill="white">
                                <use xlink:href="#path-2"></use>
                            </mask>
                            <g id="Clip-152"></g>
                            <polygon id="Fill-151" fill="#FFFFFF" mask="url(#mask-3)"
                                points="77.1983939 86.7351341 88.6930102 73.5398156 92.9042459 76.0378814 80.2501372 90.5644061">
                            </polygon>
                        </g>
                        <g>
                            <mask id="mask-5" fill="white">
                                <use xlink:href="#path-4"></use>
                            </mask>
                            <g id="Clip-154"></g>
                            <polygon id="Stroke-153" stroke="#333333" stroke-width="0.566711842" mask="url(#mask-5)"
                                points="77.1983939 86.7351341 88.6930102 73.5398156 92.9042459 76.0378814 80.2501372 90.5644061">
                            </polygon>
                        </g>
                    </g>
                    <g transform="translate(50.512752, 72.050610)">
                        <mask id="mask-7" fill="white">
                            <use xlink:href="#path-6"></use>
                        </mask>
                        <g id="Clip-156"></g>
                        <polygon id="Fill-155" fill="url(#linearGradient-8)" mask="url(#mask-7)"
                            points="-50.5127521 -6.68209933 6.43102057 -72.0511769 71.7995315 -15.1074043 14.8557588 50.2616733">
                        </polygon>
                    </g>
                    <g transform="translate(50.512752, 72.050610)">
                        <mask id="mask-10" fill="white">
                            <use xlink:href="#path-9"></use>
                        </mask>
                        <g id="Clip-158"></g>
                        <path
                            d="M17.3470241,32.737243 L19.3106806,15.8180609 L1.15266647,0 C-2.59669908,11.6379944 2.80066451,22.5500309 17.3470241,32.737243"
                            id="Fill-157" fill="url(#linearGradient-11)" mask="url(#mask-10)"></path>
                    </g>
                    <g>
                        <mask id="mask-13" fill="white">
                            <use xlink:href="#path-12"></use>
                        </mask>
                        <g id="Clip-160"></g>
                        <path
                            d="M51.6655886,72.0509503 C47.9156563,83.6883779 53.3135866,94.6004145 67.8599462,104.787627 L69.8236027,87.8684445 L51.6655886,72.0509503"
                            id="Stroke-159" stroke="#333333" stroke-width="0.566711842" mask="url(#mask-13)"></path>
                    </g>
                    <g transform="translate(70.646865, 47.952889)">
                        <mask id="mask-15" fill="white">
                            <use xlink:href="#path-14"></use>
                        </mask>
                        <g id="Clip-162"></g>
                        <polygon id="Fill-161" fill="url(#linearGradient-16)" mask="url(#mask-15)"
                            points="-13.7030924 -47.953456 -70.646865 17.4156216 -5.2783541 74.3593943 51.6654185 8.99031667">
                        </polygon>
                    </g>
                    <g transform="translate(70.646865, 47.952889)">
                        <mask id="mask-18" fill="white">
                            <use xlink:href="#path-17"></use>
                        </mask>
                        <g id="Clip-164"></g>
                        <path
                            d="M9.71060742,0 C6.42877914,0 3.1917211,0.769594682 0,2.30821733 L0,2.30821733 L18.1580141,18.1262783 L34.6481953,13.861205 C26.0653445,4.62040165 17.7539486,0 9.71230756,0 L9.71230756,0 C9.71174084,0 9.71117413,0 9.71060742,0"
                            id="Fill-163" fill="url(#linearGradient-19)" mask="url(#mask-18)"></path>
                    </g>
                    <g>
                        <mask id="mask-21" fill="white">
                            <use xlink:href="#path-20"></use>
                        </mask>
                        <g id="Clip-166"></g>
                        <path
                            d="M70.6468083,50.26139 C81.6602863,44.9513 93.2093069,48.802107 105.295004,61.8138109 L88.8048225,66.0788842 L70.6468083,50.26139"
                            id="Stroke-165" stroke="#333333" stroke-width="0.566711842" mask="url(#mask-21)"></path>
                    </g>
                    <g transform="translate(34.933038, 37.156462)">
                        <mask id="mask-23" fill="white">
                            <use xlink:href="#path-22"></use>
                        </mask>
                        <g id="Clip-168"></g>
                        <polygon id="Fill-167" fill="#FFFFFF" mask="url(#mask-23)"
                            points="-12.0861631 12.9837083 10.0586689 -12.4372848 60.9006551 31.8523791 38.7563898 57.2733722">
                        </polygon>
                    </g>
                    <g>
                        <mask id="mask-25" fill="white">
                            <use xlink:href="#path-24"></use>
                        </mask>
                        <g id="Clip-170"></g>
                        <path
                            d="M73.4551489,91.0322267 L69.8236594,87.8688412 C66.1921699,84.704889 58.9286242,78.378118 48.0341557,68.8873947 C37.9336506,60.0886267 33.6736777,50.8880599 35.2536703,41.2851277 C35.4911225,39.841146 36.5236715,38.6561515 37.9211829,38.2231837 C47.2169573,35.3408872 56.915097,38.299123 67.0150355,47.0978911 C77.9100706,56.5886143 85.1730496,62.9153853 88.8045391,66.0793376 L92.4365953,69.2427231 L82.9458721,80.1371915 L73.4551489,91.0322267 Z"
                            id="Stroke-169" stroke="#333333" stroke-width="0.566711842" stroke-linejoin="round"
                            mask="url(#mask-25)"></path>
                    </g>
                    <g transform="translate(42.444800, 43.614710)">
                        <mask id="mask-27" fill="white">
                            <use xlink:href="#path-26"></use>
                        </mask>
                        <g id="Clip-172"></g>
                        <path
                            d="M16.8955968,15.9597389 C20.389942,11.9485525 19.9705753,5.86376743 15.9593888,2.36942221 C11.9482024,-1.12492301 5.86341737,-0.705556244 2.36907215,3.30563018 C-1.12527307,7.3168166 -0.705906308,13.4016017 3.30528011,16.8959469 C7.31646653,20.3902921 13.4012516,19.9709253 16.8955968,15.9597389 Z"
                            id="Stroke-171" stroke="#333333" stroke-width="1.13342368" mask="url(#mask-27)"></path>
                    </g>
                </g>
                <path
                    d="M352.355174,46.4854174 L353.086046,49.8930413 C353.109043,50.0006001 353.192886,50.0844432 353.300445,50.1074402 L356.708069,50.8383126 C357.002239,50.9013147 357.002239,51.3210094 356.708069,51.3840116 L353.300445,52.114884 C353.192886,52.137881 353.109043,52.2219636 353.086046,52.3292828 L352.355174,55.7369067 C352.292172,56.0310763 351.872477,56.0310763 351.809475,55.7369067 L351.078603,52.3292828 C351.055606,52.2219636 350.971523,52.137881 350.864204,52.114884 L347.45658,51.3840116 C347.16241,51.3210094 347.16241,50.9013147 347.45658,50.8383126 L350.864204,50.1074402 C350.971523,50.0844432 351.055606,50.0006001 351.078603,49.8930413 L351.809475,46.4854174 C351.872477,46.1912479 352.292172,46.1912479 352.355174,46.4854174 Z"
                    id="Stroke-378备份" stroke="#333333" stroke-width="0.53848576" fill="#FFFFFF" stroke-linecap="round"
                    stroke-linejoin="round"></path>
                <path
                    d="M79.3125771,133.157111 L79.9622415,136.18611 C79.9826832,136.281717 80.0572104,136.356245 80.1528182,136.376686 L83.1818172,137.026351 C83.4433013,137.082353 83.4433013,137.455415 83.1818172,137.511417 L80.1528182,138.161081 C80.0572104,138.181523 79.9826832,138.256263 79.9622415,138.351658 L79.3125771,141.380657 C79.2565752,141.642141 78.8835132,141.642141 78.8275113,141.380657 L78.1778469,138.351658 C78.1574052,138.256263 78.082665,138.181523 77.9872702,138.161081 L74.9582712,137.511417 C74.6967871,137.455415 74.6967871,137.082353 74.9582712,137.026351 L77.9872702,136.376686 C78.082665,136.356245 78.1574052,136.281717 78.1778469,136.18611 L78.8275113,133.157111 C78.8835132,132.895627 79.2565752,132.895627 79.3125771,133.157111 Z"
                    id="Stroke-378备份-3" stroke="#333333" stroke-width="0.53848576" fill="#FFFFFF" stroke-linecap="round"
                    stroke-linejoin="round"></path>
                <path
                    d="M390.079494,205.363231 L390.891574,209.14948 C390.917126,209.268989 391.010285,209.362148 391.129795,209.3877 L394.916044,210.199781 C395.242899,210.269783 395.242899,210.736111 394.916044,210.806113 L391.129795,211.618194 C391.010285,211.643746 390.917126,211.737171 390.891574,211.856415 L390.079494,215.642663 C390.009491,215.969518 389.543164,215.969518 389.473162,215.642663 L388.661081,211.856415 C388.635529,211.737171 388.542104,211.643746 388.42286,211.618194 L384.636611,210.806113 C384.309756,210.736111 384.309756,210.269783 384.636611,210.199781 L388.42286,209.3877 C388.542104,209.362148 388.635529,209.268989 388.661081,209.14948 L389.473162,205.363231 C389.543164,205.036376 390.009491,205.036376 390.079494,205.363231 Z"
                    id="Stroke-378备份-2" stroke="#333333" stroke-width="0.53848576" fill="#FFFFFF" stroke-linecap="round"
                    stroke-linejoin="round"></path>
            </g>
        </g>
    </g>
</svg>