<?xml version="1.0" encoding="UTF-8"?>
<svg width="432px" height="312px" viewBox="0 0 432 312" version="1.1" xmlns="http://www.w3.org/2000/svg"
    xmlns:xlink="http://www.w3.org/1999/xlink">
    <g id="页面-1" stroke="none" stroke-width="1" fill="none" fill-rule="evenodd">
        <g id="MCT首页页面" transform="translate(-699.000000, -2163.000000)">
            <g id="编组-19" transform="translate(699.060120, 2164.916587)">
                <g id="编组-17" transform="translate(0.000000, 93.660923)">
                    <path d="M214.788234,168.276711 C126.268685,164.830868 55.8479971,180.044551 3.52616877,213.917758"
                        id="路径-10" stroke="#979797"></path>
                    <g id="编组-14备份"
                        transform="translate(28.049227, 156.275267) scale(-1, 1) rotate(8.000000) translate(-28.049227, -156.275267) translate(5.492673, 115.231474)">
                        <line x1="21.3039958" y1="63.5406061" x2="20.2264365" y2="82.0875874" id="路径-5" stroke="#979797"
                            stroke-width="2"></line>
                        <path
                            d="M27.7883791,-3.24197774e-14 L6.27443904,28.5064528 L17.0314091,30.1793673 L2.16931717,50.6191778 L13.5050887,51.0681232 L3.36592839e-14,70.0273442 C23.0424214,73.8367895 38.0801239,73.8367895 45.1131074,70.0273442 L36.4134449,50.6191778 L45.1131074,49.5090265 L32.5456958,30.1590136 L42.9335819,29.1023635 L27.7137823,0.557692563"
                            id="路径-4" fill="#D4EFEE"></path>
                    </g>
                    <path d="M219.623105,168.40206 C317.66075,172.155955 387.118031,185.828238 427.994949,209.418911"
                        id="路径-8" stroke="#979797"></path>
                    <g id="编组-14"
                        transform="translate(369.698640, 101.018325) rotate(8.000000) translate(-369.698640, -101.018325) translate(321.043944, 5.845207)">
                        <line x1="47.8196574" y1="150.340226" x2="45.495352" y2="190.346237" id="路径-5" stroke="#979797"
                            stroke-width="2"></line>
                        <path
                            d="M59.9397921,-2.27725493e-13 L13.5340233,61.4886837 L36.7369077,65.0971759 L4.6792373,109.186037 L29.1306018,110.154416 L-4.66398918e-13,151.049632 C49.7027172,159.266641 82.1391812,159.266641 97.3093919,151.049632 L78.544139,109.186037 L97.3093919,106.79143 L70.2013683,65.0532726 L92.6081352,62.7740687 L59.7788861,1.20294804"
                            id="路径-4" fill="#D4EFEE"></path>
                    </g>
                </g>
                <g id="编组-9" transform="translate(80.939880, 0.000000)">
                    <ellipse id="椭圆形" fill="#E4E3E4" cx="146.076875" cy="297.834583" rx="65.25" ry="12"></ellipse>
                    <ellipse id="椭圆形备份-2" fill="#E4E3E4" cx="119.965491" cy="266.520021" rx="43.8333274"
                        ry="4.45703855"></ellipse>
                    <g id="编组"
                        transform="translate(122.500000, 151.539917) scale(-1, 1) translate(-122.500000, -151.539917) translate(0.000000, 0.000000)">
                        <path
                            d="M241.869074,266.073316 L239.473213,283.393761 L150.434987,284.881453 L149.306048,271.196194 L148.899629,266.281543 C150.111358,265.125007 151.303017,263.913278 152.4445,262.651375 L241.869074,266.073316 Z"
                            id="Fill-1" fill="#F09973"></path>
                        <polygon id="Fill-3" fill="#E9885E"
                            points="208.660683 161.626318 204.822288 231.966792 200.421932 232.084703 202.539321 164.686999">
                        </polygon>
                        <polygon id="Fill-5" fill="#4D4D4D"
                            points="202.539321 164.686999 200.421932 232.084703 198.497717 232.134878 199.706936 166.104445">
                        </polygon>
                        <path
                            d="M199.706936,166.104445 L198.497717,232.134878 L193.786275,232.262825 L193.786275,187.19304 C194.140009,185.880961 194.190184,184.410831 193.786275,183.181541 L193.786275,182.21567 C195.610139,180.148456 195.143511,177.095301 193.786275,174.142497 L193.786275,169.064776 L199.706936,166.104445 Z"
                            id="Fill-7" fill="#E9885E"></path>
                        <path
                            d="M190.286561,168.685954 C191.576061,170.2464 192.880614,172.173124 193.786275,174.142497 L193.786275,182.21567 C193.700977,182.316021 193.608153,182.413862 193.507803,182.509195 C192.805351,181.139414 191.387905,180.248806 188.997061,180.567418 C182.34886,181.4505 186.187256,185.153423 189.809898,184.315498 C191.483237,183.926641 192.68744,183.301961 193.507803,182.509195 C193.618188,182.722439 193.711012,182.948227 193.786275,183.181541 L193.786275,187.19304 L193.786275,232.262825 L182.251019,232.571402 L185.143613,201.578242 L177.883276,201.886819 L175.703168,167.110456 L190.286561,168.685954 Z"
                            id="Fill-9" fill="#F09973"></path>
                        <path
                            d="M190.286561,168.685954 L193.786275,169.064776 L193.786275,174.142497 C192.880614,172.173124 191.576061,170.2464 190.286561,168.685954"
                            id="Fill-11" fill="#F09973"></path>
                        <path
                            d="M188.997061,180.567418 C191.387905,180.248806 192.805351,181.139414 193.507803,182.509195 C192.68744,183.301961 191.483237,183.926641 189.809898,184.315498 C186.187256,185.153423 182.34886,181.4505 188.997061,180.567418"
                            id="Fill-13" fill="#F09973"></path>
                        <path
                            d="M188.497819,166.736652 C189.05978,167.278543 189.671916,167.940854 190.286561,168.685954 L175.703168,167.110456 L180.33433,164.76477 L186.633814,165.201294 C187.228389,165.610221 187.853069,166.116989 188.497819,166.736652"
                            id="Fill-15" fill="#F8D3C0"></path>
                        <path
                            d="M188.497819,166.736652 C187.853069,166.116989 187.228389,165.610221 186.633814,165.201294 L199.706936,166.104445 L193.786275,169.064776 L190.286561,168.685954 C189.671916,167.940854 189.05978,167.278543 188.497819,166.736652"
                            id="Fill-17" fill="#F8D3C0"></path>
                        <polygon id="Fill-19" fill="#E9885E"
                            points="185.143613 201.578242 182.251019 232.571402 167.208524 232.975311 165.206537 233.030504 165.755954 223.855987 165.755954 223.850969 166.443353 212.345818 176.337883 206.648436 178.119099 205.622355">
                        </polygon>
                        <path
                            d="M186.633814,165.201294 L180.33433,164.76477 L175.703168,167.110456 L172.956081,166.814423 L176.478374,164.496333 L161.094688,163.432621 L162.953675,162.805433 L177.963556,163.517919 L179.355916,162.602223 C180.19384,162.978537 180.592732,163.209342 180.765836,163.352341 C180.760818,163.500358 180.753292,163.580638 180.753292,163.580638 L180.75831,163.580638 C180.826046,163.580638 181.56362,163.585655 182.710121,163.560568 L182.378965,163.728654 L183.788886,163.796391 C184.619284,164.044758 185.582646,164.476263 186.633814,165.201294"
                            id="Fill-21" fill="#4D4D4D"></path>
                        <path
                            d="M186.633814,165.201294 C185.582646,164.476263 184.619284,164.044758 183.788886,163.796391 L202.539321,164.686999 L199.706936,166.104445 L186.633814,165.201294 Z"
                            id="Fill-23" fill="#4D4D4D"></path>
                        <path
                            d="M183.788886,163.796391 C183.425116,163.686006 183.088943,163.610743 182.780366,163.560568 C185.989064,163.49534 192.278513,163.229412 196.167083,162.150648 C196.653782,162.015175 197.132954,161.837053 197.594565,161.626318 L208.660683,161.626318 L202.539321,164.686999 L183.788886,163.796391 Z"
                            id="Fill-25" fill="#F8D3C0"></path>
                        <path
                            d="M196.167083,162.150648 C192.278513,163.229412 185.989064,163.49534 182.780366,163.560568 L182.775349,163.560568 C182.757787,163.558059 182.742735,163.55555 182.727682,163.553042 L186.528446,161.626318 L197.594565,161.626318 C197.132954,161.837053 196.653782,162.015175 196.167083,162.150648"
                            id="Fill-27" fill="#F8D3C0"></path>
                        <path
                            d="M180.85866,163.55555 C180.883747,163.537989 180.8988,163.507884 180.868695,163.460218 C181.122079,163.19429 181.791917,162.511908 182.765314,161.626318 L186.528446,161.626318 L182.727682,163.553042 C181.769338,163.407534 181.104518,163.505375 180.85866,163.55555"
                            id="Fill-29" fill="#F8D3C0"></path>
                        <path
                            d="M179.355916,162.602223 L177.963556,163.517919 L162.953675,162.805433 L166.443353,161.626318 L177.005212,161.626318 C178.031293,162.027719 178.793954,162.348839 179.355916,162.602223"
                            id="Fill-31" fill="#F8D3C0"></path>
                        <polygon id="Fill-33" fill="#4D4D4D"
                            points="175.703168 167.110456 177.883276 201.886819 175.9415 201.969608 172.956081 166.814423">
                        </polygon>
                        <polygon id="Fill-35" fill="#F8D3C0"
                            points="176.478374 164.496333 172.956081 166.814423 156.383246 165.023172 161.094688 163.432621">
                        </polygon>
                        <polygon id="Fill-37" fill="#F09973"
                            points="172.956081 166.814423 175.9415 201.969608 162.361609 202.546621 156.383246 165.023172">
                        </polygon>
                        <path
                            d="M166.443353,212.345818 L165.755954,223.850969 L165.755954,223.855987 L165.206537,233.030504 L161.729403,233.123328 C161.53372,232.526244 161.310441,231.92916 161.059565,231.329568 C158.044041,224.141985 154.566907,217.586608 151.104825,211.854102 L163.909511,212.265538 L166.443353,212.345818 Z"
                            id="Fill-39" fill="#F09973"></path>
                        <path
                            d="M161.729403,233.123328 L165.206537,233.030504 L167.208524,232.975311 L182.251019,232.571402 L193.786275,232.262825 L198.497717,232.134878 L200.421932,232.084703 L204.822288,231.966792 L236.497829,231.116324 L245,243.441837 L204.250292,242.470949 L200.098302,242.373108 L198.312069,242.330459 L193.786275,242.222582 L181.377972,241.926549 L168.58583,241.62299 L164.69726,241.530166 L162.848307,241.485008 C163.001341,238.7605 162.670186,235.963238 161.729403,233.123328"
                            id="Fill-41" fill="#F8D3C0"></path>
                        <path
                            d="M83.2179135,189.694269 C104.860943,196.227067 138.109474,193.929048 138.109474,193.929048 L138.204807,193.457402 C140.287073,196.028876 142.820916,199.332906 145.537898,203.259108 C147.336675,205.858178 149.218241,208.73572 151.104825,211.854102 C154.566907,217.586608 158.044041,224.141985 161.059565,231.329568 C161.310441,231.92916 161.53372,232.526244 161.729403,233.123328 C162.670186,235.963238 163.001341,238.7605 162.848307,241.485008 C162.517152,247.330408 159.96073,252.852177 156.390772,257.801951 C155.179043,259.487834 153.846894,261.10849 152.4445,262.651375 C151.303017,263.913278 150.111358,265.125007 148.899629,266.281543 C147.151027,267.949865 145.359776,269.502785 143.606156,270.92274 C139.843024,273.970877 136.250486,276.409387 133.611276,278.080218 C133.611276,278.080218 128.04184,275.303026 125.989678,270.079798 C125.876784,269.791291 125.773925,269.497767 125.68361,269.194208 C126.411149,268.634755 126.870251,268.306108 126.870251,268.306108 C126.870251,268.306108 136.408538,265.330725 137.075867,238.978762 C137.464724,223.642742 125.58326,215.14308 115.583362,210.720145 L115.580854,210.720145 C113.681726,209.877203 111.852844,209.184787 110.18703,208.617808 L110.184521,208.617808 C105.550851,207.047328 102.194137,206.465297 102.194137,206.465297 C56.083219,197.504024 74.5351123,237.907524 79.6981302,247.859755 C79.7031477,247.86979 79.7081652,247.879825 79.710674,247.887351 C76.2260132,250.406141 67.0715661,252.576214 67.0715661,252.576214 C61.9336357,244.4629 47.1972086,219.761698 50.132452,207.669499 C51.843423,200.619897 60.6165394,193.931556 67.7464212,189.528691 C71.384116,192.41376 78.3233324,191.472976 78.3233324,191.472976 C78.3233324,191.472976 80.3955641,190.963699 83.2154048,189.694269 L83.2179135,189.694269 Z"
                            id="Fill-43" fill="#FFFFFF"></path>
                        <path
                            d="M156.794681,75.8896141 C157.431905,75.9071754 157.903551,77.334657 157.850867,79.0782418 C157.798183,80.8193178 157.24124,82.2166943 156.606525,82.1966243 C155.97181,82.179063 155.500164,80.7515814 155.550339,79.0079966 C155.603023,77.2669206 156.159966,75.8695441 156.794681,75.8896141"
                            id="Fill-45" fill="#4D4D4D"></path>
                        <path
                            d="M156.390772,257.801951 C159.96073,252.852177 162.517152,247.330408 162.848307,241.485008 L164.69726,241.530166 L168.58583,241.62299 L181.377972,241.926549 L193.786275,242.222582 L198.312069,242.330459 L200.098302,242.373108 L204.250292,242.470949 L245,243.441837 L242.804839,259.302187 L156.390772,257.801951 Z"
                            id="Fill-47" fill="#F09973"></path>
                        <path
                            d="M133.776854,111.06236 L138.109474,109.20839 L139.868111,98.6013735 L139.87062,98.6013735 L140.056268,97.4774513 L143.11444,79.0431192 L133.84459,77.4701298 L132.768334,47.7915576 C138.907258,38.2030959 146.410944,29.3597343 154.471574,26.2614219 C157.130855,25.2378498 155.460024,34.0586325 144.531887,53.2882399 C149.368767,53.3158362 156.47607,54.2014268 158.65116,58.9153775 C158.65116,58.9153775 162.617502,44.8914368 168.851758,41.3490747 C175.086014,37.8067126 169.275738,54.9490358 167.150822,60.7568037 C165.025907,66.5670804 163.46797,72.5153386 163.46797,72.5153386 C163.46797,72.5153386 165.309396,86.6822783 165.452395,90.0841502 C165.592885,93.4835132 167.434312,96.0324084 169.418737,97.3093647 C171.400653,98.5838122 173.525569,101.275706 172.8181,104.108091 C172.110631,106.942984 167.293821,115.726135 152.276414,117.143582 C150.244322,117.334247 148.144494,117.131038 146.029614,116.629287 C141.855045,115.648364 137.627793,113.525957 133.776854,111.06236 M157.850867,79.0782418 C157.903551,77.334657 157.431905,75.9071754 156.794681,75.8896141 C156.159966,75.8695441 155.603023,77.2669206 155.550339,79.0079966 C155.500164,80.7515814 155.97181,82.179063 156.606525,82.1966243 C157.24124,82.2166943 157.798183,80.8193178 157.850867,79.0782418 M146.817363,79.6075891 C146.985449,81.5568918 147.697936,83.0872323 148.407913,83.0245135 C149.117891,82.9643033 149.559432,81.3361213 149.391345,79.3868187 C149.223259,77.437516 148.513281,75.9071754 147.800795,75.9673855 C147.090817,76.0301044 146.651785,77.6582864 146.817363,79.6075891"
                            id="Fill-49" fill="#FFFFFF"></path>
                        <path
                            d="M241.869074,266.073316 L152.4445,262.651375 C153.846894,261.10849 155.179043,259.487834 156.390772,257.801951 L242.804839,259.302187 L241.869074,266.073316 Z"
                            id="Fill-51" fill="#4D4D4D"></path>
                        <path
                            d="M146.817363,79.6075891 C146.651785,77.6582864 147.090817,76.0301044 147.800795,75.9673855 C148.513281,75.9071754 149.223259,77.437516 149.391345,79.3868187 C149.559432,81.3361213 149.117891,82.9643033 148.407913,83.0245135 C147.697936,83.0872323 146.985449,81.5568918 146.817363,79.6075891"
                            id="Fill-53" fill="#4D4D4D"></path>
                        <path
                            d="M133.776854,111.06236 C137.627793,113.525957 141.855045,115.648364 146.029614,116.629287 C145.495249,118.044225 144.9082,119.725091 144.439063,121.375852 C144.32366,121.779761 144.215784,122.181162 144.117942,122.577545 C143.854523,123.641258 143.65884,124.659812 143.586086,125.547911 C143.568525,125.748612 143.553472,125.946804 143.53842,126.144995 L143.53842,126.147504 C137.279076,127.891089 132.810983,126.644237 130.086475,125.204212 L131.235485,112.15116 L133.776854,111.06236 Z"
                            id="Fill-55" fill="#FFFFFF"></path>
                        <path
                            d="M151.104825,211.854102 C149.218241,208.73572 147.336675,205.858178 145.537898,203.259108 L162.361609,202.546621 L175.9415,201.969608 L177.883276,201.886819 L185.143613,201.578242 L178.119099,205.622355 L176.337883,206.648436 L166.443353,212.345818 L163.909511,212.265538 L151.104825,211.854102 Z"
                            id="Fill-57" fill="#F8D3C0"></path>
                        <path
                            d="M143.11444,165.665413 C143.412982,165.452169 143.709015,165.238925 143.997522,165.023172 L138.204807,193.457402 L138.109474,193.929048 C138.109474,193.929048 104.860943,196.227067 83.2179135,189.694269 C86.8606259,188.048526 91.7501894,185.135861 95.0291323,180.406858 C101.403879,179.754582 127.94149,176.455569 143.11444,165.665413"
                            id="Fill-59" fill="#FFFFFF"></path>
                        <path
                            d="M144.117942,122.577545 C148.969874,124.338692 147.18615,124.903161 145.685914,125.452579 C144.94834,125.723524 144.233345,125.95433 143.53842,126.144995 C143.553472,125.946804 143.568525,125.748612 143.586086,125.547911 C143.65884,124.659812 143.854523,123.641258 144.117942,122.577545"
                            id="Fill-61" fill="#4D4D4D"></path>
                        <polygon id="Fill-63" fill="#F09973"
                            points="143.11444 79.0431192 133.997624 81.6622595 133.84459 77.4701298"></polygon>
                        <polygon id="Fill-65" fill="#4D4D4D"
                            points="140.056268 97.4774513 139.87062 98.6013735 139.868111 98.6013735 91.2584734 102.382067 91.2559647 102.382067 89.8360093 99.7303133">
                        </polygon>
                        <polygon id="Fill-67" fill="#F09973"
                            points="139.868111 98.6013735 138.109474 109.20839 133.776854 111.06236 131.235485 112.15116 111.722388 120.500296 109.050564 121.64178 102.974359 124.243359 91.2584734 102.382067">
                        </polygon>
                        <polygon id="Fill-69" fill="#F09973"
                            points="133.84459 77.4701298 133.997624 81.6622595 87.3372893 95.0640289 87.3347806 95.0640289 81.7954494 35.9126025 92.5479735 36.4570024 99.5850314 36.8132456 123.583782 38.027483 132.158707 38.4614976 132.768334 47.7915576">
                        </polygon>
                        <path
                            d="M133.611276,278.080218 C141.32068,285.162434 145.818878,304.336848 134.991091,303.014734 C123.375556,301.597288 116.574321,284.030985 116.290831,280.064643 C116.090131,277.254838 121.47141,272.533361 124.634951,270.014571 L125.989678,270.079798 C128.04184,275.303026 133.611276,278.080218 133.611276,278.080218"
                            id="Fill-71" fill="#FFFFFF"></path>
                        <polygon id="Fill-73" fill="#E9885E"
                            points="131.235485 112.15116 130.086475 125.204212 129.326322 133.859417 117.843751 139.709834 112.846311 142.25622 111.722388 120.500296">
                        </polygon>
                        <polygon id="Fill-75" fill="#E9885E"
                            points="128.5461 19.8866753 126.549131 27.1896612 100.410412 28.2182508 100.959829 22.5108331 93.7571935 20.6944944 94.1460505 15.6343355">
                        </polygon>
                        <polygon id="Fill-77" fill="#4D4D4D"
                            points="126.549131 27.1896612 125.540611 30.8725136 100.217238 30.2377986 100.410412 28.2207596 100.410412 28.2182508">
                        </polygon>
                        <polygon id="Fill-79" fill="#E9885E"
                            points="125.540611 30.8725136 123.583782 38.027483 99.5850314 36.8132456 100.217238 30.2377986">
                        </polygon>
                        <path
                            d="M117.843751,139.709834 L115.977237,156.240021 C102.99443,161.942421 92.2067829,163.751233 92.2067829,163.751233 C91.8354871,164.2003 91.5795941,164.799893 91.4140163,165.504853 C89.6879928,165.467222 86.7703107,165.555028 83.4763153,166.282567 L83.9906101,148.608388 L96.1731246,150.753373 L110.174486,143.618474 L112.846311,142.25622 L117.843751,139.709834 Z"
                            id="Fill-81" fill="#E9885E"></path>
                        <path
                            d="M115.583362,210.720145 C125.58326,215.14308 137.464724,223.642742 137.075867,238.978762 C136.408538,265.330725 126.870251,268.306108 126.870251,268.306108 C126.870251,268.306108 126.411149,268.634755 125.68361,269.194208 C125.377542,269.427522 125.023808,269.703485 124.634951,270.014571 L107.50768,269.194208 L104.391806,210.361393 L115.580854,210.720145 L115.583362,210.720145 Z"
                            id="Fill-83" fill="#F09973"></path>
                        <polygon id="Fill-85" fill="#4D4D4D"
                            points="111.722388 120.500296 112.846311 142.25622 110.174486 143.618474 109.050564 121.64178">
                        </polygon>
                        <path
                            d="M110.18703,208.617808 C111.852844,209.184787 113.681726,209.877203 115.580854,210.720145 L104.391806,210.361393 L110.184521,208.617808 L110.18703,208.617808 Z"
                            id="Fill-87" fill="#F8D3C0"></path>
                        <polygon id="Fill-89" fill="#E9885E"
                            points="109.050564 121.64178 110.174486 143.618474 96.1731246 150.753373 94.1460505 123.390382 102.974359 124.243359">
                        </polygon>
                        <path
                            d="M94.1460505,123.390382 L96.1731246,150.753373 L83.9906101,148.608388 L79.9189007,147.893393 L70.6841733,146.267719 C71.51708,144.298347 71.6249565,142.283816 70.8321899,140.512635 C68.8402384,136.059595 61.8985132,134.837831 55.3280837,137.780601 C53.7300068,138.495596 52.3025251,139.391222 51.0832702,140.40225 L45.8550247,118.729115 L94.1460505,123.390382 Z"
                            id="Fill-91" fill="#F8D3C0"></path>
                        <path
                            d="M157.517203,131.167523 C160.582902,138.2673 160.449938,152.825605 143.997522,165.023172 C143.709015,165.238925 143.412982,165.452169 143.11444,165.665413 C127.94149,176.455569 101.403879,179.754582 95.0291323,180.406858 C94.1234717,180.499682 93.6242295,180.539822 93.6242295,180.539822 C93.6242295,180.539822 90.2574802,170.444592 91.4140163,165.504853 C91.5795941,164.799893 91.8354871,164.2003 92.2067829,163.751233 C92.2067829,163.751233 102.99443,161.942421 115.977237,156.240021 L117.843751,139.709834 L129.326322,133.859417 L130.086475,125.204212 C132.810983,126.644237 137.279076,127.891089 143.53842,126.147504 L143.53842,126.144995 C144.233345,125.95433 144.94834,125.723524 145.685914,125.452579 C147.18615,124.903161 148.969874,124.338692 144.117942,122.577545 C144.215784,122.181162 144.32366,121.779761 144.439063,121.375852 C147.512288,122.411968 155.058623,125.467631 157.517203,131.167523"
                            id="Fill-93" fill="#FFFFFF"></path>
                        <path
                            d="M83.4763153,166.282567 C86.7703107,165.555028 89.6879928,165.467222 91.4140163,165.504853 C90.2574802,170.444592 93.6242295,180.539822 93.6242295,180.539822 C93.6242295,180.539822 94.1234717,180.499682 95.0291323,180.406858 C91.7501894,185.135861 86.8606259,188.048526 83.2179135,189.694269 L83.2154048,189.694269 C80.3955641,190.963699 78.3233324,191.472976 78.3233324,191.472976 C78.3233324,191.472976 71.384116,192.41376 67.7464212,189.528691 C65.6089619,187.83779 64.6104774,184.824776 66.8257081,179.531302 C66.9335846,179.267883 67.051496,178.996938 67.1794425,178.720975 C70.2275799,172.090335 75.5361056,168.746165 80.5561244,167.085369 C81.5470827,166.754213 82.5280059,166.493303 83.4763153,166.282567"
                            id="Fill-95" fill="#FFFFFF"></path>
                        <polygon id="Fill-97" fill="#F8D3C0"
                            points="91.2559647 102.382067 91.2584734 102.382067 102.974359 124.243359 94.1460505 123.390382 45.8550247 118.729115 30.1552356 117.213827 29.3273465 111.704601">
                        </polygon>
                        <polygon id="Fill-99" fill="#4D4D4D"
                            points="89.8360093 99.7303133 91.2559647 102.382067 29.3273465 111.704601 28.59479 106.820055">
                        </polygon>
                        <polygon id="Fill-101" fill="#F09973"
                            points="87.3347806 95.0640289 87.3372893 95.0640289 133.997624 81.6622595 143.11444 79.0431192 140.056268 97.4774513 89.8360093 99.7303133">
                        </polygon>
                        <polygon id="Fill-103" fill="#F8D3C0"
                            points="81.7954494 35.9126025 87.3347806 95.0640289 56.4369534 92.3922048 49.5529296 45.4132579 55.0370681 43.7951109 57.5307706 43.0625544 67.6435622 40.0821534">
                        </polygon>
                        <path
                            d="M80.5561244,167.085369 L79.9189007,147.893393 L83.9906101,148.608388 L83.4763153,166.282567 C82.5280059,166.493303 81.5470827,166.754213 80.5561244,167.085369"
                            id="Fill-105" fill="#4D4D4D"></path>
                        <path
                            d="M79.9189007,147.893393 L80.5561244,167.085369 C75.5361056,168.746165 70.2275799,172.090335 67.1794425,178.720975 C67.051496,178.996938 66.9335846,179.267883 66.8257081,179.531302 L62.4554568,178.557906 L58.6371316,155.166273 C59.9266317,154.902854 61.2462369,154.481383 62.5482807,153.899352 C66.5020787,152.128171 69.4222696,149.24812 70.6841733,146.267719 L79.9189007,147.893393 Z"
                            id="Fill-107" fill="#F09973"></path>
                        <path
                            d="M79.710674,247.887351 C79.710674,247.887351 87.2494829,249.392604 84.2038543,257.395533 C81.0227529,265.754705 58.6321141,276.670298 51.6903889,271.213756 C44.7486637,265.757213 67.0715661,252.576214 67.0715661,252.576214 C67.0715661,252.576214 76.2260132,250.406141 79.710674,247.887351"
                            id="Fill-109" fill="#FFFFFF"></path>
                        <path
                            d="M55.3280837,137.780601 C61.8985132,134.837831 68.8402384,136.059595 70.8321899,140.512635 C71.6249565,142.283816 71.51708,144.298347 70.6841733,146.267719 C69.4222696,149.24812 66.5020787,152.128171 62.5482807,153.899352 C61.2462369,154.481383 59.9266317,154.902854 58.6371316,155.166273 C53.4189211,156.229986 48.6422515,154.734768 47.0441746,151.167318 C45.533904,147.79806 47.2925413,143.54572 51.0832702,140.404759 L51.0832702,140.40225 C52.3025251,139.391222 53.7300068,138.495596 55.3280837,137.780601"
                            id="Fill-111" fill="#FFFFFF"></path>
                        <polygon id="Fill-113" fill="#F09973"
                            points="100.410412 28.2207596 100.217238 30.2377986 99.5850314 36.8132456 92.5479735 36.4570024 81.7954494 35.9126025 67.6435622 40.0821534 67.8267013 37.515697 69.4699359 14.5731321 93.7571935 20.6944944 100.959829 22.5108331 100.410412 28.2182508">
                        </polygon>
                        <path
                            d="M60.568873,15.2655485 L69.4699359,14.5731321 L67.8267013,37.515697 C64.316953,35.1223447 66.0956604,26.1234403 65.5964181,20.7220907 C65.2953675,17.4406391 62.6812448,16.0658414 60.5437855,15.4888277 L60.568873,15.2655485 Z"
                            id="Fill-115" fill="#F8D3C0"></path>
                        <path
                            d="M60.5437855,15.4888277 C62.6812448,16.0658414 65.2953675,17.4406391 65.5964181,20.7220907 C66.0956604,26.1234403 64.316953,35.1223447 67.8267013,37.515697 L67.6435622,40.0821534 L57.5307706,43.0625544 L60.5437855,15.4888277 Z"
                            id="Fill-117" fill="#F8D3C0"></path>
                        <path
                            d="M60.5437855,15.4888277 L57.5307706,43.0625544 L55.0370681,43.7951109 L56.9336869,15.5465291 L59.8438428,15.3207411 C60.0696308,15.3684075 60.302945,15.4236001 60.5437855,15.4888277"
                            id="Fill-119" fill="#4D4D4D"></path>
                        <polygon id="Fill-121" fill="#4D4D4D"
                            points="49.5529296 45.4132579 56.4369534 92.3922048 53.368746 92.1262768 44.2995966 46.958651">
                        </polygon>
                        <polygon id="Fill-123" fill="#F8D3C0"
                            points="54.8589465 15.7070894 56.9336869 15.5465291 55.0370681 43.7951109 49.5529296 45.4132579 44.2995966 46.958651 33.8230355 50.0469284 35.835057 26.803313 36.1160376 23.5720365 36.1160376 23.5695277 36.6729812 17.1220272">
                        </polygon>
                        <polygon id="Fill-125" fill="#F8D3C0"
                            points="44.2995966 46.958651 53.368746 92.1262768 26.2767003 89.7830996 26.0333511 89.7630295 14.1017121 88.7294224 4.83687972 58.5867306 15.4539311 55.4583131 27.8647423 51.803057 27.8647423 51.8005482 29.5004506 51.3188672 33.8230355 50.0469284">
                        </polygon>
                        <path
                            d="M18.2311229,36.1384156 C20.8954208,40.5011406 25.6720904,48.2481761 27.8647423,51.8005733 L27.8647423,51.803082 L15.4539311,55.4583381 L8.46203076,41.459485 C10.8955232,40.0922135 14.4127977,38.1830509 18.2311229,36.1384156"
                            id="Fill-127" fill="#F4BB9F"></path>
                        <polygon id="Fill-129" fill="#F8D3C0"
                            points="26.0333511 89.7630295 26.2767003 89.7830996 53.368746 92.1262768 56.4369534 92.3922048 87.3347806 95.0640289 89.8360093 99.7303133 28.59479 106.820055">
                        </polygon>
                        <path
                            d="M22.2576747,34.6331625 C23.2937906,35.2603513 25.7624055,33.8127996 25.2706895,32.3828093 C25.3710398,32.3301254 25.47139,32.2774415 25.5717402,32.2222489 C29.4352229,30.1751048 33.1130578,28.2358372 35.835057,26.803338 L33.8230355,50.0469535 L29.5004506,51.3188923 L19.0891171,35.6768046 C20.0173565,35.1800711 20.9606484,34.6758114 21.906449,34.1715516 C21.9666592,34.3672345 22.0870794,34.5303036 22.2576747,34.6331625"
                            id="Fill-131" fill="#E9885E"></path>
                        <path
                            d="M18.2311229,36.1384156 C18.5146122,35.9853815 18.8006103,35.8323474 19.0891171,35.6768046 L29.5004506,51.3188923 L27.8647423,51.8005733 C25.6720904,48.2481761 20.8954208,40.5011406 18.2311229,36.1384156"
                            id="Fill-133" fill="#4D4D4D"></path>
                        <path
                            d="M16.3169428,28.3461973 L30.8125294,22.5108331 L36.1160376,23.5695277 L36.1160376,23.5720365 L35.835057,26.803313 C33.1130578,28.2358121 29.4352229,30.1750797 25.5717402,32.2222238 C25.4387761,32.2021538 25.3108296,32.1871013 25.1879006,32.1770663 C22.9425649,26.8384355 15.1980381,29.1264201 15.1980381,29.1264201 C15.1980381,29.1264201 15.1102316,29.1188939 14.9521801,29.1138763 C15.1829855,28.9859298 15.6646665,28.7200018 16.3094165,28.3512148 C16.3119253,28.3512148 16.314434,28.3487061 16.3169428,28.3461973"
                            id="Fill-135" fill="#F4BB9F"></path>
                        <path
                            d="M14.9521801,29.1139014 C15.1102316,29.1189189 15.1980381,29.1264452 15.1980381,29.1264452 C15.1980381,29.1264452 22.9425649,26.8384606 25.1879006,32.1770913 C22.4934977,31.9237071 21.6455385,33.3361362 21.906449,34.1715516 C20.9606484,34.6758114 20.0173565,35.1800711 19.0891171,35.6768046 C18.8006103,35.8323474 18.5146122,35.9853815 18.2311229,36.1384156 C14.4127977,38.1830509 10.8955232,40.0922135 8.46203076,41.459485 L6.71844601,37.9698067 C7.20263573,37.1895839 7.93268345,36.5373076 8.66273116,36.0982755 C9.9723013,38.1077883 11.7861312,36.2538183 10.9632595,35.6140858 C10.5643675,35.3030001 9.61354933,35.5237706 8.66273116,36.0982755 C8.33659301,35.5990332 8.04306867,34.8589505 7.82731573,33.8002559 C7.65922915,32.9648404 7.72445678,32.2774415 7.95526224,31.7129717 L14.2346761,29.1841466 C14.4178152,29.1916728 14.6034631,29.1966904 14.7941285,29.1991991 L14.7966372,29.1991991 C14.7966372,29.1991991 14.799146,29.1966904 14.8066723,29.1941816 C14.8116898,29.1916728 14.819216,29.1866553 14.8267423,29.1816378 C14.8342686,29.1791291 14.8417948,29.1741116 14.8493211,29.169094 C14.8744087,29.1565503 14.9095312,29.138989 14.9521801,29.1139014"
                            id="Fill-137" fill="#F4BB9F"></path>
                        <path
                            d="M6.71844601,37.9697816 C6.21167749,38.7901445 5.97836327,39.7560152 6.30450142,40.7770785 C6.48011428,41.3290047 7.0370579,41.6626691 7.5388089,41.9837897 C6.11885355,42.7916088 5.23075426,43.3360087 5.100299,43.496569 L0,34.9166268 L7.95526224,31.7129466 C7.72445678,32.2774165 7.65922915,32.9648153 7.82731573,33.8002308 C8.04306867,34.8589254 8.33659301,35.5990081 8.66273116,36.0982504 C7.93268345,36.5372825 7.20263573,37.1895588 6.71844601,37.9697816"
                            id="Fill-139" fill="#F4BB9F"></path>
                        <path
                            d="M157.850867,79.0782418 C157.798183,80.8193178 157.24124,82.2166943 156.606525,82.1966243 C155.97181,82.179063 155.500164,80.7515814 155.550339,79.0079966 C155.603023,77.2669206 156.159966,75.8695441 156.794681,75.8896141 C157.431905,75.9071754 157.903551,77.334657 157.850867,79.0782418 Z"
                            id="Stroke-141" stroke="#4D4D4D" stroke-width="0.546875"></path>
                        <path
                            d="M148.407913,83.0245135 C147.697936,83.0872323 146.985449,81.5568918 146.817363,79.6075891 C146.651785,77.6582864 147.090817,76.0301044 147.800795,75.9673855 C148.513281,75.9071754 149.223259,77.437516 149.391345,79.3868187 C149.559432,81.3361213 149.117891,82.9643033 148.407913,83.0245135 Z"
                            id="Stroke-143" stroke="#4D4D4D" stroke-width="0.546875"></path>
                        <path
                            d="M132.768334,47.7915576 C138.907258,38.2030959 146.410944,29.3597343 154.471574,26.2614219 C157.130855,25.2378498 155.460024,34.0586325 144.531887,53.2882399"
                            id="Stroke-145" stroke="#4D4D4D" stroke-width="0.546875" stroke-linecap="round"
                            stroke-linejoin="round"></path>
                        <path
                            d="M146.029614,116.629287 C148.144494,117.131038 150.244322,117.334247 152.276414,117.143582 C167.293821,115.726135 172.110631,106.942984 172.8181,104.108091 C173.525569,101.275706 171.400653,98.5838122 169.418737,97.3093647 C167.434312,96.0324084 165.592885,93.4835132 165.452395,90.0841502 C165.309396,86.6822783 163.46797,72.5153386 163.46797,72.5153386 C163.46797,72.5153386 165.025907,66.5670804 167.150822,60.7568037 C169.275738,54.9490358 175.086014,37.8067126 168.851758,41.3490747 C162.617502,44.8914368 158.65116,58.9153775 158.65116,58.9153775 C156.47607,54.2014268 149.368767,53.3158362 144.531887,53.2882399 C141.809888,53.2756962 139.807901,53.5315892 139.807901,53.5315892"
                            id="Stroke-147" stroke="#4D4D4D" stroke-width="0.546875" stroke-linecap="round"
                            stroke-linejoin="round"></path>
                        <path
                            d="M133.776854,111.06236 C137.627793,113.525957 141.855045,115.648364 146.029614,116.629287 C145.495249,118.044225 144.9082,119.725091 144.439063,121.375852 C144.32366,121.779761 144.215784,122.181162 144.117942,122.577545 C143.854523,123.641258 143.65884,124.659812 143.586086,125.547911 C143.568525,125.748612 143.553472,125.946804 143.53842,126.144995 L143.53842,126.147504 C137.279076,127.891089 132.810983,126.644237 130.086475,125.204212 L131.235485,112.15116"
                            id="Stroke-149" stroke="#4D4D4D" stroke-width="0.546875" stroke-linecap="round"
                            stroke-linejoin="round"></path>
                        <path
                            d="M144.117942,122.577545 C148.969874,124.338692 147.18615,124.903161 145.685914,125.452579 C144.94834,125.723524 144.233345,125.95433 143.53842,126.144995"
                            id="Stroke-151" stroke="#4D4D4D" stroke-width="0.546875" stroke-linecap="round"
                            stroke-linejoin="round"></path>
                        <path
                            d="M144.439063,121.375852 C147.512288,122.411968 155.058623,125.467631 157.517203,131.167523 C160.582902,138.2673 160.449938,152.825605 143.997522,165.023172 C143.709015,165.238925 143.412982,165.452169 143.11444,165.665413 C127.94149,176.455569 101.403879,179.754582 95.0291323,180.406858 C94.1234717,180.499682 93.6242295,180.539822 93.6242295,180.539822 C93.6242295,180.539822 90.2574802,170.444592 91.4140163,165.504853 C91.5795941,164.799893 91.8354871,164.2003 92.2067829,163.751233 C92.2067829,163.751233 102.99443,161.942421 115.977237,156.240021 C125.874276,151.892348 137.04827,145.284287 145.685914,135.487599"
                            id="Stroke-153" stroke="#4D4D4D" stroke-width="0.546875" stroke-linecap="round"
                            stroke-linejoin="round"></path>
                        <line x1="143.997522" y1="165.023172" x2="138.204807" y2="193.457402" id="Stroke-155"
                            stroke="#4D4D4D" stroke-width="0.546875" stroke-linecap="round" stroke-linejoin="round">
                        </line>
                        <path
                            d="M91.4140163,165.504853 C89.6879928,165.467222 86.7703107,165.555028 83.4763153,166.282567 C82.5280059,166.493303 81.5470827,166.754213 80.5561244,167.085369 C75.5361056,168.746165 70.2275799,172.090335 67.1794425,178.720975 C67.051496,178.996938 66.9335846,179.267883 66.8257081,179.531302 C64.6104774,184.824776 65.6089619,187.83779 67.7464212,189.528691"
                            id="Stroke-157" stroke="#4D4D4D" stroke-width="0.546875" stroke-linecap="round"
                            stroke-linejoin="round"></path>
                        <path
                            d="M83.2179135,189.694269 C86.8606259,188.048526 91.7501894,185.135861 95.0291323,180.406858"
                            id="Stroke-159" stroke="#4D4D4D" stroke-width="0.546875" stroke-linecap="round"
                            stroke-linejoin="round"></path>
                        <path
                            d="M133.611276,278.080218 C141.32068,285.162434 145.818878,304.336848 134.991091,303.014734 C123.375556,301.597288 116.574321,284.030985 116.290831,280.064643 C116.090131,277.254838 121.47141,272.533361 124.634951,270.014571 C125.023808,269.703485 125.377542,269.427522 125.68361,269.194208"
                            id="Stroke-161" stroke="#4D4D4D" stroke-width="0.546875" stroke-linecap="round"
                            stroke-linejoin="round"></path>
                        <path
                            d="M79.6981302,247.859755 C79.710674,247.862264 79.7257265,247.864772 79.7382703,247.867281 C79.730744,247.872299 79.720709,247.879825 79.710674,247.887351"
                            id="Stroke-163" stroke="#4D4D4D" stroke-width="0.546875" stroke-linecap="round"
                            stroke-linejoin="round"></path>
                        <path
                            d="M70.6841733,146.267719 C69.4222696,149.24812 66.5020787,152.128171 62.5482807,153.899352 C61.2462369,154.481383 59.9266317,154.902854 58.6371316,155.166273 C53.4189211,156.229986 48.6422515,154.734768 47.0441746,151.167318 C45.533904,147.79806 47.2925413,143.54572 51.0832702,140.404759 L51.0832702,140.40225"
                            id="Stroke-165" stroke="#4D4D4D" stroke-width="0.546875" stroke-linecap="round"
                            stroke-linejoin="round"></path>
                        <path
                            d="M96.1731246,150.753373 L83.9906101,148.608388 L79.9189007,147.893393 L70.6841733,146.267719 C71.51708,144.298347 71.6249565,142.283816 70.8321899,140.512635 C68.8402384,136.059595 61.8985132,134.837831 55.3280837,137.780601 C53.7300068,138.495596 52.3025251,139.391222 51.0832702,140.40225 L45.8550247,118.729115 L94.1460505,123.390382 L96.1731246,150.753373 Z"
                            id="Stroke-167" stroke="#4D4D4D" stroke-width="0.546875" stroke-linecap="round"
                            stroke-linejoin="round"></path>
                        <polyline id="Stroke-169" stroke="#4D4D4D" stroke-width="0.546875" stroke-linecap="round"
                            stroke-linejoin="round"
                            points="130.086475 125.204212 129.326322 133.859417 117.843751 139.709834 112.846311 142.25622 110.174486 143.618474 96.1731246 150.753373">
                        </polyline>
                        <polyline id="Stroke-171" stroke="#4D4D4D" stroke-width="0.546875" stroke-linecap="round"
                            stroke-linejoin="round"
                            points="58.6371316 155.166273 62.4554568 178.557906 66.8257081 179.531302"></polyline>
                        <line x1="117.843751" y1="139.709834" x2="115.977237" y2="156.240021" id="Stroke-173"
                            stroke="#4D4D4D" stroke-width="0.546875" stroke-linecap="round" stroke-linejoin="round">
                        </line>
                        <line x1="102.974359" y1="124.243359" x2="94.1460505" y2="123.390382" id="Stroke-175"
                            stroke="#4D4D4D" stroke-width="0.546875" stroke-linecap="round" stroke-linejoin="round">
                        </line>
                        <polyline id="Stroke-177" stroke="#4D4D4D" stroke-width="0.546875" stroke-linecap="round"
                            stroke-linejoin="round"
                            points="45.8550247 118.729115 30.1552356 117.213827 29.3273465 111.704601 28.59479 106.820055 26.0333511 89.7630295">
                        </polyline>
                        <polyline id="Stroke-179" stroke="#4D4D4D" stroke-width="0.546875" stroke-linecap="round"
                            stroke-linejoin="round"
                            points="53.368746 92.1262768 56.4369534 92.3922048 87.3347806 95.0640289"></polyline>
                        <polyline id="Stroke-181" stroke="#4D4D4D" stroke-width="0.546875" stroke-linecap="round"
                            stroke-linejoin="round"
                            points="133.997624 81.6622595 143.11444 79.0431192 140.056268 97.4774513 139.87062 98.6013735">
                        </polyline>
                        <polyline id="Stroke-183" stroke="#4D4D4D" stroke-width="0.546875" stroke-linecap="round"
                            stroke-linejoin="round"
                            points="91.2559647 102.382067 89.8360093 99.7303133 87.3347806 95.0640289"></polyline>
                        <polyline id="Stroke-185" stroke="#4D4D4D" stroke-width="0.546875" stroke-linecap="round"
                            stroke-linejoin="round"
                            points="139.868111 98.6013735 138.109474 109.20839 133.776854 111.06236 131.235485 112.15116 111.722388 120.500296 109.050564 121.64178 102.974359 124.243359 91.2584734 102.382067">
                        </polyline>
                        <line x1="143.11444" y1="79.0431192" x2="133.84459" y2="77.4701298" id="Stroke-187"
                            stroke="#4D4D4D" stroke-width="0.546875" stroke-linecap="round" stroke-linejoin="round">
                        </line>
                        <polyline id="Stroke-189" stroke="#4D4D4D" stroke-width="0.546875" stroke-linecap="round"
                            stroke-linejoin="round"
                            points="99.5850314 36.8132456 123.583782 38.027483 132.158707 38.4614976 132.768334 47.7915576 133.84459 77.4701298 133.997624 81.6622595 87.3372893 95.0640289 87.3347806 95.0640289 81.7954494 35.9126025">
                        </polyline>
                        <polyline id="Stroke-191" stroke="#4D4D4D" stroke-width="0.546875" stroke-linecap="round"
                            stroke-linejoin="round"
                            points="44.2995966 46.958651 53.368746 92.1262768 26.2767003 89.7830996 26.0333511 89.7630295 14.1017121 88.7294224 4.83687972 58.5867306 15.4539311 55.4583131 27.8647423 51.803057 27.8647423 51.8005482 29.5004506 51.3188672 33.8230355 50.0469284">
                        </polyline>
                        <polyline id="Stroke-193" stroke="#4D4D4D" stroke-width="0.546875" stroke-linecap="round"
                            stroke-linejoin="round"
                            points="55.0370681 43.7951109 57.5307706 43.0625544 67.6435622 40.0821534"></polyline>
                        <polyline id="Stroke-195" stroke="#4D4D4D" stroke-width="0.546875" stroke-linecap="round"
                            stroke-linejoin="round"
                            points="16.3169428 28.3461973 30.8125294 22.5108331 36.1160376 23.5695277"></polyline>
                        <path
                            d="M21.906449,34.1715265 C20.9606484,34.6757863 20.0173565,35.180046 19.0891171,35.6767795 C18.8006103,35.8323224 18.5146122,35.9853564 18.2311229,36.1383905 C14.4127977,38.1830258 10.8955232,40.0921884 8.46203076,41.4594599 C8.13338385,41.6451078 7.82480698,41.8182119 7.5388089,41.9837897 C6.11885355,42.7916088 5.23075426,43.3360087 5.100299,43.496569 L0,34.9166268 L7.95526224,31.7129466 L14.2346761,29.1841215 L14.4353765,29.1038413 L14.5683405,29.0511575 L15.5768601,28.6447392 L16.3094165,28.3512148"
                            id="Stroke-197" stroke="#4D4D4D" stroke-width="0.546875" stroke-linecap="round"
                            stroke-linejoin="round"></path>
                        <path
                            d="M25.2706895,32.3827842 C25.3710398,32.3301003 25.47139,32.2774165 25.5717402,32.2222238 C29.4352229,30.1750797 33.1130578,28.2358121 35.835057,26.803313"
                            id="Stroke-199" stroke="#4D4D4D" stroke-width="0.546875" stroke-linecap="round"
                            stroke-linejoin="round"></path>
                        <polyline id="Stroke-201" stroke="#4D4D4D" stroke-width="0.546875" stroke-linecap="round"
                            stroke-linejoin="round"
                            points="15.4539311 55.4583131 8.46203076 41.4594599 6.71844601 37.9697816 6.63816584 37.8067126">
                        </polyline>
                        <polygon id="Stroke-203" stroke="#4D4D4D" stroke-width="0.546875" stroke-linecap="round"
                            stroke-linejoin="round"
                            points="56.9336869 15.5465291 55.0370681 43.7951109 49.5529296 45.4132579 44.2995966 46.958651 33.8230355 50.0469284 35.835057 26.803313 36.1160376 23.5720365 36.1160376 23.5695277 36.6729812 17.1220272 54.8589465 15.7070894">
                        </polygon>
                        <polyline id="Stroke-205" stroke="#4D4D4D" stroke-width="0.546875" stroke-linecap="round"
                            stroke-linejoin="round"
                            points="69.4699359 14.5731321 60.568873 15.2655485 59.8438428 15.3207411 56.9336869 15.5465291">
                        </polyline>
                        <polygon id="Stroke-207" stroke="#4D4D4D" stroke-width="0.546875" stroke-linecap="round"
                            stroke-linejoin="round"
                            points="93.7571935 20.6944944 100.959829 22.5108331 100.410412 28.2182508 100.410412 28.2207596 100.217238 30.2377986 99.5850314 36.8132456 92.5479735 36.4570024 81.7954494 35.9126025 67.6435622 40.0821534 67.8267013 37.515697 69.4699359 14.5731321">
                        </polygon>
                        <polyline id="Stroke-209" stroke="#4D4D4D" stroke-width="0.546875" stroke-linecap="round"
                            stroke-linejoin="round"
                            points="123.583782 38.027483 125.540611 30.8725136 126.549131 27.1896612 128.5461 19.8866753 94.1460505 15.6343355 93.7571935 20.6944944">
                        </polyline>
                        <line x1="56.4369534" y1="92.3922048" x2="49.5529296" y2="45.4132579" id="Stroke-211"
                            stroke="#4D4D4D" stroke-width="0.546875" stroke-linecap="round" stroke-linejoin="round">
                        </line>
                        <line x1="110.174486" y1="143.618474" x2="109.050564" y2="121.64178" id="Stroke-213"
                            stroke="#4D4D4D" stroke-width="0.546875" stroke-linecap="round" stroke-linejoin="round">
                        </line>
                        <line x1="112.846311" y1="142.25622" x2="111.722388" y2="120.500296" id="Stroke-215"
                            stroke="#4D4D4D" stroke-width="0.546875" stroke-linecap="round" stroke-linejoin="round">
                        </line>
                        <line x1="80.5561244" y1="167.085369" x2="79.9189007" y2="147.893393" id="Stroke-217"
                            stroke="#4D4D4D" stroke-width="0.546875" stroke-linecap="round" stroke-linejoin="round">
                        </line>
                        <line x1="83.9906101" y1="148.608388" x2="83.4763153" y2="166.282567" id="Stroke-219"
                            stroke="#4D4D4D" stroke-width="0.546875" stroke-linecap="round" stroke-linejoin="round">
                        </line>
                        <polyline id="Stroke-221" stroke="#4D4D4D" stroke-width="0.546875" stroke-linecap="round"
                            stroke-linejoin="round"
                            points="29.3273465 111.704601 91.2559647 102.382067 91.2584734 102.382067 139.868111 98.6013735 139.87062 98.6013735">
                        </polyline>
                        <polyline id="Stroke-223" stroke="#4D4D4D" stroke-width="0.546875" stroke-linecap="round"
                            stroke-linejoin="round"
                            points="28.59479 106.820055 89.8360093 99.7303133 140.056268 97.4774513"></polyline>
                        <polyline id="Stroke-225" stroke="#4D4D4D" stroke-width="0.546875" stroke-linecap="round"
                            stroke-linejoin="round"
                            points="60.568873 15.2655485 60.5437855 15.4888277 57.5307706 43.0625544"></polyline>
                        <line x1="29.5004506" y1="51.3188672" x2="19.0891171" y2="35.6767795" id="Stroke-227"
                            stroke="#4D4D4D" stroke-width="0.546875" stroke-linecap="round" stroke-linejoin="round">
                        </line>
                        <path
                            d="M18.2311229,36.1384156 C20.8954208,40.5011406 25.6720904,48.2481761 27.8647423,51.8005733"
                            id="Stroke-229" stroke="#4D4D4D" stroke-width="0.546875" stroke-linecap="round"
                            stroke-linejoin="round"></path>
                        <line x1="126.549131" y1="27.1896612" x2="100.410412" y2="28.2182508" id="Stroke-231"
                            stroke="#4D4D4D" stroke-width="0.546875" stroke-linecap="round" stroke-linejoin="round">
                        </line>
                        <line x1="125.540611" y1="30.8725136" x2="100.217238" y2="30.2377986" id="Stroke-233"
                            stroke="#4D4D4D" stroke-width="0.546875" stroke-linecap="round" stroke-linejoin="round">
                        </line>
                        <path
                            d="M57.6888222,15.0698656 C57.086721,14.9695154 41.3543181,12.2851475 45.2228184,4.16430744 C46.6678613,1.9290067 55.3406275,5.08502054 57.7063835,15.0723744"
                            id="Stroke-235" stroke="#4D4D4D" stroke-width="2.00700403" stroke-linecap="round"
                            stroke-linejoin="round"></path>
                        <path
                            d="M57.7063835,15.0723744 C57.7063835,15.0723744 63.3586086,1.01080235 69.7960741,0.0900892532 C76.2360483,-0.830623848 72.2947941,5.60935035 72.2947941,5.60935035 C72.2947941,5.60935035 66.775533,12.8370736 57.7063835,15.0723744 Z"
                            id="Stroke-237" stroke="#4D4D4D" stroke-width="2.00700403" stroke-linecap="round"
                            stroke-linejoin="round"></path>
                        <path
                            d="M68.3510311,37.8067126 C68.1628745,37.7239237 67.9897704,37.628591 67.8267013,37.515697 C64.316953,35.1223447 66.0956604,26.1234403 65.5964181,20.7220907 C65.2953675,17.4406391 62.6812448,16.0658414 60.5437855,15.4888277 C60.302945,15.4236001 60.0696308,15.3684075 59.8438428,15.3207411 C58.6296054,15.0723744 57.7063835,15.0723744 57.7063835,15.0723744 C57.7063835,15.0723744 57.701366,15.0723744 57.6888222,15.0698656 C57.5357882,15.0573218 56.3441295,14.9820592 54.8589465,15.7070894 C53.0325729,16.5976974 50.7621495,18.7000342 49.4274919,23.6146853 C46.9312806,32.8117813 50.0847857,34.7836627 50.0847857,34.7836627"
                            id="Stroke-239" stroke="#4D4D4D" stroke-width="2.00700403" stroke-linecap="round"
                            stroke-linejoin="round"></path>
                        <path
                            d="M182.775349,163.560568 L182.710121,163.560568 C181.56362,163.585655 180.826046,163.580638 180.75831,163.580638"
                            id="Stroke-241" stroke="#4D4D4D" stroke-width="2.00700403" stroke-linecap="round"
                            stroke-linejoin="round"></path>
                        <path
                            d="M180.760818,163.573112 C180.773362,163.558059 180.810993,163.520428 180.868695,163.460218 C181.122079,163.19429 181.791917,162.511908 182.765314,161.626318 C185.901257,158.771354 192.195724,153.804019 197.935755,153.881791 C205.258811,153.979632 202.25834,159.503911 197.594565,161.626318 C197.132954,161.837053 196.653782,162.015175 196.167083,162.150648 C192.278513,163.229412 185.989064,163.49534 182.780366,163.560568"
                            id="Stroke-243" stroke="#4D4D4D" stroke-width="2.00700403" stroke-linecap="round"
                            stroke-linejoin="round"></path>
                        <path
                            d="M180.856151,163.55555 C180.826046,163.57562 180.775871,163.580638 180.75831,163.580638 L180.753292,163.580638"
                            id="Stroke-245" stroke="#4D4D4D" stroke-width="2.00700403" stroke-linecap="round"
                            stroke-linejoin="round"></path>
                        <path
                            d="M180.753292,163.580638 C180.753292,163.580638 180.760818,163.500358 180.765836,163.352341 C180.783397,163.048782 180.800958,162.456716 180.765836,161.673984 C180.765836,161.658932 180.765836,161.64137 180.763327,161.626318 C180.597749,158.023745 179.330828,150.535112 171.819615,148.753896 C161.832262,146.385631 169.085072,158.630864 175.635432,161.101988 C176.137183,161.290145 176.591267,161.465757 177.005212,161.626318 C178.031293,162.027719 178.793954,162.348839 179.355916,162.602223 C180.19384,162.978537 180.592732,163.209342 180.765836,163.352341 C180.813502,163.389973 180.843607,163.422586 180.861169,163.447674 C180.866186,163.452691 180.868695,163.457709 180.868695,163.460218 C180.8988,163.507884 180.883747,163.537989 180.85866,163.55555"
                            id="Stroke-247" stroke="#4D4D4D" stroke-width="2.00700403" stroke-linecap="round"
                            stroke-linejoin="round"></path>
                        <path
                            d="M182.205861,141.174947 C182.205861,141.174947 180.261576,142.717831 182.444193,144.9155 C184.624301,147.11317 187.599685,149.378576 187.175705,151.355475 C186.796883,153.134182 186.450675,156.051864 182.283633,161.626318 C181.852127,162.203331 181.380481,162.81045 180.861169,163.447674 C180.828555,163.487814 180.793432,163.530463 180.760818,163.573112 L180.75831,163.578129"
                            id="Stroke-249" stroke="#4D4D4D" stroke-width="2.00700403" stroke-linecap="round"
                            stroke-linejoin="round"></path>
                        <path
                            d="M193.507803,182.509195 C193.618188,182.722439 193.711012,182.948227 193.786275,183.181541 C194.190184,184.410831 194.140009,185.880961 193.786275,187.19304 C193.440066,188.477523 192.800334,189.608971 192.007567,190.206055 C189.26048,192.270761 184.897755,192.719828 185.063333,193.562769 C185.228911,194.405711 187.945893,196.254664 187.283581,197.727303"
                            id="Stroke-251" stroke="#4D4D4D" stroke-width="2.00700403" stroke-linecap="round"
                            stroke-linejoin="round"></path>
                        <path
                            d="M193.507803,182.509195 C192.68744,183.301961 191.483237,183.926641 189.809898,184.315498 C186.187256,185.153423 182.34886,181.4505 188.997061,180.567418 C191.387905,180.248806 192.805351,181.139414 193.507803,182.509195 Z"
                            id="Stroke-253" stroke="#4D4D4D" stroke-width="2.00700403" stroke-linecap="round"
                            stroke-linejoin="round"></path>
                        <path
                            d="M180.753292,163.580638 C180.753292,163.580638 180.755801,163.580638 180.75831,163.578129 C180.768345,163.57562 180.800958,163.568094 180.856151,163.55555 L180.85866,163.55555 C181.104518,163.505375 181.769338,163.407534 182.727682,163.553042 C182.742735,163.55555 182.757787,163.558059 182.775349,163.560568 L182.780366,163.560568 C183.088943,163.610743 183.425116,163.686006 183.788886,163.796391 C184.619284,164.044758 185.582646,164.476263 186.633814,165.201294 C187.228389,165.610221 187.853069,166.116989 188.497819,166.736652 C189.05978,167.278543 189.671916,167.940854 190.286561,168.685954 C191.576061,170.2464 192.880614,172.173124 193.786275,174.142497 C195.143511,177.095301 195.610139,180.148456 193.786275,182.21567 C193.700977,182.316021 193.608153,182.413862 193.507803,182.509195"
                            id="Stroke-255" stroke="#4D4D4D" stroke-width="2.00700403" stroke-linecap="round"
                            stroke-linejoin="round"></path>
                        <path d="M14.8493211,29.169069 C14.8718999,29.1540164 14.8969874,29.1364551 14.93211,29.1138763"
                            id="Stroke-257" stroke="#4D4D4D" stroke-width="2.00700403" stroke-linecap="round"
                            stroke-linejoin="round"></path>
                        <path
                            d="M14.7941285,29.199174 C14.7815847,29.1916478 14.7289009,29.1615427 14.6486207,29.1063501 C14.6235331,29.0912976 14.5984456,29.0712275 14.5683405,29.0511575 C13.9988531,28.6271779 12.5964591,27.2523801 13.1032276,24.2167865 C13.1032276,24.2167865 15.0801266,17.1571498 10.6045076,16.1084902 C6.12888857,15.0598306 3.09078621,20.9905275 5.69236519,24.5629947 C7.97533228,27.6989385 10.200598,28.8655096 13.3992607,29.1339464 C13.6702062,29.1565252 13.948678,29.1740865 14.2346761,29.1841215 C14.4178152,29.1916478 14.6034631,29.1966653 14.7941285,29.199174 L14.7966372,29.199174"
                            id="Stroke-259" stroke="#4D4D4D" stroke-width="2.00700403" stroke-linecap="round"
                            stroke-linejoin="round"></path>
                        <path
                            d="M14.9371275,29.1139014 C15.0726003,29.0235863 15.2983883,28.8680434 15.5768601,28.6447642 C16.5828708,27.8444714 18.2838068,26.158588 18.9737144,23.5294127 C19.9822339,19.6834912 22.6866719,14.0488274 26.4272256,14.0638498 C30.1677794,14.0789325 29.8316062,18.1882732 27.6565156,20.7672734 C25.993211,22.7391549 19.3475189,26.6302339 16.3169428,28.3462224 C16.314434,28.3487311 16.3119253,28.3512399 16.3094165,28.3512399 C15.6646665,28.7200269 15.1829855,28.9859549 14.9521801,29.1139014 C14.9095312,29.138989 14.8744087,29.1565503 14.8493211,29.169094 C14.8417948,29.1741116 14.8342686,29.1791291 14.8267423,29.1816378 C14.819216,29.1866553 14.8116898,29.1916728 14.8066723,29.1941816 C14.799146,29.1966904 14.7966372,29.1991991 14.7966372,29.1991991"
                            id="Stroke-261" stroke="#4D4D4D" stroke-width="2.00700403" stroke-linecap="round"
                            stroke-linejoin="round"></path>
                        <path
                            d="M8.66273116,36.0982504 C7.93268345,36.5372825 7.20263573,37.1895588 6.71844601,37.9697816 C6.21167749,38.7901445 5.97836327,39.7560152 6.30450142,40.7770785 C6.48011428,41.3290047 7.0370579,41.6626691 7.5388089,41.9837897 C7.9075959,42.2221214 8.24627783,42.4529269 8.37924184,42.758995 C8.69283622,43.4790077 8.01045485,46.1232355 8.27136538,46.4117424"
                            id="Stroke-263" stroke="#4D4D4D" stroke-width="2.00700403" stroke-linecap="round"
                            stroke-linejoin="round"></path>
                        <path
                            d="M25.2706895,32.3827842 C25.7624055,33.8127745 23.2937906,35.2603262 22.2576747,34.6331374 C22.0870794,34.5302785 21.9666592,34.3672094 21.906449,34.1715265 C21.6455385,33.3361111 22.4934977,31.923682 25.1879006,32.1770663 C25.2104794,32.2247326 25.2280407,32.2723989 25.2481108,32.3200653 C25.255637,32.3401353 25.265672,32.3627141 25.2706895,32.3827842 Z"
                            id="Stroke-265" stroke="#4D4D4D" stroke-width="2.00700403" stroke-linecap="round"
                            stroke-linejoin="round"></path>
                        <path
                            d="M8.66273116,36.0982504 C9.61354933,35.5237455 10.5643675,35.302975 10.9632595,35.6140607 C11.7861312,36.2537932 9.9723013,38.1077632 8.66273116,36.0982504 Z"
                            id="Stroke-267" stroke="#4D4D4D" stroke-width="2.00700403" stroke-linecap="round"
                            stroke-linejoin="round"></path>
                        <path
                            d="M30.6143378,44.2617393 C30.6143378,44.2617393 31.0859837,44.8512967 31.954013,41.3691447 C32.8195335,37.8869927 26.5376108,39.3521057 26.5376108,39.3521057 C28.2535993,37.7389762 32.0618895,34.0285275 27.0669582,32.5558883 C26.5200496,32.3953279 26.0233161,32.2874515 25.5717402,32.2222238 C25.4387761,32.2021538 25.3108296,32.1871013 25.1879006,32.1770663 C22.9425649,26.8384355 15.1980381,29.1264201 15.1980381,29.1264201 C15.1980381,29.1264201 15.1102316,29.1188939 14.9521801,29.1138763 L14.9371275,29.1138763 L14.9346188,29.1138763 L14.93211,29.1138763 C14.8518299,29.1113676 14.7590059,29.1088588 14.6486207,29.1063501 C14.5833931,29.1038413 14.5106392,29.1038413 14.4353765,29.1038413 C14.1468697,29.1013326 13.7931352,29.1088588 13.3992607,29.1339464 C11.5252207,29.2493491 8.7555551,29.7586264 7.95526224,31.7129466 C7.72445678,32.2774165 7.65922915,32.9648153 7.82731573,33.8002308 C8.04306867,34.8589254 8.33659301,35.5990081 8.66273116,36.0982504"
                            id="Stroke-269" stroke="#4D4D4D" stroke-width="2.00700403" stroke-linecap="round"
                            stroke-linejoin="round"></path>
                        <polyline id="Stroke-271" stroke="#4D4D4D" stroke-width="0.546875" stroke-linecap="round"
                            stroke-linejoin="round"
                            points="125.989678 270.079798 124.634951 270.014571 107.50768 269.194208 104.391806 210.361393 115.580854 210.720145">
                        </polyline>
                        <line x1="149.306048" y1="271.196194" x2="143.606156" y2="270.92274" id="Stroke-273"
                            stroke="#4D4D4D" stroke-width="0.546875" stroke-linecap="round" stroke-linejoin="round">
                        </line>
                        <path
                            d="M151.104825,211.854102 C154.566907,217.586608 158.044041,224.141985 161.059565,231.329568 C161.310441,231.92916 161.53372,232.526244 161.729403,233.123328"
                            id="Stroke-275" stroke="#4D4D4D" stroke-width="0.546875" stroke-linecap="round"
                            stroke-linejoin="round"></path>
                        <path
                            d="M148.899629,266.281543 C147.151027,267.949865 145.359776,269.502785 143.606156,270.92274 C139.843024,273.970877 136.250486,276.409387 133.611276,278.080218 C133.611276,278.080218 128.04184,275.303026 125.989678,270.079798 C125.876784,269.791291 125.773925,269.497767 125.68361,269.194208 C126.411149,268.634755 126.870251,268.306108 126.870251,268.306108 C126.870251,268.306108 136.408538,265.330725 137.075867,238.978762 C137.464724,223.642742 125.58326,215.14308 115.583362,210.720145 L115.580854,210.720145 C113.681726,209.877203 111.852844,209.184787 110.18703,208.617808 L110.184521,208.617808 C105.550851,207.047328 102.194137,206.465297 102.194137,206.465297 C56.083219,197.504024 74.5351123,237.907524 79.6981302,247.859755 C79.7031477,247.86979 79.7081652,247.879825 79.710674,247.887351 C76.2260132,250.406141 67.0715661,252.576214 67.0715661,252.576214 C61.9336357,244.4629 47.1972086,219.761698 50.132452,207.669499 C51.843423,200.619897 60.6165394,193.931556 67.7464212,189.528691 C71.384116,192.41376 78.3233324,191.472976 78.3233324,191.472976 C78.3233324,191.472976 80.3955641,190.963699 83.2154048,189.694269 L83.2179135,189.694269 C104.860943,196.227067 138.109474,193.929048 138.109474,193.929048 L138.204807,193.457402 C140.287073,196.028876 142.820916,199.332906 145.537898,203.259108"
                            id="Stroke-277" stroke="#4D4D4D" stroke-width="0.546875" stroke-linecap="round"
                            stroke-linejoin="round"></path>
                        <path
                            d="M166.443353,212.345818 L163.909511,212.265538 L151.104825,211.854102 C149.218241,208.73572 147.336675,205.858178 145.537898,203.259108 L162.361609,202.546621"
                            id="Stroke-279" stroke="#4D4D4D" stroke-width="0.546875" stroke-linecap="round"
                            stroke-linejoin="round"></path>
                        <line x1="110.184521" y1="208.617808" x2="104.391806" y2="210.361393" id="Stroke-281"
                            stroke="#4D4D4D" stroke-width="0.546875" stroke-linecap="round" stroke-linejoin="round">
                        </line>
                        <polyline id="Stroke-283" stroke="#4D4D4D" stroke-width="0.546875" stroke-linecap="round"
                            stroke-linejoin="round"
                            points="165.206537 233.030504 165.755954 223.855987 165.755954 223.850969 166.443353 212.345818 176.337883 206.648436 178.119099 205.622355 185.143613 201.578242">
                        </polyline>
                        <polyline id="Stroke-285" stroke="#4D4D4D" stroke-width="0.546875" stroke-linecap="round"
                            stroke-linejoin="round"
                            points="175.703168 167.110456 190.286561 168.685954 193.786275 169.064776 193.786275 174.142497 193.786275 182.21567 193.786275 183.181541 193.786275 187.19304 193.786275 232.262825">
                        </polyline>
                        <polyline id="Stroke-287" stroke="#4D4D4D" stroke-width="0.546875" stroke-linecap="round"
                            stroke-linejoin="round"
                            points="182.251019 232.571402 185.143613 201.578242 177.883276 201.886819 175.9415 201.969608 162.361609 202.546621 156.383246 165.023172 172.956081 166.814423">
                        </polyline>
                        <line x1="204.822288" y1="231.966792" x2="208.660683" y2="161.626318" id="Stroke-289"
                            stroke="#4D4D4D" stroke-width="0.546875" stroke-linecap="round" stroke-linejoin="round">
                        </line>
                        <line x1="161.094688" y1="163.432621" x2="156.383246" y2="165.023172" id="Stroke-291"
                            stroke="#4D4D4D" stroke-width="0.546875" stroke-linecap="round" stroke-linejoin="round">
                        </line>
                        <polygon id="Stroke-293" stroke="#4D4D4D" stroke-width="0.546875" stroke-linecap="round"
                            stroke-linejoin="round"
                            points="202.539321 164.686999 199.706936 166.104445 186.633814 165.201294 180.33433 164.76477 175.703168 167.110456 172.956081 166.814423 176.478374 164.496333 161.094688 163.432621 162.953675 162.805433 177.963556 163.517919 179.355916 162.602223 180.765836 161.673984 180.83859 161.626318 182.283633 161.626318 182.765314 161.626318 186.528446 161.626318 182.727682 163.553042 182.710121 163.560568 182.378965 163.728654 183.788886 163.796391">
                        </polygon>
                        <polyline id="Stroke-295" stroke="#4D4D4D" stroke-width="0.546875" stroke-linecap="round"
                            stroke-linejoin="round"
                            points="202.539321 164.686999 208.660683 161.626318 197.594565 161.626318 186.528446 161.626318">
                        </polyline>
                        <polyline id="Stroke-297" stroke="#4D4D4D" stroke-width="0.546875" stroke-linecap="round"
                            stroke-linejoin="round"
                            points="162.953675 162.805433 166.443353 161.626318 177.005212 161.626318 180.763327 161.626318 180.83859 161.626318">
                        </polyline>
                        <line x1="199.706936" y1="166.104445" x2="193.786275" y2="169.064776" id="Stroke-299"
                            stroke="#4D4D4D" stroke-width="0.546875" stroke-linecap="round" stroke-linejoin="round">
                        </line>
                        <path
                            d="M162.848307,241.485008 C163.001341,238.7605 162.670186,235.963238 161.729403,233.123328 L165.206537,233.030504 L167.208524,232.975311 L182.251019,232.571402 L193.786275,232.262825 L198.497717,232.134878 L200.421932,232.084703 L204.822288,231.966792 L236.497829,231.116324 L245,243.441837"
                            id="Stroke-301" stroke="#4D4D4D" stroke-width="0.546875" stroke-linecap="round"
                            stroke-linejoin="round"></path>
                        <path
                            d="M245,243.441837 L242.804839,259.302187 L241.869074,266.073316 L239.473213,283.393761 L150.434987,284.881453 L149.306048,271.196194 L148.899629,266.281543 C150.111358,265.125007 151.303017,263.913278 152.4445,262.651375 C153.846894,261.10849 155.179043,259.487834 156.390772,257.801951 C159.96073,252.852177 162.517152,247.330408 162.848307,241.485008 L164.69726,241.530166 L168.58583,241.62299 L181.377972,241.926549 L193.786275,242.222582 L198.312069,242.330459 L200.098302,242.373108 L204.250292,242.470949 L245,243.441837 Z"
                            id="Stroke-303" stroke="#4D4D4D" stroke-width="0.546875" stroke-linecap="round"
                            stroke-linejoin="round"></path>
                        <line x1="199.706936" y1="166.104445" x2="198.497717" y2="232.134878" id="Stroke-305"
                            stroke="#4D4D4D" stroke-width="0.546875" stroke-linecap="round" stroke-linejoin="round">
                        </line>
                        <line x1="202.539321" y1="164.686999" x2="200.421932" y2="232.084703" id="Stroke-307"
                            stroke="#4D4D4D" stroke-width="0.546875" stroke-linecap="round" stroke-linejoin="round">
                        </line>
                        <line x1="177.883276" y1="201.886819" x2="175.703168" y2="167.110456" id="Stroke-309"
                            stroke="#4D4D4D" stroke-width="0.546875" stroke-linecap="round" stroke-linejoin="round">
                        </line>
                        <line x1="175.9415" y1="201.969608" x2="172.956081" y2="166.814423" id="Stroke-311"
                            stroke="#4D4D4D" stroke-width="0.546875" stroke-linecap="round" stroke-linejoin="round">
                        </line>
                        <line x1="241.869074" y1="266.073316" x2="152.4445" y2="262.651375" id="Stroke-313"
                            stroke="#4D4D4D" stroke-width="0.546875" stroke-linecap="round" stroke-linejoin="round">
                        </line>
                        <line x1="242.804839" y1="259.302187" x2="156.390772" y2="257.801951" id="Stroke-315"
                            stroke="#4D4D4D" stroke-width="0.546875" stroke-linecap="round" stroke-linejoin="round">
                        </line>
                        <path
                            d="M67.0715661,252.576214 C67.0715661,252.576214 44.7486637,265.757213 51.6903889,271.213756 C58.6321141,276.670298 81.0227529,265.754705 84.2038543,257.395533 C87.2494829,249.392604 79.710674,247.887351 79.710674,247.887351"
                            id="Stroke-317" stroke="#4D4D4D" stroke-width="0.546875" stroke-linecap="round"
                            stroke-linejoin="round"></path>
                        <path
                            d="M23.5973499,113.312713 C23.5973499,113.312713 21.6154335,122.557475 29.5004506,123.81687"
                            id="Stroke-319" stroke="#4D4D4D" stroke-width="1.00350202" stroke-linecap="round"
                            stroke-linejoin="round"></path>
                        <path
                            d="M56.0054476,178.557906 C56.0054476,178.557906 57.1820537,184.177517 61.8684081,182.935683"
                            id="Stroke-321" stroke="#4D4D4D" stroke-width="1.00350202" stroke-linecap="round"
                            stroke-linejoin="round"></path>
                        <path d="M54.4073706,182.47909 C54.4073706,182.47909 55.2478036,186.493098 58.591974,185.607507"
                            id="Stroke-323" stroke="#4D4D4D" stroke-width="1.00350202" stroke-linecap="round"
                            stroke-linejoin="round"></path>
                        <path
                            d="M19.1944848,116.388447 C19.1944848,116.388447 17.2125684,125.635718 25.0950767,126.895113"
                            id="Stroke-325" stroke="#4D4D4D" stroke-width="1.00350202" stroke-linecap="round"
                            stroke-linejoin="round"></path>
                        <path
                            d="M133.054332,19.3974681 C133.054332,19.3974681 132.891263,12.0869559 126.734779,12.5485668"
                            id="Stroke-327" stroke="#4D4D4D" stroke-width="1.00350202" stroke-linecap="round"
                            stroke-linejoin="round"></path>
                        <path
                            d="M135.816472,16.2941381 C135.816472,16.2941381 135.655911,8.98362588 129.496918,9.44523681"
                            id="Stroke-329" stroke="#4D4D4D" stroke-width="1.00350202" stroke-linecap="round"
                            stroke-linejoin="round"></path>
                    </g>
                </g>
            </g>
        </g>
    </g>
</svg>