<?xml version="1.0" encoding="UTF-8"?>
<svg width="48px" height="48px" viewBox="0 0 48 48" version="1.1" xmlns="http://www.w3.org/2000/svg"
    xmlns:xlink="http://www.w3.org/1999/xlink">
    <defs>
        <linearGradient x1="50%" y1="0%" x2="50%" y2="100%" id="linearGradient-1">
            <stop stop-color="#FA8F66" offset="0.0327797203%"></stop>
            <stop stop-color="#FAAF66" offset="99.9480988%"></stop>
        </linearGradient>
    </defs>
    <g id="页面-1" stroke="none" stroke-width="1" fill="none" fill-rule="evenodd">
        <g id="夜间正式" transform="translate(-769.000000, -932.000000)">
            <g id="编组-2备份-4" transform="translate(769.000000, 932.000000)">
                <rect id="矩形" x="0" y="0" width="48" height="48"></rect>
                <g id="编组-2备份" transform="translate(1.965687, 3.000000)" stroke="#333333" stroke-width="0.71">
                    <line x1="7.5" y1="21" x2="30" y2="21" id="路径-36" stroke-linecap="round"></line>
                    <path d="M9,37.5 L16.5,37.5 M21,37.5 L36,37.5 L36,25.5" id="形状" stroke-linecap="round"
                        stroke-linejoin="round"></path>
                    <path d="M9,15.75 L27,15.75 M31.5,15.75 L36,15.75 L36,3.75" id="形状" stroke-linecap="round"
                        stroke-linejoin="round"
                        transform="translate(22.500000, 10.125000) scale(1, -1) translate(-22.500000, -10.125000) ">
                    </path>
                    <rect id="矩形" fill="#FA8F66" x="0.355" y="0.355" width="8.29" height="11.29" rx="1.5"></rect>
                    <rect id="矩形备份" fill="#ffffff" x="0.355" y="15.355" width="8.29" height="11.29" rx="1.5">
                    </rect>
                    <g id="编组" transform="translate(22.500000, 13.385496)">
                        <rect id="矩形备份-5" fill="#ffffff"
                            transform="translate(6.897114, 8.485281) rotate(-30.000000) translate(-6.897114, -8.485281) "
                            x="2.75211432" y="2.84028137" width="8.29" height="11.29" rx="1.5"></rect>
                        <rect id="矩形备份-5" fill="#ffffff" x="7.63451001" y="0.355" width="8.29" height="11.29" rx="1.5">
                        </rect>
                        <rect id="矩形备份-3" fill="url(#linearGradient-1)"
                            transform="translate(15.218850, 10.342167) rotate(-315.000000) translate(-15.218850, -10.342167) "
                            x="11.0738498" y="4.69716712" width="8.29" height="11.29" rx="1.5"></rect>
                    </g>
                    <rect id="矩形备份-2" fill="#FAAF66" x="0.355" y="30.355" width="8.29" height="11.29" rx="1.5"></rect>
                </g>
            </g>
        </g>
    </g>
</svg>