<?xml version="1.0" encoding="UTF-8"?>
<svg width="48px" height="48px" viewBox="0 0 48 48" version="1.1" xmlns="http://www.w3.org/2000/svg"
    xmlns:xlink="http://www.w3.org/1999/xlink">
    <defs>
        <linearGradient x1="50%" y1="3.89960027%" x2="50%" y2="100%" id="linearGradient-1">
            <stop stop-color="#FAAF66" offset="0.0519012238%"></stop>
            <stop stop-color="#FA8F66" offset="99.9672203%"></stop>
        </linearGradient>
        <linearGradient x1="50%" y1="3.89960027%" x2="50%" y2="100%" id="linearGradient-2">
            <stop stop-color="#FAAF66" offset="0.0519012238%"></stop>
            <stop stop-color="#FA8F66" offset="99.9672203%"></stop>
        </linearGradient>
    </defs>
    <g id="页面-1" stroke="none" stroke-width="1" fill="none" fill-rule="evenodd">
        <g id="MCT首页页面" transform="translate(-537.000000, -932.000000)">
            <g id="编组-7" transform="translate(537.000000, 932.000000)">
                <rect id="矩形" x="0" y="0" width="48" height="48"></rect>
                <path
                    d="M10.667,5.645 L10.6666667,5.66666667 L10.6666667,8.2688172 C10.6666667,9.74157654 11.860574,10.9354839 13.3333333,10.9354839 C14.8060927,10.9354839 16,9.74157654 16,8.2688172 L16,8.2688172 L16,5.66666667 C16,5.65954369 15.9999721,5.65242724 15.9999163,5.64531742 L21.334,5.645 L21.3333333,5.66666667 L21.3333333,8.2688172 C21.3333333,9.74157654 22.5272407,10.9354839 24,10.9354839 C25.4727593,10.9354839 26.6666667,9.74157654 26.6666667,8.2688172 L26.6666667,8.2688172 L26.6666667,5.66666667 C26.6666667,5.65954369 26.6666387,5.65242724 26.666583,5.64531742 L32.001,5.645 L32,5.66666667 L32,8.2688172 C32,9.74157654 33.1939073,10.9354839 34.6666667,10.9354839 C36.0827814,10.9354839 37.2410818,9.83164943 37.328087,8.4374614 L37.3333333,8.2688172 L37.3332497,5.64531742 L37.3332497,5.64531742 L40,5.64516129 C42.209139,5.64516129 44,7.43602229 44,9.64516129 L44,18 L4,18 L4,9.64516129 C4,7.43602229 5.790861,5.64516129 8,5.64516129 L10.667,5.645 Z"
                    id="形状结合" stroke="#333333" stroke-width="0.71" fill="url(#linearGradient-1)"></path>
                <path
                    d="M8,18 L40,18 C42.209139,18 44,19.790861 44,22 L44,44 L44,44 L4,44 L4,22 C4,19.790861 5.790861,18 8,18 Z"
                    id="矩形备份-3" stroke="#333333" stroke-width="0.71"
                    transform="translate(24.000000, 31.000000) scale(1, -1) translate(-24.000000, -31.000000) "></path>
                <rect id="矩形备份-12" stroke="#333333" stroke-width="0.71" x="10.6883333" y="2.72467997" width="5.29"
                    height="8.21741935" rx="2.645"></rect>
                <rect id="矩形备份-13" stroke="#333333" stroke-width="0.71" x="21.355" y="2.72467997" width="5.29"
                    height="8.21741935" rx="2.645"></rect>
                <rect id="矩形备份-14" stroke="#333333" stroke-width="0.71" x="32.0216667" y="2.72467997" width="5.29"
                    height="8.21741935" rx="2.645"></rect>
                <ellipse id="椭圆形" stroke="#333333" stroke-width="0.71" cx="13.3333333" cy="25.483871" rx="2.31166667"
                    ry="2.29016129"></ellipse>
                <ellipse id="椭圆形备份-3" stroke="#333333" stroke-width="0.71" cx="13.3333333" cy="34.7419355"
                    rx="2.31166667" ry="2.29016129"></ellipse>
                <ellipse id="椭圆形备份" stroke="#333333" stroke-width="0.71" fill="url(#linearGradient-2)" cx="24"
                    cy="25.483871" rx="2.31166667" ry="2.29016129"></ellipse>
                <ellipse id="椭圆形备份-4" stroke="#333333" stroke-width="0.71" cx="24" cy="34.7419355" rx="2.31166667"
                    ry="2.29016129"></ellipse>
                <ellipse id="椭圆形备份-2" stroke="#333333" stroke-width="0.71" cx="34.6666667" cy="25.483871"
                    rx="2.31166667" ry="2.29016129"></ellipse>
                <ellipse id="椭圆形备份-5" stroke="#333333" stroke-width="0.71" cx="34.6666667" cy="34.7419355"
                    rx="2.31166667" ry="2.29016129"></ellipse>
            </g>
        </g>
    </g>
</svg>