<?xml version="1.0" encoding="UTF-8"?>
<svg width="48px" height="48px" viewBox="0 0 48 48" version="1.1" xmlns="http://www.w3.org/2000/svg"
    xmlns:xlink="http://www.w3.org/1999/xlink">
    <defs>
        <linearGradient x1="50%" y1="0%" x2="50%" y2="100%" id="linearGradient-1">
            <stop stop-color="#FA8F66" offset="0.0327797203%"></stop>
            <stop stop-color="#FAAF66" offset="99.9480988%"></stop>
        </linearGradient>
    </defs>
    <g id="页面-1" stroke="none" stroke-width="1" fill="none" fill-rule="evenodd">
        <g id="夜间正式" transform="translate(-1075.000000, -932.000000)">
            <g id="编组" transform="translate(1075.000000, 932.000000)">
                <rect id="矩形" x="0" y="0" width="48" height="48"></rect>
                <g id="编组备份" transform="translate(1.833333, 5.000000)">
                    <circle id="椭圆形" stroke="#333333" stroke-width="0.71" fill="#ffffff" cx="22.1666667" cy="19"
                        r="18.645"></circle>
                    <path
                        d="M0,19 C7.38888889,10.5555556 14.7777778,6.33333333 22.1666667,6.33333333 C29.5555556,6.33333333 36.9444444,10.5555556 44.3333333,19 C36.9444444,27.4444444 29.5555556,31.6666667 22.1666667,31.6666667 C14.7777778,31.6666667 7.38888889,27.4444444 0,19 Z"
                        id="路径-38" stroke="#333333" stroke-width="0.71" fill="#ffffff" stroke-linejoin="round">
                    </path>
                    <path
                        d="M28.8583135,9.90305755 C29.1928196,9.84685426 29.518439,9.93155714 29.7744826,10.1139374 C30.0305263,10.2963176 30.2169942,10.5763752 30.2731975,10.9108813 C30.3019926,11.0822621 30.2940945,11.2578025 30.2500248,11.4259048 L30.2500248,11.4259048 L28.1905057,19.2818731 C28.0863569,19.6791452 27.7905524,19.9980817 27.4022306,20.1317917 L27.4022306,20.1317917 L16.4256546,23.9113299 C16.1049395,24.021761 15.7698255,23.991742 15.4872824,23.8539366 C15.2104468,23.7189149 14.9840798,23.4804172 14.8711743,23.1691673 L14.8711743,23.1691673 L12.9053694,13.8797977 C12.8355709,13.547862 12.9069238,13.2190592 13.0787103,12.9557906 C13.2493519,12.6942766 13.5190929,12.4974263 13.8480241,12.4264019 L13.8480241,12.4264019 Z"
                        id="矩形" stroke="#333333" stroke-width="0.71" fill="#ffffff"
                        transform="translate(21.716493, 16.989067) rotate(19.000000) translate(-21.716493, -16.989067) ">
                    </path>
                    <rect id="矩形" stroke="#333333" stroke-width="0.71" fill="url(#linearGradient-1)" x="11.5507425"
                        y="12.6802716" width="21.2318483" height="13.8813951" rx="1.58333333"></rect>
                    <path
                        d="M32.7825908,16.4503642 L32.7825908,21.5496358 L26.0904833,21.5496358 C25.3864208,21.5496358 24.7490118,21.2642581 24.2876185,20.8028648 C23.8262252,20.3414715 23.5408475,19.7040625 23.5408475,19 C23.5408475,18.2959375 23.8262252,17.6585285 24.2876185,17.1971352 C24.7490118,16.7357419 25.3864208,16.4503642 26.0904833,16.4503642 L26.0904833,16.4503642 L32.7825908,16.4503642 Z"
                        id="矩形" stroke="#333333" stroke-width="0.71" fill="#ffffff"></path>
                    <circle id="椭圆形" fill="#333333" cx="25.8924455" cy="19" r="1.0994596"></circle>
                </g>
            </g>
        </g>
    </g>
</svg>