<?xml version="1.0" encoding="UTF-8"?>
<svg width="48px" height="48px" viewBox="0 0 48 48" version="1.1" xmlns="http://www.w3.org/2000/svg"
    xmlns:xlink="http://www.w3.org/1999/xlink">
    <defs>
        <linearGradient x1="50%" y1="0%" x2="50%" y2="100%" id="linearGradient-1">
            <stop stop-color="#FA8F66" offset="0.0327797203%"></stop>
            <stop stop-color="#FAAF66" offset="99.9480988%"></stop>
        </linearGradient>
        <linearGradient x1="50%" y1="0%" x2="50%" y2="100%" id="linearGradient-2">
            <stop stop-color="#FA8F66" offset="0.0327797203%"></stop>
            <stop stop-color="#FAAF66" offset="99.9480988%"></stop>
        </linearGradient>
    </defs>
    <g id="页面-1" stroke="none" stroke-width="1" fill="none" fill-rule="evenodd">
        <g id="夜间正式" transform="translate(-769.000000, -734.000000)">
            <g id="编组-3" transform="translate(769.000000, 734.000000)">
                <rect id="矩形" x="0" y="0" width="48" height="48"></rect>
                <g id="编组-3备份" transform="translate(6.492548, 2.000000)">
                    <g id="编组" transform="translate(0.000000, 17.285714)">
                        <rect id="矩形" fill="#333333" x="0" y="5.43400647" width="17.6749715" height="10.8680129"></rect>
                        <path
                            d="M11.255116,10.4090901 C13.2302016,10.2876491 14.9351026,10.1350922 16.0320681,11.0768564 C16.8748652,11.8004127 17.3199715,13.1663388 17.3199715,15.5850231 C17.3199715,16.592632 16.8214735,17.5236347 15.9874311,18.3046394 C15.0822633,19.1522466 13.7843422,19.8233884 12.2563506,20.2304565 C11.2083733,20.5096453 10.0522869,20.6640296 8.83748575,20.6640296 C6.470784,20.6640296 4.32606695,20.0791406 2.77438387,19.1250394 C1.30097938,18.2190702 0.355,16.9779901 0.355,15.5850231 C0.355,14.7334921 0.412100457,14.0113088 0.522433306,13.3996899 C0.779100181,11.9768832 1.32052484,11.1740116 2.1148535,10.7581411 C3.20478841,10.187506 4.70629396,10.3037293 6.4198555,10.4090901 C7.18869829,10.4563635 7.99960177,10.5060167 8.83748575,10.5060167 C9.67536973,10.5060167 10.4862732,10.4563635 11.255116,10.4090901 Z"
                            id="椭圆形备份-4" stroke="#333333" stroke-width="0.71" fill="#ffffff"></path>
                        <path
                            d="M1.64290342,7.59536671 C2.73986886,6.65360244 4.44476986,6.8061594 6.4198555,6.92760039 C7.18869829,6.9748738 7.99960177,7.02452694 8.83748575,7.02452694 C9.67536973,7.02452694 10.4862732,6.9748738 11.255116,6.92760039 C13.2302016,6.8061594 14.9351026,6.65360244 16.0320681,7.59536671 C16.8748652,8.31892298 17.3199715,9.68484913 17.3199715,12.1035334 C17.3199715,13.4965003 16.3739921,14.7375805 14.9005876,15.6435496 C13.3489045,16.5976509 11.2041875,17.1825399 8.83748575,17.1825399 C6.470784,17.1825399 4.32606695,16.5976509 2.77438387,15.6435496 C1.30097938,14.7375805 0.355,13.4965003 0.355,12.1035334 C0.355,9.68484913 0.800106294,8.31892298 1.64290342,7.59536671 Z"
                            id="椭圆形备份-5" stroke="#333333" stroke-width="0.71" fill="#ffffff"></path>
                        <path
                            d="M1.64290342,4.28460368 C2.73986886,3.34283941 4.44476986,3.49539637 6.4198555,3.61683736 C7.18869829,3.66411076 7.99960177,3.71376391 8.83748575,3.71376391 C9.67536973,3.71376391 10.4862732,3.66411076 11.255116,3.61683736 C13.2302016,3.49539637 14.9351026,3.34283941 16.0320681,4.28460368 C16.8748652,5.00815995 17.3199715,6.37408609 17.3199715,8.79277038 C17.3199715,10.1857373 16.3739921,11.4268174 14.9005876,12.3327866 C13.3489045,13.2868878 11.2041875,13.8717768 8.83748575,13.8717768 C6.470784,13.8717768 4.32606695,13.2868878 2.77438387,12.3327866 C1.30097938,11.4268174 0.355,10.1857373 0.355,8.79277038 L0.355,8.79277038 C0.355,6.37408609 0.800106294,5.00815995 1.64290342,4.28460368 Z"
                            id="椭圆形备份-6" stroke="#333333" stroke-width="0.71" fill="#ffffff"></path>
                        <ellipse id="椭圆形备份-3" stroke="#333333" stroke-width="0.71" fill="#ffffff" cx="8.83748575"
                            cy="5.43400647" rx="8.48248575" ry="5.07900647"></ellipse>
                    </g>
                    <g id="编组" transform="translate(14.868625, 17.285714)">
                        <rect id="矩形" fill="#333333" x="0" y="6.05744474" width="19.7028038" height="14.4998339"></rect>
                        <path
                            d="M12.5439049,14.8464262 C14.7593968,14.7102035 16.6685375,14.5450885 17.8979421,15.6005541 C18.8432097,16.4120831 19.3478038,17.9415658 19.3478038,20.656841 C19.3478038,22.2219656 18.288338,23.6189053 16.6314507,24.6376946 C14.8962849,25.704616 12.4980888,26.3592857 9.85140188,26.3592857 C7.20471493,26.3592857 4.80651884,25.704616 3.07135303,24.6376946 C1.41446581,23.6189053 0.355,22.2219656 0.355,20.656841 L0.355,20.656841 C0.355,17.9415658 0.85959406,16.4120831 1.80486169,15.6005541 C3.03426621,14.5450885 4.94340699,14.7102035 7.15889882,14.8464262 C8.0151553,14.8990743 8.91825406,14.9543962 9.85140188,14.9543962 C10.7845497,14.9543962 11.6876485,14.8990743 12.5439049,14.8464262 Z"
                            id="椭圆形备份-7" stroke="#333333" stroke-width="0.71" fill="#ffffff"></path>
                        <path
                            d="M12.5439049,11.5626628 C14.7593968,11.4264401 16.6685375,11.2613252 17.8979421,12.3167908 C18.8432097,13.1283198 19.3478038,14.6578025 19.3478038,17.3730777 C19.3478038,18.5068676 18.7883409,19.5552961 17.8494923,20.4344422 C16.8362273,21.3832726 15.3835712,22.1351231 13.6729945,22.5908332 C12.50157,22.9029093 11.2093054,23.0755224 9.85140188,23.0755224 C7.20471493,23.0755224 4.80651884,22.4208527 3.07135303,21.3539313 C1.41446581,20.335142 0.355,18.9382023 0.355,17.3730777 C0.355,16.4210274 0.418933438,15.6136057 0.542289722,14.9297927 C0.831534761,13.3263923 1.44427447,12.4245519 2.33859749,11.9563294 C3.55895088,11.3174138 5.23966098,11.4446557 7.15889882,11.5626628 C8.0151553,11.615311 8.91825406,11.6706329 9.85140188,11.6706329 C10.7845497,11.6706329 11.6876485,11.615311 12.5439049,11.5626628 Z"
                            id="椭圆形备份-4" stroke="#333333" stroke-width="0.71" fill="#ffffff"></path>
                        <path
                            d="M12.5439049,7.6817452 C14.7593968,7.5455225 16.6685375,7.38040756 17.8979421,8.43587313 C18.8432097,9.24740214 19.3478038,10.7768848 19.3478038,13.49216 C19.3478038,15.0572847 18.288338,16.4542244 16.6314507,17.4730137 C14.8962849,18.539935 12.4980888,19.1946047 9.85140188,19.1946047 C7.20471493,19.1946047 4.80651884,18.539935 3.07135303,17.4730137 C1.41446581,16.4542244 0.355,15.0572847 0.355,13.49216 L0.355,13.49216 C0.355,10.7768848 0.85959406,9.24740214 1.80486169,8.43587313 C3.03426621,7.38040756 4.94340699,7.5455225 7.15889882,7.6817452 C8.0151553,7.73439337 8.91825406,7.78971527 9.85140188,7.78971527 C10.7845497,7.78971527 11.6876485,7.73439337 12.5439049,7.6817452 Z"
                            id="椭圆形备份-5" stroke="#333333" stroke-width="0.71" fill="#ffffff"></path>
                        <path
                            d="M1.80486169,4.74526948 C3.03426621,3.6898039 4.94340699,3.85491885 7.15889882,3.99114155 C8.0151553,4.04378972 8.91825406,4.09911162 9.85140188,4.09911162 C10.1415252,4.09911162 10.4287575,4.09377992 10.7193879,4.08455694 C11.1229656,4.06410247 11.5160136,4.04095603 11.8978955,4.0184635 C14.4539392,3.86791463 16.509566,3.70176407 17.8142365,4.72497016 C18.8345753,5.52518521 19.3478038,7.05916462 19.3478038,9.80155636 C19.3478038,11.366681 18.288338,12.7636207 16.6314507,13.78241 C14.8962849,14.8493314 12.4980888,15.5040011 9.85140188,15.5040011 C7.20471493,15.5040011 4.80651884,14.8493314 3.07135303,13.78241 C1.41446581,12.7636207 0.355,11.366681 0.355,9.80155636 C0.355,7.08628118 0.85959406,5.55679849 1.80486169,4.74526948 Z"
                            id="椭圆形备份-6" stroke="#333333" stroke-width="0.71" fill="#ffffff"></path>
                        <ellipse id="椭圆形备份-3" stroke="#333333" stroke-width="0.71" fill="url(#linearGradient-1)"
                            cx="9.85140188" cy="6.05744474" rx="9.49640188" ry="5.70244474"></ellipse>
                    </g>
                    <path
                        d="M23.9264286,0.636680919 L34.3395832,7.07142857 L23.9264286,13.5061762 L23.9264286,9.00206069 L12.9264286,9.00285703 L12.9264286,5.13992416 L23.9264286,5.13836688 L23.9264286,0.636680919 Z"
                        id="路径" stroke="#333333" stroke-width="0.71" fill="url(#linearGradient-2)"></path>
                    <rect id="矩形备份" fill="#FA9466" x="8.83748575" y="5.22137928" width="2.16251425" height="3.70009859">
                    </rect>
                    <rect id="矩形备份-2" fill="#FA9466" x="5.6946286" y="5.22137928" width="2.16251425"
                        height="3.70009859"></rect>
                    <rect id="矩形备份-3" fill="#FA9466" x="2.55177146" y="5.22137928" width="2.16251425"
                        height="3.70009859"></rect>
                </g>
            </g>
        </g>
    </g>
</svg>